SplineFontDB: 3.0
FontName: CHAOSFONT
FullName: CHAOSFONT
FamilyName: CHAOSFONT
Weight: Book
Copyright: Copyright (c) 2019, NNN1590,,,
Version: 001.001
ItalicAngle: 0
UnderlinePosition: -200
UnderlineWidth: 50
Ascent: 800
Descent: 200
InvalidEm: 0
sfntRevision: 0x00010000
woffMajor: 1
woffMinor: 1
LayerCount: 2
Layer: 0 1 "+gMyXYgAA" 1
Layer: 1 1 "+Uk2XYgAA" 0
XUID: [1021 635 -1250840874 1813186]
StyleMap: 0x0040
FSType: 0
OS2Version: 4
OS2_WeightWidthSlopeOnly: 0
OS2_UseTypoMetrics: 1
CreationTime: 1558248362
ModificationTime: 1561397707
PfmFamily: 17
TTFWeight: 400
TTFWidth: 5
LineGap: 90
VLineGap: 0
Panose: 2 0 5 9 0 0 0 0 0 0
OS2TypoAscent: 800
OS2TypoAOffset: 0
OS2TypoDescent: -200
OS2TypoDOffset: 0
OS2TypoLinegap: 90
OS2WinAscent: 879
OS2WinAOffset: 0
OS2WinDescent: 72
OS2WinDOffset: 0
HheadAscent: 879
HheadAOffset: 0
HheadDescent: -72
HheadDOffset: 0
OS2SubXSize: 650
OS2SubYSize: 700
OS2SubXOff: 0
OS2SubYOff: 140
OS2SupXSize: 650
OS2SupYSize: 700
OS2SupXOff: 0
OS2SupYOff: 480
OS2StrikeYSize: 49
OS2StrikeYPos: 258
OS2CapHeight: 771
OS2XHeight: 546
OS2Vendor: 'PfEd'
OS2CodePages: 00000001.00000000
OS2UnicodeRanges: 00000003.00020000.00002000.00000000
Lookup: 4 0 1 "'liga'SLl0" { "'liga'SLl0s"  } ['liga' ('DFLT' <'dflt' > 'cans' <'dflt' > 'kana' <'dflt' > 'latn' <'dflt' > ) ]
MarkAttachClasses: 1
DEI: 91125
ShortTable: cvt  2
  33
  633
EndShort
ShortTable: maxp 16
  1
  0
  208
  127
  6
  0
  0
  2
  0
  1
  1
  0
  64
  46
  0
  0
EndShort
LangName: 1033 "" "" "Regular" "FontForge 2.0 : CHAOSFONT : 23-5-2019"
GaspTable: 1 65535 2 0
Encoding: Custom
UnicodeInterp: none
NameList: AGL For New Fonts
DisplaySize: -48
AntiAlias: 1
FitToEm: 0
WinInfo: 57294 27 10
BeginPrivate: 0
EndPrivate
BeginChars: 1114115 249

StartChar: .notdef
Encoding: 1114112 -1 0
Width: 1000
Flags: W
LayerCount: 2
Fore
SplineSet
33 0 m 1,0,-1
 33 666 l 1,1,-1
 298 666 l 1,2,-1
 298 0 l 1,3,-1
 33 0 l 1,0,-1
66 33 m 1,4,-1
 265 33 l 1,5,-1
 265 633 l 1,6,-1
 66 633 l 1,7,-1
 66 33 l 1,4,-1
EndSplineSet
EndChar

StartChar: exclam
Encoding: 33 33 3
Width: 1000
GlyphClass: 2
Flags: W
LayerCount: 2
Fore
SplineSet
263 351 m 1,0,-1
 244 270 l 1,1,-1
 313 258 l 1,2,-1
 328 300 l 1,3,-1
 263 351 l 1,0,-1
280 657 m 1,4,-1
 268 408 l 1,5,-1
 367 360 l 1,6,-1
 418 591 l 1,7,-1
 280 657 l 1,4,-1
EndSplineSet
EndChar

StartChar: quotedbl
Encoding: 34 34 4
Width: 1000
GlyphClass: 2
Flags: W
LayerCount: 2
Fore
SplineSet
439 726 m 1,0,-1
 439 558 l 1,1,-1
 544 558 l 1,2,-1
 529 705 l 1,3,-1
 439 726 l 1,0,-1
244 735 m 1,4,-1
 223 528 l 1,5,-1
 394 531 l 1,6,-1
 406 729 l 1,7,-1
 244 735 l 1,4,-1
EndSplineSet
EndChar

StartChar: numbersign
Encoding: 35 35 5
Width: 1000
GlyphClass: 2
Flags: W
LayerCount: 2
Fore
SplineSet
46 357 m 1,0,-1
 40 243 l 1,1,-1
 763 90 l 1,2,-1
 763 207 l 1,3,-1
 46 357 l 1,0,-1
97 633 m 1,4,-1
 64 465 l 1,5,-1
 751 318 l 1,6,-1
 775 555 l 1,7,-1
 97 633 l 1,4,-1
496 699 m 1,8,-1
 355 54 l 1,9,-1
 514 54 l 1,10,-1
 667 663 l 1,11,-1
 514 720 l 1,12,-1
 496 699 l 1,8,-1
223 726 m 1,13,-1
 100 93 l 1,14,-1
 250 66 l 1,15,-1
 352 708 l 1,16,-1
 223 726 l 1,13,-1
EndSplineSet
EndChar

StartChar: dollar
Encoding: 36 36 6
Width: 1000
GlyphClass: 2
Flags: W
LayerCount: 2
Fore
SplineSet
328 801 m 1,0,-1
 298 147 l 1,1,-1
 397 129 l 1,2,-1
 481 789 l 1,3,-1
 328 801 l 1,0,-1
601 702 m 1,4,-1
 244 726 l 1,5,-1
 211 504 l 1,6,-1
 433 432 l 1,7,-1
 478 345 l 1,8,-1
 358 300 l 1,9,-1
 175 363 l 1,10,-1
 133 276 l 1,11,-1
 355 219 l 1,12,-1
 535 219 l 1,13,-1
 586 222 l 1,14,-1
 619 426 l 1,15,-1
 553 561 l 1,16,-1
 400 579 l 1,17,-1
 577 651 l 1,18,-1
 601 702 l 1,4,-1
EndSplineSet
EndChar

StartChar: percent
Encoding: 37 37 7
Width: 1000
GlyphClass: 2
Flags: W
LayerCount: 2
Fore
SplineSet
703 714 m 1,0,-1
 121 237 l 1,1,-1
 172 72 l 1,2,-1
 712 483 l 1,3,-1
 703 714 l 1,0,-1
634 168 m 1,4,-1
 736 126 l 1,5,-1
 691 54 l 1,6,-1
 595 87 l 1,7,-1
 634 168 l 1,4,-1
601 228 m 1,8,-1
 478 81 l 1,9,-1
 766 0 l 1,10,-1
 835 159 l 1,11,-1
 601 228 l 1,8,-1
280 681 m 1,12,-1
 286 612 l 1,13,-1
 223 555 l 1,14,-1
 226 654 l 1,15,-1
 280 681 l 1,12,-1
247 729 m 1,16,-1
 127 525 l 1,17,-1
 292 504 l 1,18,-1
 382 720 l 1,19,-1
 247 729 l 1,16,-1
EndSplineSet
EndChar

StartChar: ampersand
Encoding: 38 38 8
Width: 1000
GlyphClass: 2
Flags: W
LayerCount: 2
Fore
SplineSet
670 99 m 1,0,-1
 211 522 l 1,1,-1
 304 768 l 1,2,-1
 463 834 l 1,3,-1
 562 807 l 1,4,-1
 583 723 l 1,5,-1
 571 579 l 1,6,-1
 388 429 l 1,7,-1
 241 366 l 1,8,-1
 133 222 l 1,9,-1
 208 57 l 1,10,-1
 376 144 l 1,11,-1
 517 369 l 1,12,-1
 655 579 l 1,13,-1
 676 612 l 1,14,-1
 709 621 l 1,15,-1
 721 510 l 1,16,-1
 619 291 l 1,17,-1
 520 144 l 1,18,-1
 415 66 l 1,19,-1
 289 -45 l 1,20,-1
 121 33 l 1,21,-1
 61 168 l 1,22,-1
 160 390 l 1,23,-1
 310 567 l 1,24,-1
 472 666 l 1,25,-1
 514 732 l 1,26,-1
 439 759 l 1,27,-1
 328 711 l 1,28,-1
 304 648 l 1,29,-1
 685 213 l 1,30,-1
 670 99 l 1,0,-1
EndSplineSet
EndChar

StartChar: quotesingle
Encoding: 39 39 9
Width: 1000
GlyphClass: 2
Flags: W
LayerCount: 2
Fore
SplineSet
286 756 m 1,0,-1
 286 546 l 1,1,-1
 481 576 l 1,2,-1
 493 777 l 1,3,-1
 286 756 l 1,0,-1
EndSplineSet
EndChar

StartChar: parenleft
Encoding: 40 40 10
Width: 1000
GlyphClass: 2
Flags: W
LayerCount: 2
Fore
SplineSet
670 780 m 0,0,1
 648 770 648 770 609.5 755.5 c 128,-1,2
 571 741 571 741 550.5 731.5 c 128,-1,3
 530 722 530 722 504.5 702 c 128,-1,4
 479 682 479 682 460 654 c 0,5,6
 434 615 434 615 426 576 c 128,-1,7
 418 537 418 537 417 479.5 c 128,-1,8
 416 422 416 422 412 390 c 0,9,10
 400 304 400 304 400 204 c 0,11,12
 400 190 400 190 395 160 c 128,-1,13
 390 130 390 130 393 111.5 c 128,-1,14
 396 93 396 93 412 78 c 0,15,16
 427 64 427 64 442 55.5 c 128,-1,17
 457 47 457 47 477 43 c 128,-1,18
 497 39 497 39 508.5 37.5 c 128,-1,19
 520 36 520 36 547.5 35 c 128,-1,20
 575 34 575 34 586 33 c 0,21,22
 649 28 649 28 688 60 c 0,23,24
 702 71 702 71 712 85 c 128,-1,25
 722 99 722 99 725.5 114 c 128,-1,26
 729 129 729 129 715 138 c 0,27,28
 692 153 692 153 638 134 c 128,-1,29
 584 115 584 115 568 138 c 0,30,31
 515 195 515 195 496 253.5 c 128,-1,32
 477 312 477 312 487 387 c 0,33,34
 495 442 495 442 518.5 485.5 c 128,-1,35
 542 529 542 529 582 580.5 c 128,-1,36
 622 632 622 632 643 669 c 0,37,38
 650 682 650 682 676.5 712 c 128,-1,39
 703 742 703 742 709 768 c 0,40,41
 712 779 712 779 696.5 782.5 c 128,-1,42
 681 786 681 786 670 780 c 0,0,1
EndSplineSet
EndChar

StartChar: parenright
Encoding: 41 41 11
Width: 1000
GlyphClass: 2
Flags: W
LayerCount: 2
Fore
SplineSet
307 732 m 0,0,1
 316 715 316 715 330 705.5 c 128,-1,2
 344 696 344 696 366.5 687.5 c 128,-1,3
 389 679 389 679 400 672 c 0,4,5
 408 667 408 667 444 655.5 c 128,-1,6
 480 644 480 644 493 624 c 0,7,8
 519 582 519 582 527 549.5 c 128,-1,9
 535 517 535 517 526 468 c 0,10,11
 512 409 512 409 487 370 c 128,-1,12
 462 331 462 331 412 276 c 0,13,14
 392 255 392 255 363.5 239 c 128,-1,15
 335 223 335 223 311.5 215 c 128,-1,16
 288 207 288 207 264 189 c 128,-1,17
 240 171 240 171 226 144 c 0,18,19
 219 131 219 131 225.5 121.5 c 128,-1,20
 232 112 232 112 250 106.5 c 128,-1,21
 268 101 268 101 282 98.5 c 128,-1,22
 296 96 296 96 316 93 c 0,23,24
 330 91 330 91 363 86.5 c 128,-1,25
 396 82 396 82 410.5 81 c 128,-1,26
 425 80 425 80 449.5 80.5 c 128,-1,27
 474 81 474 81 494 88 c 128,-1,28
 514 95 514 95 535 108 c 0,29,30
 555 120 555 120 569 135 c 128,-1,31
 583 150 583 150 593 170 c 128,-1,32
 603 190 603 190 608 204.5 c 128,-1,33
 613 219 613 219 621 248 c 128,-1,34
 629 277 629 277 634 291 c 0,35,36
 663 384 663 384 674 439 c 128,-1,37
 685 494 685 494 682 570 c 0,38,39
 682 582 682 582 678.5 593.5 c 128,-1,40
 675 605 675 605 672.5 612 c 128,-1,41
 670 619 670 619 661.5 631 c 128,-1,42
 653 643 653 643 650.5 646.5 c 128,-1,43
 648 650 648 650 634.5 664.5 c 128,-1,44
 621 679 621 679 619 681 c 0,45,46
 589 715 589 715 544 726 c 0,47,48
 519 732 519 732 493.5 735 c 128,-1,49
 468 738 468 738 455.5 738.5 c 128,-1,50
 443 739 443 739 407.5 740 c 128,-1,51
 372 741 372 741 361 741 c 0,52,53
 357 741 357 741 346 742 c 0,54,55
 305 746 305 746 305 737 c 0,56,57
 305 735 305 735 307 732 c 0,0,1
EndSplineSet
EndChar

StartChar: asterisk
Encoding: 42 42 12
Width: 1000
GlyphClass: 2
Flags: W
LayerCount: 2
Fore
SplineSet
655 606 m 0,0,1
 485 554 485 554 372 478.5 c 128,-1,2
 259 403 259 403 121 261 c 0,3,4
 106 246 106 246 104.5 218 c 128,-1,5
 103 190 103 190 112 165.5 c 128,-1,6
 121 141 121 141 139 126 c 128,-1,7
 157 111 157 111 178 117 c 0,8,9
 339 167 339 167 446.5 235.5 c 128,-1,10
 554 304 554 304 679 432 c 0,11,12
 711 465 711 465 710 531 c 0,13,14
 709 594 709 594 678 606 c 0,15,16
 668 610 668 610 655 606 c 0,0,1
274 642 m 0,17,18
 265 651 265 651 251 642.5 c 128,-1,19
 237 634 237 634 229.5 618 c 128,-1,20
 222 602 222 602 229 591 c 0,21,22
 237 577 237 577 278 507 c 128,-1,23
 319 437 319 437 328 422.5 c 128,-1,24
 337 408 337 408 370.5 354.5 c 128,-1,25
 404 301 404 301 421.5 279.5 c 128,-1,26
 439 258 439 258 471.5 217.5 c 128,-1,27
 504 177 504 177 536 145 c 128,-1,28
 568 113 568 113 607 78 c 0,29,30
 625 62 625 62 650.5 78 c 128,-1,31
 676 94 676 94 689.5 125 c 128,-1,32
 703 156 703 156 691 177 c 0,33,34
 673 208 673 208 653.5 237.5 c 128,-1,35
 634 267 634 267 618.5 289.5 c 128,-1,36
 603 312 603 312 579.5 340 c 128,-1,37
 556 368 556 368 543.5 384 c 128,-1,38
 531 400 531 400 503 428 c 128,-1,39
 475 456 475 456 464 467.5 c 128,-1,40
 453 479 453 479 419.5 510 c 128,-1,41
 386 541 386 541 376 550.5 c 128,-1,42
 366 560 366 560 325.5 596 c 128,-1,43
 285 632 285 632 274 642 c 0,17,18
370 645 m 0,44,45
 363 586 363 586 346.5 507 c 128,-1,46
 330 428 330 428 320.5 378.5 c 128,-1,47
 311 329 311 329 311 259.5 c 128,-1,48
 311 190 311 190 328 120 c 0,49,50
 336 89 336 89 373 79.5 c 128,-1,51
 410 70 410 70 448.5 84.5 c 128,-1,52
 487 99 487 99 499 129 c 0,53,54
 547 246 547 246 549 356.5 c 128,-1,55
 551 467 551 467 520 591 c 0,56,57
 515 615 515 615 495 622.5 c 128,-1,58
 475 630 475 630 441.5 631.5 c 128,-1,59
 408 633 408 633 391 639 c 0,60,61
 389 640 389 640 382.5 643.5 c 128,-1,62
 376 647 376 647 374 647.5 c 128,-1,63
 372 648 372 648 370 645 c 0,44,45
EndSplineSet
EndChar

StartChar: plus
Encoding: 43 43 13
Width: 1000
GlyphClass: 2
Flags: W
LayerCount: 2
Fore
SplineSet
220 765 m 0,0,1
 175 641 175 641 159 542.5 c 128,-1,2
 143 444 143 444 156.5 339.5 c 128,-1,3
 170 235 170 235 217 120 c 0,4,5
 237 71 237 71 298 47 c 128,-1,6
 359 23 359 23 418.5 36.5 c 128,-1,7
 478 50 478 50 496 99 c 0,8,9
 542 226 542 226 551.5 340 c 128,-1,10
 561 454 561 454 539.5 560.5 c 128,-1,11
 518 667 518 667 463 798 c 0,12,13
 445 840 445 840 392.5 848.5 c 128,-1,14
 340 857 340 857 288 833 c 128,-1,15
 236 809 236 809 220 765 c 0,0,1
64 579 m 0,16,17
 27 565 27 565 23 520 c 128,-1,18
 19 475 19 475 43.5 430 c 128,-1,19
 68 385 68 385 106 369 c 0,20,21
 221 319 221 319 300.5 296.5 c 128,-1,22
 380 274 380 274 477 275.5 c 128,-1,23
 574 277 574 277 673 315 c 0,24,25
 717 332 717 332 722.5 386 c 128,-1,26
 728 440 728 440 699 493.5 c 128,-1,27
 670 547 670 547 625 567 c 0,28,29
 474 632 474 632 345.5 635 c 128,-1,30
 217 638 217 638 64 579 c 0,16,17
EndSplineSet
EndChar

StartChar: comma
Encoding: 44 44 14
Width: 1000
GlyphClass: 2
Flags: W
LayerCount: 2
Fore
SplineSet
295 261 m 0,0,1
 271 238 271 238 262.5 229.5 c 128,-1,2
 254 221 254 221 232.5 198.5 c 128,-1,3
 211 176 211 176 204.5 162.5 c 128,-1,4
 198 149 198 149 190 129.5 c 128,-1,5
 182 110 182 110 186.5 94 c 128,-1,6
 191 78 191 78 205 63 c 0,7,8
 235 31 235 31 278.5 32 c 128,-1,9
 322 33 322 33 361 54.5 c 128,-1,10
 400 76 400 76 436 111 c 1,11,12
 465 145 465 145 455.5 185 c 128,-1,13
 446 225 446 225 412 261 c 0,14,15
 389 286 389 286 354.5 285.5 c 128,-1,16
 320 285 320 285 295 261 c 0,0,1
EndSplineSet
EndChar

StartChar: hyphen
Encoding: 45 45 15
Width: 1000
GlyphClass: 2
Flags: W
LayerCount: 2
Fore
SplineSet
271 477 m 0,0,1
 231 467 231 467 210 436.5 c 128,-1,2
 189 406 189 406 172 356 c 128,-1,3
 155 306 155 306 136 279 c 1,4,-1
 595 288 l 1,5,-1
 703 414 l 1,6,7
 659 420 659 420 609.5 433.5 c 128,-1,8
 560 447 560 447 526.5 458 c 128,-1,9
 493 469 493 469 446.5 479 c 128,-1,10
 400 489 400 489 363.5 488 c 128,-1,11
 327 487 327 487 271 477 c 0,0,1
EndSplineSet
EndChar

StartChar: period
Encoding: 46 46 16
Width: 1000
GlyphClass: 2
Flags: W
LayerCount: 2
Fore
SplineSet
295 285 m 1,0,-1
 295 195 l 1,1,-1
 409 195 l 1,2,-1
 403 267 l 1,3,-1
 295 285 l 1,0,-1
EndSplineSet
EndChar

StartChar: slash
Encoding: 47 47 17
Width: 1000
GlyphClass: 2
Flags: W
LayerCount: 2
Fore
SplineSet
466 768 m 1,0,-1
 223 114 l 1,1,-1
 439 72 l 1,2,-1
 682 750 l 1,3,-1
 466 768 l 1,0,-1
EndSplineSet
EndChar

StartChar: zero
Encoding: 48 48 18
Width: 1000
GlyphClass: 2
Flags: W
LayerCount: 2
Fore
SplineSet
526 582 m 1,0,-1
 259 288 l 1,1,-1
 274 168 l 1,2,-1
 583 501 l 1,3,-1
 526 582 l 1,0,-1
424 606 m 1,4,-1
 520 534 l 1,5,-1
 514 330 l 1,6,-1
 475 177 l 1,7,-1
 355 186 l 1,8,-1
 289 222 l 1,9,-1
 298 510 l 1,10,-1
 424 606 l 1,4,-1
430 762 m 1,11,-1
 238 717 l 1,12,-1
 178 288 l 1,13,-1
 214 99 l 1,14,-1
 445 75 l 1,15,-1
 583 84 l 1,16,-1
 601 234 l 1,17,-1
 640 429 l 1,18,-1
 643 576 l 1,19,-1
 628 690 l 1,20,-1
 430 762 l 1,11,-1
EndSplineSet
EndChar

StartChar: one
Encoding: 49 49 19
Width: 1000
GlyphClass: 2
Flags: W
LayerCount: 2
Fore
SplineSet
220 714 m 1,0,-1
 238 579 l 1,1,-1
 406 639 l 1,2,-1
 415 201 l 1,3,-1
 202 225 l 1,4,-1
 181 63 l 1,5,-1
 721 111 l 1,6,-1
 721 198 l 1,7,-1
 451 195 l 1,8,-1
 493 756 l 1,9,-1
 220 714 l 1,0,-1
EndSplineSet
EndChar

StartChar: two
Encoding: 50 50 20
Width: 1000
GlyphClass: 2
Flags: W
LayerCount: 2
Fore
SplineSet
145 789 m 1,0,-1
 208 564 l 1,1,-1
 487 744 l 1,2,-1
 619 660 l 1,3,-1
 625 477 l 1,4,-1
 475 315 l 1,5,-1
 220 219 l 1,6,-1
 202 54 l 1,7,-1
 697 75 l 1,8,-1
 700 204 l 1,9,-1
 385 171 l 1,10,-1
 739 483 l 1,11,-1
 745 711 l 1,12,-1
 679 870 l 1,13,-1
 337 852 l 1,14,-1
 145 789 l 1,0,-1
EndSplineSet
EndChar

StartChar: three
Encoding: 51 51 21
Width: 1000
GlyphClass: 2
Flags: W
LayerCount: 2
Fore
SplineSet
145 777 m 1,0,-1
 157 633 l 1,1,-1
 487 675 l 1,2,-1
 235 399 l 1,3,-1
 514 450 l 1,4,-1
 244 108 l 1,5,-1
 508 126 l 1,6,-1
 718 495 l 1,7,-1
 481 516 l 1,8,-1
 724 780 l 1,9,-1
 145 777 l 1,0,-1
EndSplineSet
EndChar

StartChar: four
Encoding: 52 52 22
Width: 1000
GlyphClass: 2
Flags: W
LayerCount: 2
Fore
SplineSet
469 663 m 1,0,-1
 556 645 l 1,1,-1
 547 399 l 1,2,-1
 289 435 l 1,3,-1
 469 663 l 1,0,-1
427 765 m 1,4,-1
 103 294 l 1,5,-1
 478 369 l 1,6,-1
 376 -33 l 1,7,-1
 625 63 l 1,8,-1
 634 309 l 1,9,-1
 871 321 l 1,10,-1
 862 486 l 1,11,-1
 646 495 l 1,12,-1
 646 792 l 1,13,-1
 427 765 l 1,4,-1
EndSplineSet
EndChar

StartChar: five
Encoding: 53 53 23
Width: 1000
GlyphClass: 2
Flags: W
LayerCount: 2
Fore
SplineSet
334 750 m 1,0,-1
 274 597 l 1,1,-1
 598 537 l 1,2,-1
 562 330 l 1,3,-1
 319 303 l 1,4,-1
 202 363 l 1,5,-1
 184 246 l 1,6,-1
 430 162 l 1,7,-1
 619 177 l 1,8,-1
 712 378 l 1,9,-1
 721 582 l 1,10,-1
 460 657 l 1,11,-1
 784 660 l 1,12,-1
 784 780 l 1,13,-1
 334 750 l 1,0,-1
EndSplineSet
EndChar

StartChar: six
Encoding: 54 54 24
Width: 1000
GlyphClass: 2
Flags: W
LayerCount: 2
Fore
SplineSet
352 408 m 1,0,-1
 499 369 l 1,1,-1
 532 186 l 1,2,-1
 382 156 l 1,3,-1
 319 330 l 1,4,-1
 352 408 l 1,0,-1
592 714 m 1,5,-1
 319 723 l 1,6,-1
 187 468 l 1,7,-1
 187 195 l 1,8,-1
 484 15 l 1,9,-1
 643 57 l 1,10,-1
 703 249 l 1,11,-1
 703 405 l 1,12,-1
 541 486 l 1,13,-1
 325 498 l 1,14,-1
 655 612 l 1,15,-1
 592 714 l 1,5,-1
EndSplineSet
EndChar

StartChar: seven
Encoding: 55 55 25
Width: 1000
GlyphClass: 2
Flags: W
LayerCount: 2
Fore
SplineSet
214 732 m 1,0,-1
 196 540 l 1,1,-1
 565 588 l 1,2,-1
 250 63 l 1,3,-1
 541 81 l 1,4,-1
 760 744 l 1,5,-1
 214 732 l 1,0,-1
EndSplineSet
EndChar

StartChar: eight
Encoding: 56 56 26
Width: 1000
GlyphClass: 2
Flags: W
LayerCount: 2
Fore
SplineSet
463 396 m 1,0,-1
 514 393 l 1,1,-1
 502 234 l 1,2,-1
 292 222 l 1,3,-1
 463 396 l 1,0,-1
406 669 m 1,4,-1
 544 648 l 1,5,-1
 493 537 l 1,6,-1
 346 555 l 1,7,-1
 334 648 l 1,8,-1
 406 669 l 1,4,-1
523 735 m 1,9,-1
 280 732 l 1,10,-1
 181 597 l 1,11,-1
 196 501 l 1,12,-1
 406 450 l 1,13,-1
 184 357 l 1,14,-1
 178 162 l 1,15,-1
 448 135 l 1,16,-1
 568 135 l 1,17,-1
 688 309 l 1,18,-1
 679 432 l 1,19,-1
 535 510 l 1,20,-1
 688 636 l 1,21,-1
 523 735 l 1,9,-1
EndSplineSet
EndChar

StartChar: nine
Encoding: 57 57 27
Width: 1000
GlyphClass: 2
Flags: W
LayerCount: 2
Fore
SplineSet
325 654 m 1,0,-1
 481 597 l 1,1,-1
 436 447 l 1,2,-1
 337 450 l 1,3,-1
 247 606 l 1,4,-1
 328 621 l 1,5,-1
 325 654 l 1,0,-1
622 624 m 1,6,-1
 334 711 l 1,7,-1
 139 582 l 1,8,-1
 235 357 l 1,9,-1
 469 387 l 1,10,-1
 190 63 l 1,11,-1
 409 45 l 1,12,-1
 652 525 l 1,13,-1
 622 624 l 1,6,-1
EndSplineSet
EndChar

StartChar: colon
Encoding: 58 58 28
Width: 1000
GlyphClass: 2
Flags: W
LayerCount: 2
Fore
SplineSet
310 324 m 1,0,-1
 310 198 l 1,1,-1
 499 204 l 1,2,-1
 496 321 l 1,3,-1
 310 324 l 1,0,-1
319 702 m 1,4,-1
 319 555 l 1,5,-1
 511 579 l 1,6,-1
 493 705 l 1,7,-1
 319 702 l 1,4,-1
EndSplineSet
EndChar

StartChar: semicolon
Encoding: 59 59 29
Width: 1000
GlyphClass: 2
Flags: W
LayerCount: 2
Fore
SplineSet
316 504 m 1,0,-1
 229 165 l 1,1,-1
 394 174 l 1,2,-1
 523 504 l 1,3,-1
 316 504 l 1,0,-1
355 756 m 1,4,-1
 352 672 l 1,5,-1
 541 630 l 1,6,-1
 556 765 l 1,7,-1
 355 756 l 1,4,-1
EndSplineSet
EndChar

StartChar: less
Encoding: 60 60 30
Width: 1000
GlyphClass: 2
Flags: W
LayerCount: 2
Fore
SplineSet
616 702 m 1,0,-1
 190 426 l 1,1,-1
 583 219 l 1,2,-1
 733 234 l 1,3,-1
 352 432 l 1,4,-1
 706 693 l 1,5,-1
 616 702 l 1,0,-1
EndSplineSet
EndChar

StartChar: equal
Encoding: 61 61 31
Width: 1000
GlyphClass: 2
Flags: W
LayerCount: 2
Fore
SplineSet
247 357 m 1,0,-1
 223 228 l 1,1,-1
 754 186 l 1,2,-1
 754 294 l 1,3,-1
 247 357 l 1,0,-1
202 540 m 1,4,-1
 235 450 l 1,5,-1
 748 438 l 1,6,-1
 733 579 l 1,7,-1
 202 540 l 1,4,-1
EndSplineSet
EndChar

StartChar: greater
Encoding: 62 62 32
Width: 1000
GlyphClass: 2
Flags: W
LayerCount: 2
Fore
SplineSet
238 645 m 1,0,-1
 499 435 l 1,1,-1
 205 222 l 1,2,-1
 385 195 l 1,3,-1
 640 393 l 1,4,-1
 457 657 l 1,5,-1
 238 645 l 1,0,-1
EndSplineSet
EndChar

StartChar: question
Encoding: 63 63 33
Width: 1000
GlyphClass: 2
Flags: W
LayerCount: 2
Fore
SplineSet
286 210 m 1,0,-1
 283 111 l 1,1,-1
 430 102 l 1,2,-1
 409 204 l 1,3,-1
 286 210 l 1,0,-1
196 693 m 1,4,-1
 199 564 l 1,5,-1
 397 618 l 1,6,-1
 544 651 l 1,7,-1
 520 522 l 1,8,-1
 361 474 l 1,9,-1
 316 297 l 1,10,-1
 436 288 l 1,11,-1
 496 402 l 1,12,-1
 694 606 l 1,13,-1
 541 789 l 1,14,-1
 196 693 l 1,4,-1
EndSplineSet
EndChar

StartChar: at
Encoding: 64 64 34
Width: 1000
GlyphClass: 2
Flags: W
LayerCount: 2
Fore
SplineSet
508 231 m 1,0,-1
 505 168 l 1,1,-1
 793 174 l 1,2,-1
 835 381 l 1,3,-1
 832 648 l 1,4,-1
 694 795 l 1,5,-1
 493 864 l 1,6,-1
 259 837 l 1,7,-1
 88 750 l 1,8,-1
 16 525 l 1,9,-1
 37 129 l 1,10,-1
 169 -27 l 1,11,-1
 499 -18 l 1,12,-1
 742 0 l 1,13,-1
 751 99 l 1,14,-1
 271 153 l 1,15,-1
 148 276 l 1,16,-1
 100 513 l 1,17,-1
 175 663 l 1,18,-1
 307 708 l 1,19,-1
 496 687 l 1,20,-1
 679 654 l 1,21,-1
 772 480 l 1,22,-1
 742 261 l 1,23,-1
 508 231 l 1,0,-1
397 570 m 1,24,-1
 496 537 l 1,25,-1
 487 366 l 1,26,-1
 400 345 l 1,27,-1
 289 345 l 1,28,-1
 268 486 l 1,29,-1
 397 570 l 1,24,-1
550 588 m 1,30,-1
 322 648 l 1,31,-1
 160 462 l 1,32,-1
 253 246 l 1,33,-1
 415 249 l 1,34,-1
 520 276 l 1,35,-1
 541 228 l 1,36,-1
 589 234 l 1,37,-1
 601 684 l 1,38,-1
 538 687 l 1,39,-1
 550 588 l 1,30,-1
EndSplineSet
EndChar

StartChar: A
Encoding: 65 65 35
Width: 1000
GlyphClass: 2
Flags: W
LayerCount: 2
Fore
SplineSet
322 486 m 0,0,1
 320 477 320 477 313 460.5 c 128,-1,2
 306 444 306 444 305 437.5 c 128,-1,3
 304 431 304 431 310 414 c 0,4,5
 316 404 316 404 325 398.5 c 128,-1,6
 334 393 334 393 340.5 391.5 c 128,-1,7
 347 390 347 390 362.5 387.5 c 128,-1,8
 378 385 378 385 384 384 c 0,9,10
 437 374 437 374 490 380 c 0,11,12
 517 383 517 383 524 402 c 0,13,14
 531 419 531 419 533.5 427 c 128,-1,15
 536 435 536 435 535 447.5 c 128,-1,16
 534 460 534 460 524 466 c 0,17,18
 503 475 503 475 493 475 c 128,-1,19
 483 475 483 475 461.5 470.5 c 128,-1,20
 440 466 440 466 426 466 c 0,21,22
 396 466 396 466 384 470 c 0,23,24
 374 474 374 474 357.5 484.5 c 128,-1,25
 341 495 341 495 328 498 c 0,26,27
 325 499 325 499 322 486 c 0,0,1
198 260 m 128,-1,29
 202 279 202 279 216 339.5 c 128,-1,30
 230 400 230 400 234.5 417.5 c 128,-1,31
 239 435 239 435 251 481.5 c 128,-1,32
 263 528 263 528 272 554.5 c 128,-1,33
 281 581 281 581 296 621 c 128,-1,34
 311 661 311 661 328 702 c 0,35,36
 339 728 339 728 360 742.5 c 128,-1,37
 381 757 381 757 404 746 c 0,38,39
 429 735 429 735 443.5 717 c 128,-1,40
 458 699 458 699 472.5 669.5 c 128,-1,41
 487 640 487 640 498 624 c 0,42,43
 504 616 504 616 519.5 596 c 128,-1,44
 535 576 535 576 543 563 c 128,-1,45
 551 550 551 550 558 532 c 0,46,47
 567 511 567 511 571 492.5 c 128,-1,48
 575 474 575 474 579 448.5 c 128,-1,49
 583 423 583 423 586 408 c 0,50,51
 591 385 591 385 602 314 c 0,52,53
 604 303 604 303 609 286 c 128,-1,54
 614 269 614 269 615 261.5 c 128,-1,55
 616 254 616 254 614 234 c 0,56,57
 612 224 612 224 600.5 220 c 128,-1,58
 589 216 589 216 582 222 c 0,59,60
 573 230 573 230 568.5 238.5 c 128,-1,61
 564 247 564 247 561 262.5 c 128,-1,62
 558 278 558 278 556 284 c 0,63,64
 550 305 550 305 543.5 336.5 c 128,-1,65
 537 368 537 368 534 380 c 0,66,67
 531 395 531 395 522 422 c 0,68,69
 518 433 518 433 507.5 459 c 128,-1,70
 497 485 497 485 492 504 c 0,71,72
 488 516 488 516 486.5 547 c 128,-1,73
 485 578 485 578 474 596 c 0,74,75
 465 611 465 611 452.5 621.5 c 128,-1,76
 440 632 440 632 430.5 637.5 c 128,-1,77
 421 643 421 643 400 652 c 0,78,79
 385 659 385 659 370 644 c 0,80,81
 367 641 367 641 366 637 c 128,-1,82
 365 633 365 633 365.5 628 c 128,-1,83
 366 623 366 623 366 620 c 0,84,85
 365 608 365 608 365.5 584 c 128,-1,86
 366 560 366 560 364 548 c 0,87,88
 356 464 356 464 346 406 c 0,89,90
 345 400 345 400 326 346 c 0,91,92
 322 333 322 333 315 314.5 c 128,-1,93
 308 296 308 296 304 286 c 0,94,95
 301 276 301 276 299 259.5 c 128,-1,96
 297 243 297 243 293 232 c 128,-1,97
 289 221 289 221 278 214 c 0,98,99
 273 211 273 211 267.5 210 c 128,-1,100
 262 209 262 209 258.5 209 c 128,-1,101
 255 209 255 209 248 212 c 128,-1,102
 241 215 241 215 238.5 216 c 128,-1,103
 236 217 236 217 228 222 c 128,-1,104
 220 227 220 227 218 228 c 0,105,28
 194 241 194 241 198 260 c 128,-1,29
EndSplineSet
EndChar

StartChar: B
Encoding: 66 66 36
Width: 1000
GlyphClass: 2
Flags: W
LayerCount: 2
Fore
SplineSet
270 476 m 0,0,1
 271 488 271 488 271.5 510.5 c 128,-1,2
 272 533 272 533 273.5 545.5 c 128,-1,3
 275 558 275 558 278.5 574.5 c 128,-1,4
 282 591 282 591 291 602.5 c 128,-1,5
 300 614 300 614 315 623 c 0,6,7
 384 665 384 665 489 608 c 0,8,9
 529 586 529 586 550.5 557 c 128,-1,10
 572 528 572 528 597 477 c 0,11,12
 601 468 601 468 603 464 c 0,13,14
 616 440 616 440 585 419 c 0,15,16
 574 411 574 411 561.5 405.5 c 128,-1,17
 549 400 549 400 541.5 398 c 128,-1,18
 534 396 534 396 516 392 c 128,-1,19
 498 388 498 388 492 386 c 0,20,21
 476 382 476 382 451.5 375 c 128,-1,22
 427 368 427 368 413.5 364.5 c 128,-1,23
 400 361 400 361 379 358 c 128,-1,24
 358 355 358 355 336 356 c 0,25,26
 312 357 312 357 294 392 c 0,27,28
 267 443 267 443 270 476 c 0,0,1
271 51 m 0,29,30
 265 67 265 67 250 93.5 c 128,-1,31
 235 120 235 120 227 136 c 128,-1,32
 219 152 219 152 219.5 173 c 128,-1,33
 220 194 220 194 235 210 c 128,-1,34
 250 226 250 226 272 227.5 c 128,-1,35
 294 229 294 229 309 224 c 128,-1,36
 324 219 324 219 355 203.5 c 128,-1,37
 386 188 386 188 397 183 c 0,38,39
 461 156 461 156 474 145 c 0,40,41
 496 127 496 127 481 108 c 0,42,43
 461 82 461 82 432.5 74 c 128,-1,44
 404 66 404 66 363 65 c 128,-1,45
 322 64 322 64 298 57 c 0,46,47
 295 56 295 56 287.5 52 c 128,-1,48
 280 48 280 48 277.5 47.5 c 128,-1,49
 275 47 275 47 271 51 c 0,29,30
220 741 m 0,50,51
 211 667 211 667 196.5 574.5 c 128,-1,52
 182 482 182 482 173 426.5 c 128,-1,53
 164 371 164 371 154.5 285 c 128,-1,54
 145 199 145 199 145.5 137 c 128,-1,55
 146 75 146 75 151 -30 c 0,56,57
 153 -60 153 -60 213 -27 c 0,58,59
 218 -25 218 -25 220.5 -23.5 c 128,-1,60
 223 -22 223 -22 228 -19.5 c 128,-1,61
 233 -17 233 -17 236 -15.5 c 128,-1,62
 239 -14 239 -14 243.5 -11.5 c 128,-1,63
 248 -9 248 -9 251 -8 c 128,-1,64
 254 -7 254 -7 258.5 -5.5 c 128,-1,65
 263 -4 263 -4 266 -3 c 128,-1,66
 269 -2 269 -2 273 -1 c 128,-1,67
 277 0 277 0 280 0 c 0,68,69
 324 3 324 3 410.5 -3 c 128,-1,70
 497 -9 497 -9 541 0 c 0,71,72
 566 5 566 5 585 38 c 0,73,74
 587 41 587 41 589 46 c 2,75,-1
 592 51 l 2,76,77
 607 78 607 78 612 88 c 128,-1,78
 617 98 617 98 622.5 118 c 128,-1,79
 628 138 628 138 628 159 c 0,80,81
 628 217 628 217 592 234 c 0,82,83
 571 244 571 244 550 244.5 c 128,-1,84
 529 245 529 245 502 241 c 128,-1,85
 475 237 475 237 457 237 c 0,86,87
 454 237 454 237 424 235.5 c 128,-1,88
 394 234 394 234 391 237 c 0,89,90
 386 238 386 238 371.5 239.5 c 128,-1,91
 357 241 357 241 351 242 c 128,-1,92
 345 243 345 243 335.5 247 c 128,-1,93
 326 251 326 251 319 258 c 0,94,95
 313 264 313 264 321.5 271.5 c 128,-1,96
 330 279 330 279 340 282 c 0,97,98
 388 295 388 295 450 299.5 c 128,-1,99
 512 304 512 304 564.5 313 c 128,-1,100
 617 322 617 322 667 348 c 0,101,102
 698 364 698 364 705.5 395 c 128,-1,103
 713 426 713 426 709 474 c 0,104,105
 708 484 708 484 706 494.5 c 128,-1,106
 704 505 704 505 702 512 c 128,-1,107
 700 519 700 519 695.5 529 c 128,-1,108
 691 539 691 539 688.5 544 c 128,-1,109
 686 549 686 549 679 559.5 c 128,-1,110
 672 570 672 570 669.5 573.5 c 128,-1,111
 667 577 667 577 657.5 590 c 128,-1,112
 648 603 648 603 646 606 c 0,113,114
 608 660 608 660 559 684 c 0,115,116
 537 695 537 695 516.5 699.5 c 128,-1,117
 496 704 496 704 466.5 707.5 c 128,-1,118
 437 711 437 711 421 714 c 0,119,120
 302 736 302 736 244 744 c 0,121,122
 242 744 242 744 238 745 c 128,-1,123
 234 746 234 746 231.5 746 c 128,-1,124
 229 746 229 746 226.5 746 c 128,-1,125
 224 746 224 746 222 745 c 128,-1,126
 220 744 220 744 220 741 c 0,50,51
EndSplineSet
EndChar

StartChar: C
Encoding: 67 67 37
Width: 1000
GlyphClass: 2
Flags: W
LayerCount: 2
Fore
SplineSet
703 714 m 0,0,1
 728 671 728 671 732 630 c 128,-1,2
 736 589 736 589 721 540 c 0,3,4
 710 504 710 504 687.5 483 c 128,-1,5
 665 462 665 462 622 438 c 0,6,7
 618 436 618 436 614 435 c 128,-1,8
 610 434 610 434 606 434.5 c 128,-1,9
 602 435 602 435 599 436 c 128,-1,10
 596 437 596 437 591 440 c 128,-1,11
 586 443 586 443 583.5 444.5 c 128,-1,12
 581 446 581 446 575.5 450.5 c 128,-1,13
 570 455 570 455 568 456 c 0,14,15
 551 468 551 468 522.5 499.5 c 128,-1,16
 494 531 494 531 469 543 c 0,17,18
 433 560 433 560 412 563.5 c 128,-1,19
 391 567 391 567 355 555 c 1,20,21
 266 514 266 514 265 447 c 0,22,23
 264 369 264 369 349 333 c 0,24,25
 382 319 382 319 414 318 c 128,-1,26
 446 317 446 317 487 322.5 c 128,-1,27
 528 328 528 328 556 327 c 0,28,29
 570 326 570 326 591 327 c 128,-1,30
 612 328 612 328 625 327 c 0,31,32
 642 326 642 326 673.5 335 c 128,-1,33
 705 344 705 344 724 343 c 128,-1,34
 743 342 743 342 751 321 c 0,35,36
 757 305 757 305 757 289 c 128,-1,37
 757 273 757 273 754 260.5 c 128,-1,38
 751 248 751 248 742.5 232.5 c 128,-1,39
 734 217 734 217 726.5 206.5 c 128,-1,40
 719 196 719 196 707 178.5 c 128,-1,41
 695 161 695 161 688 150 c 0,42,43
 660 106 660 106 637.5 83.5 c 128,-1,44
 615 61 615 61 577 48 c 0,45,46
 511 26 511 26 467 23 c 128,-1,47
 423 20 423 20 358 39 c 0,48,49
 333 47 333 47 314.5 58.5 c 128,-1,50
 296 70 296 70 278.5 90.5 c 128,-1,51
 261 111 261 111 252 123.5 c 128,-1,52
 243 136 243 136 223 168 c 0,53,54
 193 216 193 216 179 255.5 c 128,-1,55
 165 295 165 295 157 354 c 0,56,57
 142 459 142 459 140.5 520.5 c 128,-1,58
 139 582 139 582 151 687 c 0,59,60
 156 719 156 719 208 729 c 0,61,62
 251 737 251 737 290 740 c 128,-1,63
 329 743 329 743 377.5 744 c 128,-1,64
 426 745 426 745 460 747 c 0,65,66
 478 748 478 748 507 752.5 c 128,-1,67
 536 757 536 757 548.5 757.5 c 128,-1,68
 561 758 561 758 595 756 c 0,69,70
 601 755 601 755 620 753 c 128,-1,71
 639 751 639 751 646.5 749.5 c 128,-1,72
 654 748 654 748 667 744 c 128,-1,73
 680 740 680 740 688 732.5 c 128,-1,74
 696 725 696 725 703 714 c 0,0,1
EndSplineSet
EndChar

StartChar: D
Encoding: 68 68 38
Width: 1000
GlyphClass: 2
Flags: W
LayerCount: 2
Fore
SplineSet
242 204 m 0,0,1
 224 232 224 232 223.5 260.5 c 128,-1,2
 223 289 223 289 232 328.5 c 128,-1,3
 241 368 241 368 241 393 c 0,4,5
 241 441 241 441 244 510 c 0,6,7
 245 523 245 523 239 546 c 128,-1,8
 233 569 233 569 234 583.5 c 128,-1,9
 235 598 235 598 250 606 c 0,10,11
 266 614 266 614 281 615 c 128,-1,12
 296 616 296 616 313.5 609 c 128,-1,13
 331 602 331 602 342 595.5 c 128,-1,14
 353 589 353 589 373 576 c 0,15,16
 408 552 408 552 428.5 527 c 128,-1,17
 449 502 449 502 466 462 c 0,18,19
 474 444 474 444 475 427 c 128,-1,20
 476 410 476 410 472.5 385.5 c 128,-1,21
 469 361 469 361 469 348 c 0,22,23
 469 338 469 338 471 317 c 128,-1,24
 473 296 473 296 471 282.5 c 128,-1,25
 469 269 469 269 460 255 c 0,26,27
 429 208 429 208 370 195 c 0,28,29
 365 194 365 194 342 188 c 128,-1,30
 319 182 319 182 310.5 181 c 128,-1,31
 302 180 302 180 286 179.5 c 128,-1,32
 270 179 270 179 260 185.5 c 128,-1,33
 250 192 250 192 242 204 c 0,0,1
139 696 m 0,34,35
 135 653 135 653 122 554 c 128,-1,36
 109 455 109 455 106.5 412 c 128,-1,37
 104 369 104 369 111 293 c 128,-1,38
 118 217 118 217 142 144 c 0,39,40
 150 117 150 117 172.5 104.5 c 128,-1,41
 195 92 195 92 218.5 90.5 c 128,-1,42
 242 89 242 89 278 87.5 c 128,-1,43
 314 86 314 86 337 81 c 0,44,45
 350 78 350 78 361 77.5 c 128,-1,46
 372 77 372 77 387.5 79 c 128,-1,47
 403 81 403 81 412 81 c 0,48,49
 428 81 428 81 453 78.5 c 128,-1,50
 478 76 478 76 496.5 77 c 128,-1,51
 515 78 515 78 535 87 c 0,52,53
 546 92 546 92 555 100 c 128,-1,54
 564 108 564 108 568 114.5 c 128,-1,55
 572 121 572 121 580 135.5 c 128,-1,56
 588 150 588 150 592 156 c 0,57,58
 598 167 598 167 602 177.5 c 128,-1,59
 606 188 606 188 609.5 202 c 128,-1,60
 613 216 613 216 616 225 c 0,61,62
 659 355 659 355 664 372 c 0,63,64
 668 387 668 387 675.5 408.5 c 128,-1,65
 683 430 683 430 686.5 442.5 c 128,-1,66
 690 455 690 455 692.5 474 c 128,-1,67
 695 493 695 493 694 513 c 0,68,69
 690 565 690 565 646 609 c 0,70,71
 616 639 616 639 590 655 c 128,-1,72
 564 671 564 671 526 681 c 128,-1,73
 488 691 488 691 457 695 c 128,-1,74
 426 699 426 699 377 700 c 128,-1,75
 328 701 328 701 307 702 c 0,76,77
 263 705 263 705 196 702 c 0,78,79
 190 702 190 702 182 703.5 c 128,-1,80
 174 705 174 705 167 706 c 128,-1,81
 160 707 160 707 153.5 707.5 c 128,-1,82
 147 708 147 708 143.5 705 c 128,-1,83
 140 702 140 702 139 696 c 0,34,35
EndSplineSet
EndChar

StartChar: E
Encoding: 69 69 39
Width: 1000
GlyphClass: 2
Flags: W
LayerCount: 2
Fore
SplineSet
145 717 m 0,0,1
 113 709 113 709 112 679.5 c 128,-1,2
 111 650 111 650 125.5 600.5 c 128,-1,3
 140 551 140 551 139 525 c 0,4,5
 135 408 135 408 133 384 c 0,6,7
 130 351 130 351 124 303 c 128,-1,8
 118 255 118 255 115 228 c 0,9,10
 114 221 114 221 111 204 c 128,-1,11
 108 187 108 187 108.5 182.5 c 128,-1,12
 109 178 109 178 112 159 c 0,13,14
 120 132 120 132 129 117 c 128,-1,15
 138 102 138 102 157 90 c 0,16,17
 167 84 167 84 178 79 c 128,-1,18
 189 74 189 74 196 71 c 128,-1,19
 203 68 203 68 216.5 65 c 128,-1,20
 230 62 230 62 235 61 c 128,-1,21
 240 60 240 60 257.5 57.5 c 128,-1,22
 275 55 275 55 280 54 c 0,23,24
 316 48 316 48 457 42 c 0,25,26
 467 41 467 41 482 39.5 c 128,-1,27
 497 38 497 38 506 37.5 c 128,-1,28
 515 37 515 37 527.5 38 c 128,-1,29
 540 39 540 39 553 42 c 0,30,31
 557 43 557 43 560 45 c 128,-1,32
 563 47 563 47 565 50.5 c 128,-1,33
 567 54 567 54 568 56.5 c 128,-1,34
 569 59 569 59 571 64.5 c 128,-1,35
 573 70 573 70 574 72 c 0,36,37
 578 84 578 84 585.5 98 c 128,-1,38
 593 112 593 112 599 122 c 128,-1,39
 605 132 605 132 609.5 144 c 128,-1,40
 614 156 614 156 613.5 168 c 128,-1,41
 613 180 613 180 607 192 c 0,42,43
 601 203 601 203 590 205 c 128,-1,44
 579 207 579 207 568 203.5 c 128,-1,45
 557 200 557 200 541 195 c 128,-1,46
 525 190 525 190 514 189 c 0,47,48
 492 188 492 188 459 182.5 c 128,-1,49
 426 177 426 177 409.5 176 c 128,-1,50
 393 175 393 175 355 180 c 0,51,52
 303 191 303 191 263.5 209.5 c 128,-1,53
 224 228 224 228 250 246 c 0,54,55
 281 267 281 267 321 272 c 128,-1,56
 361 277 361 277 392.5 273 c 128,-1,57
 424 269 424 269 464 274 c 128,-1,58
 504 279 504 279 535 300 c 0,59,60
 578 329 578 329 591.5 378.5 c 128,-1,61
 605 428 605 428 571 462 c 0,62,63
 536 493 536 493 434 473 c 0,64,65
 355 457 355 457 340 458 c 0,66,67
 310 461 310 461 319 495 c 0,68,69
 334 554 334 554 457 572 c 0,70,71
 477 575 477 575 518 580 c 0,72,73
 608 589 608 589 624 603.5 c 128,-1,74
 640 618 640 618 619 645 c 0,75,76
 586 688 586 688 542 713 c 128,-1,77
 498 738 498 738 455.5 747 c 128,-1,78
 413 756 413 756 356 753 c 128,-1,79
 299 750 299 750 254 741.5 c 128,-1,80
 209 733 209 733 145 717 c 0,0,1
EndSplineSet
EndChar

StartChar: F
Encoding: 70 70 40
Width: 1000
GlyphClass: 2
Flags: W
LayerCount: 2
Fore
SplineSet
140 684 m 0,0,1
 180 730 180 730 228 749.5 c 128,-1,2
 276 769 276 769 334.5 762 c 128,-1,3
 393 755 393 755 441.5 741.5 c 128,-1,4
 490 728 490 728 564.5 702.5 c 128,-1,5
 639 677 639 677 685 666 c 0,6,7
 717 657 717 657 713.5 612 c 128,-1,8
 710 567 710 567 679 552 c 0,9,10
 635 531 635 531 576.5 533.5 c 128,-1,11
 518 536 518 536 477.5 541.5 c 128,-1,12
 437 547 437 547 376 519 c 0,13,14
 353 506 353 506 338.5 475.5 c 128,-1,15
 324 445 324 445 328.5 416 c 128,-1,16
 333 387 333 387 358 381 c 0,17,18
 397 372 397 372 437.5 378 c 128,-1,19
 478 384 478 384 509 398.5 c 128,-1,20
 540 413 540 413 578 426 c 128,-1,21
 616 439 616 439 649 443.5 c 128,-1,22
 682 448 682 448 727 435 c 1,23,24
 770 418 770 418 746.5 359 c 128,-1,25
 723 300 723 300 676 276 c 0,26,27
 639 257 639 257 594.5 257 c 128,-1,28
 550 257 550 257 515 266 c 128,-1,29
 480 275 480 275 437 273 c 128,-1,30
 394 271 394 271 358 249 c 0,31,32
 337 236 337 236 335.5 210.5 c 128,-1,33
 334 185 334 185 342.5 160.5 c 128,-1,34
 351 136 351 136 351 108.5 c 128,-1,35
 351 81 351 81 334 63 c 0,36,37
 297 27 297 27 241.5 25 c 128,-1,38
 186 23 186 23 169 66 c 0,39,40
 158 102 158 102 137 161.5 c 128,-1,41
 116 221 116 221 104 258 c 128,-1,42
 92 295 92 295 78 347 c 128,-1,43
 64 399 64 399 62.5 437.5 c 128,-1,44
 61 476 61 476 65 520.5 c 128,-1,45
 69 565 69 565 88 605.5 c 128,-1,46
 107 646 107 646 140 684 c 0,0,1
EndSplineSet
EndChar

StartChar: G
Encoding: 71 71 41
Width: 1000
GlyphClass: 2
Flags: W
LayerCount: 2
Fore
SplineSet
736 714 m 0,0,1
 699 734 699 734 665 738.5 c 128,-1,2
 631 743 631 743 576.5 739 c 128,-1,3
 522 735 522 735 499 735 c 128,-1,4
 476 735 476 735 432.5 737 c 128,-1,5
 389 739 389 739 367.5 739 c 128,-1,6
 346 739 346 739 311.5 734 c 128,-1,7
 277 729 277 729 244 717 c 0,8,9
 198 701 198 701 169.5 674 c 128,-1,10
 141 647 141 647 109 597 c 0,11,12
 98 580 98 580 92 561 c 128,-1,13
 86 542 86 542 84.5 531 c 128,-1,14
 83 520 83 520 81.5 493 c 128,-1,15
 80 466 80 466 79 456 c 0,16,17
 71 365 71 365 79 258 c 0,18,19
 80 241 80 241 80.5 213 c 128,-1,20
 81 185 81 185 82 169.5 c 128,-1,21
 83 154 83 154 89.5 132 c 128,-1,22
 96 110 96 110 109 90 c 0,23,24
 118 77 118 77 128 67.5 c 128,-1,25
 138 58 138 58 152.5 51 c 128,-1,26
 167 44 167 44 175.5 41 c 128,-1,27
 184 38 184 38 205.5 32 c 128,-1,28
 227 26 227 26 235 24 c 0,29,30
 276 12 276 12 294.5 7.5 c 128,-1,31
 313 3 313 3 348.5 -1.5 c 128,-1,32
 384 -6 384 -6 409 0 c 0,33,34
 487 8 487 8 534.5 21.5 c 128,-1,35
 582 35 582 35 637 69 c 0,36,37
 661 84 661 84 677.5 105.5 c 128,-1,38
 694 127 694 127 701 143 c 128,-1,39
 708 159 708 159 721 195 c 0,40,41
 724 203 724 203 734.5 229 c 128,-1,42
 745 255 745 255 747.5 264.5 c 128,-1,43
 750 274 750 274 754 293.5 c 128,-1,44
 758 313 758 313 755.5 329 c 128,-1,45
 753 345 753 345 745 363 c 0,46,47
 739 377 739 377 726 385 c 128,-1,48
 713 393 713 393 702 394.5 c 128,-1,49
 691 396 691 396 669.5 397 c 128,-1,50
 648 398 648 398 637 399 c 0,51,52
 617 404 617 404 562.5 401 c 128,-1,53
 508 398 508 398 487 399 c 0,54,55
 474 399 474 399 456 405 c 128,-1,56
 438 411 438 411 426 416 c 128,-1,57
 414 421 414 421 400 420 c 128,-1,58
 386 419 386 419 376 408 c 0,59,60
 354 384 354 384 358.5 350 c 128,-1,61
 363 316 363 316 391 297 c 1,62,63
 422 282 422 282 438.5 283.5 c 128,-1,64
 455 285 455 285 487 292 c 128,-1,65
 519 299 519 299 541 297 c 128,-1,66
 563 295 563 295 565 282 c 0,67,68
 566 279 566 279 569 264 c 128,-1,69
 572 249 572 249 572.5 244.5 c 128,-1,70
 573 240 573 240 573 229.5 c 128,-1,71
 573 219 573 219 569.5 212 c 128,-1,72
 566 205 566 205 559 198 c 0,73,74
 547 186 547 186 534.5 177.5 c 128,-1,75
 522 169 522 169 506 163 c 128,-1,76
 490 157 490 157 481.5 154 c 128,-1,77
 473 151 473 151 450 145.5 c 128,-1,78
 427 140 427 140 418 138 c 0,79,80
 414 137 414 137 397 132.5 c 128,-1,81
 380 128 380 128 376 127.5 c 128,-1,82
 372 127 372 127 358.5 125 c 128,-1,83
 345 123 345 123 338 123.5 c 128,-1,84
 331 124 331 124 320 126 c 128,-1,85
 309 128 309 128 298 132 c 0,86,87
 265 144 265 144 256 201 c 0,88,89
 251 239 251 239 251 272.5 c 128,-1,90
 251 306 251 306 253.5 348 c 128,-1,91
 256 390 256 390 256 420 c 0,92,93
 256 441 256 441 248.5 473 c 128,-1,94
 241 505 241 505 241 529 c 128,-1,95
 241 553 241 553 256 576 c 0,96,97
 268 593 268 593 285.5 596 c 128,-1,98
 303 599 303 599 330.5 595.5 c 128,-1,99
 358 592 358 592 373 594 c 0,100,101
 414 598 414 598 483 602.5 c 128,-1,102
 552 607 552 607 598 612 c 0,103,104
 608 613 608 613 623.5 613.5 c 128,-1,105
 639 614 639 614 648 614.5 c 128,-1,106
 657 615 657 615 669 618.5 c 128,-1,107
 681 622 681 622 691 630 c 0,108,109
 704 640 704 640 715.5 650 c 128,-1,110
 727 660 727 660 737.5 673.5 c 128,-1,111
 748 687 748 687 747.5 696.5 c 128,-1,112
 747 706 747 706 736 714 c 0,0,1
EndSplineSet
EndChar

StartChar: H
Encoding: 72 72 42
Width: 1000
GlyphClass: 2
Flags: W
LayerCount: 2
Fore
SplineSet
133 762 m 0,0,1
 99 615 99 615 85.5 517.5 c 128,-1,2
 72 420 72 420 79 305.5 c 128,-1,3
 86 191 86 191 121 63 c 0,4,5
 131 26 131 26 171 15 c 128,-1,6
 211 4 211 4 255.5 18 c 128,-1,7
 300 32 300 32 325 63 c 0,8,9
 347 90 347 90 347.5 126 c 128,-1,10
 348 162 348 162 337 192.5 c 128,-1,11
 326 223 326 223 323.5 261 c 128,-1,12
 321 299 321 299 337 330 c 0,13,14
 357 367 357 367 405 374 c 128,-1,15
 453 381 453 381 478 348 c 0,16,17
 499 320 499 320 501.5 282 c 128,-1,18
 504 244 504 244 497 213 c 128,-1,19
 490 182 490 182 494.5 145.5 c 128,-1,20
 499 109 499 109 523 84 c 0,21,22
 570 36 570 36 642 30.5 c 128,-1,23
 714 25 714 25 736 81 c 0,24,25
 798 273 798 273 800 427 c 128,-1,26
 802 581 802 581 745 774 c 0,27,28
 734 812 734 812 694.5 824 c 128,-1,29
 655 836 655 836 610 824.5 c 128,-1,30
 565 813 565 813 532 786 c 0,31,32
 507 766 507 766 499.5 735.5 c 128,-1,33
 492 705 492 705 495.5 677 c 128,-1,34
 499 649 499 649 494.5 614.5 c 128,-1,35
 490 580 490 580 472 555 c 0,36,37
 446 519 446 519 407 506 c 128,-1,38
 368 493 368 493 337 519 c 0,39,40
 315 541 315 541 309 573 c 128,-1,41
 303 605 303 605 306.5 632.5 c 128,-1,42
 310 660 310 660 305 693 c 128,-1,43
 300 726 300 726 280 750 c 0,44,45
 250 786 250 786 197.5 793.5 c 128,-1,46
 145 801 145 801 133 762 c 0,0,1
EndSplineSet
EndChar

StartChar: I
Encoding: 73 73 43
Width: 1000
GlyphClass: 2
Flags: W
LayerCount: 2
Fore
SplineSet
316 723 m 1,0,-1
 328 156 l 1,1,-1
 538 102 l 1,2,-1
 550 681 l 1,3,-1
 316 723 l 1,0,-1
EndSplineSet
EndChar

StartChar: J
Encoding: 74 74 44
Width: 1000
GlyphClass: 2
Flags: W
LayerCount: 2
Fore
SplineSet
484 759 m 1,0,-1
 451 153 l 1,1,-1
 229 228 l 1,2,-1
 214 372 l 1,3,-1
 124 372 l 1,4,-1
 97 240 l 1,5,-1
 223 48 l 1,6,-1
 511 0 l 1,7,-1
 589 0 l 1,8,-1
 694 327 l 1,9,-1
 697 630 l 1,10,-1
 484 759 l 1,0,-1
EndSplineSet
EndChar

StartChar: K
Encoding: 75 75 45
Width: 1000
GlyphClass: 2
Flags: W
LayerCount: 2
Fore
SplineSet
187 735 m 1,0,-1
 97 15 l 1,1,-1
 289 15 l 1,2,-1
 310 306 l 1,3,-1
 598 27 l 1,4,-1
 820 60 l 1,5,-1
 421 393 l 1,6,-1
 751 699 l 1,7,-1
 517 714 l 1,8,-1
 280 486 l 1,9,-1
 298 720 l 1,10,-1
 187 735 l 1,0,-1
EndSplineSet
EndChar

StartChar: L
Encoding: 76 76 46
Width: 1000
GlyphClass: 2
Flags: W
LayerCount: 2
Fore
SplineSet
193 735 m 1,0,-1
 145 42 l 1,1,-1
 730 36 l 1,2,-1
 745 237 l 1,3,-1
 304 195 l 1,4,-1
 355 711 l 1,5,-1
 193 735 l 1,0,-1
EndSplineSet
EndChar

StartChar: M
Encoding: 77 77 47
Width: 1000
GlyphClass: 2
Flags: W
LayerCount: 2
Fore
SplineSet
127 675 m 1,0,-1
 106 51 l 1,1,-1
 202 51 l 1,2,-1
 322 543 l 1,3,-1
 391 93 l 1,4,-1
 451 546 l 1,5,-1
 571 78 l 1,6,-1
 724 78 l 1,7,-1
 613 711 l 1,8,-1
 454 693 l 1,9,-1
 385 477 l 1,10,-1
 301 699 l 1,11,-1
 175 405 l 1,12,-1
 127 675 l 1,0,-1
EndSplineSet
EndChar

StartChar: N
Encoding: 78 78 48
Width: 1000
GlyphClass: 2
Flags: W
LayerCount: 2
Fore
SplineSet
235 711 m 1,0,-1
 166 138 l 1,1,-1
 334 57 l 1,2,-1
 358 507 l 1,3,-1
 583 69 l 1,4,-1
 685 75 l 1,5,-1
 706 711 l 1,6,-1
 559 723 l 1,7,-1
 556 336 l 1,8,-1
 370 729 l 1,9,-1
 235 711 l 1,0,-1
EndSplineSet
EndChar

StartChar: O
Encoding: 79 79 49
Width: 1000
GlyphClass: 2
Flags: W
LayerCount: 2
Fore
SplineSet
475 273 m 0,0,1
 490 285 490 285 522 301.5 c 128,-1,2
 554 318 554 318 571 334.5 c 128,-1,3
 588 351 588 351 592 378 c 0,4,5
 602 457 602 457 588 514 c 128,-1,6
 574 571 574 571 520 606 c 0,7,8
 496 622 496 622 469.5 625 c 128,-1,9
 443 628 443 628 416 618 c 128,-1,10
 389 608 389 608 366.5 594 c 128,-1,11
 344 580 344 580 316 558 c 0,12,13
 309 553 309 553 304.5 546 c 128,-1,14
 300 539 300 539 297 533.5 c 128,-1,15
 294 528 294 528 293.5 519 c 128,-1,16
 293 510 293 510 292.5 505 c 128,-1,17
 292 500 292 500 294 488.5 c 128,-1,18
 296 477 296 477 296.5 472.5 c 128,-1,19
 297 468 297 468 300 454.5 c 128,-1,20
 303 441 303 441 304 438 c 0,21,22
 316 379 316 379 364 327 c 0,23,24
 383 307 383 307 407 293.5 c 128,-1,25
 431 280 431 280 457 270 c 0,26,27
 465 266 465 266 475 273 c 0,0,1
433 48 m 0,28,29
 408 62 408 62 359.5 61 c 128,-1,30
 311 60 311 60 286 75 c 0,31,32
 238 103 238 103 209 132 c 128,-1,33
 180 161 180 161 157 207 c 0,34,35
 144 233 144 233 136 260.5 c 128,-1,36
 128 288 128 288 125.5 303.5 c 128,-1,37
 123 319 123 319 120 357 c 128,-1,38
 117 395 117 395 115 411 c 0,39,40
 114 424 114 424 109.5 453 c 128,-1,41
 105 482 105 482 104 495 c 128,-1,42
 103 508 103 508 105.5 530 c 128,-1,43
 108 552 108 552 115 573 c 0,44,45
 131 617 131 617 155 645 c 128,-1,46
 179 673 179 673 220 699 c 0,47,48
 306 753 306 753 361 778.5 c 128,-1,49
 416 804 416 804 496 816 c 0,50,51
 550 824 550 824 591.5 813.5 c 128,-1,52
 633 803 633 803 682 771 c 0,53,54
 740 733 740 733 772.5 695 c 128,-1,55
 805 657 805 657 829 597 c 0,56,57
 862 513 862 513 870.5 458 c 128,-1,58
 879 403 879 403 865 315 c 1,59,60
 843 208 843 208 812 142.5 c 128,-1,61
 781 77 781 77 712 18 c 0,62,63
 694 3 694 3 677 -7.5 c 128,-1,64
 660 -18 660 -18 636.5 -23 c 128,-1,65
 613 -28 613 -28 600.5 -30.5 c 128,-1,66
 588 -33 588 -33 556.5 -31.5 c 128,-1,67
 525 -30 525 -30 516.5 -29 c 128,-1,68
 508 -28 508 -28 469 -24 c 0,69,70
 459 -23 459 -23 454.5 -13.5 c 128,-1,71
 450 -4 450 -4 450 7.5 c 128,-1,72
 450 19 450 19 446 31 c 128,-1,73
 442 43 442 43 433 48 c 0,28,29
EndSplineSet
EndChar

StartChar: P
Encoding: 80 80 50
Width: 1000
GlyphClass: 2
Flags: W
LayerCount: 2
Fore
SplineSet
454 762 m 0,0,1
 503 783 503 783 551 761.5 c 128,-1,2
 599 740 599 740 634 690 c 0,3,4
 653 663 653 663 660 630 c 128,-1,5
 667 597 667 597 657.5 567 c 128,-1,6
 648 537 648 537 619 525 c 0,7,8
 394 428 394 428 310 549 c 0,9,10
 291 581 291 581 295.5 611.5 c 128,-1,11
 300 642 300 642 326 671.5 c 128,-1,12
 352 701 352 701 384.5 723.5 c 128,-1,13
 417 746 417 746 454 762 c 0,0,1
250 792 m 0,14,15
 179 615 179 615 179 464 c 128,-1,16
 179 313 179 313 235 105 c 0,17,18
 245 68 245 68 287.5 52 c 128,-1,19
 330 36 330 36 375.5 47.5 c 128,-1,20
 421 59 421 59 439 93 c 0,21,22
 459 132 459 132 452.5 168.5 c 128,-1,23
 446 205 446 205 431 245.5 c 128,-1,24
 416 286 416 286 401 320 c 128,-1,25
 386 354 386 354 389 389.5 c 128,-1,26
 392 425 392 425 421 450 c 0,27,28
 449 475 449 475 485.5 469.5 c 128,-1,29
 522 464 522 464 554.5 441 c 128,-1,30
 587 418 587 418 625.5 396 c 128,-1,31
 664 374 664 374 696 365.5 c 128,-1,32
 728 357 728 357 763 381 c 0,33,34
 816 421 816 421 834.5 482.5 c 128,-1,35
 853 544 853 544 842 606.5 c 128,-1,36
 831 669 831 669 799 735 c 0,37,38
 791 751 791 751 781.5 765 c 128,-1,39
 772 779 772 779 758 789 c 128,-1,40
 744 799 744 799 734 806.5 c 128,-1,41
 724 814 724 814 704.5 820 c 128,-1,42
 685 826 685 826 675 829.5 c 128,-1,43
 665 833 665 833 641 836.5 c 128,-1,44
 617 840 617 840 608 841.5 c 128,-1,45
 599 843 599 843 571 845.5 c 128,-1,46
 543 848 543 848 535 849 c 0,47,48
 519 851 519 851 486.5 855 c 128,-1,49
 454 859 454 859 435.5 861 c 128,-1,50
 417 863 417 863 389 864.5 c 128,-1,51
 361 866 361 866 343.5 862.5 c 128,-1,52
 326 859 326 859 306 851.5 c 128,-1,53
 286 844 286 844 272.5 829 c 128,-1,54
 259 814 259 814 250 792 c 0,14,15
EndSplineSet
EndChar

StartChar: Q
Encoding: 81 81 51
Width: 1000
GlyphClass: 2
Flags: W
LayerCount: 2
Fore
SplineSet
691 627 m 0,0,1
 678 649 678 649 663.5 690.5 c 128,-1,2
 649 732 649 732 632.5 757 c 128,-1,3
 616 782 616 782 583 792 c 128,-1,4
 550 802 550 802 522 789 c 128,-1,5
 494 776 494 776 460.5 751 c 128,-1,6
 427 726 427 726 400 717 c 0,7,8
 379 710 379 710 323.5 704.5 c 128,-1,9
 268 699 268 699 238 678 c 0,10,11
 222 667 222 667 211.5 655 c 128,-1,12
 201 643 201 643 193 624 c 128,-1,13
 185 605 185 605 182.5 596 c 128,-1,14
 180 587 180 587 172 558 c 0,15,16
 154 494 154 494 172 432 c 0,17,18
 186 381 186 381 202 348.5 c 128,-1,19
 218 316 218 316 250 279 c 0,20,21
 269 257 269 257 308.5 240.5 c 128,-1,22
 348 224 348 224 364 213 c 0,23,24
 374 206 374 206 393.5 179 c 128,-1,25
 413 152 413 152 433 150 c 0,26,27
 447 146 447 146 467.5 147.5 c 128,-1,28
 488 149 488 149 498.5 150 c 128,-1,29
 509 151 509 151 528 155.5 c 128,-1,30
 547 160 547 160 557 163 c 128,-1,31
 567 166 567 166 587.5 172.5 c 128,-1,32
 608 179 608 179 622 183 c 0,33,34
 639 188 639 188 646 190.5 c 128,-1,35
 653 193 653 193 662.5 200.5 c 128,-1,36
 672 208 672 208 676 219 c 0,37,38
 689 254 689 254 695 285 c 128,-1,39
 701 316 701 316 704.5 360 c 128,-1,40
 708 404 708 404 712 429 c 0,41,42
 714 444 714 444 719.5 469.5 c 128,-1,43
 725 495 725 495 727 514 c 128,-1,44
 729 533 729 533 727 555 c 0,45,46
 726 569 726 569 721 579.5 c 128,-1,47
 716 590 716 590 705.5 605 c 128,-1,48
 695 620 695 620 691 627 c 0,0,1
460 327 m 0,49,50
 488 332 488 332 514.5 331.5 c 128,-1,51
 541 331 541 331 563 328 c 128,-1,52
 585 325 585 325 610 313.5 c 128,-1,53
 635 302 635 302 651.5 294.5 c 128,-1,54
 668 287 668 287 693.5 267 c 128,-1,55
 719 247 719 247 731.5 236.5 c 128,-1,56
 744 226 744 226 771 199 c 128,-1,57
 798 172 798 172 808 161.5 c 128,-1,58
 818 151 818 151 847 120 c 0,59,60
 866 95 866 95 863 65 c 128,-1,61
 860 35 860 35 838 8 c 128,-1,62
 816 -19 816 -19 787 -24 c 0,63,64
 712 -38 712 -38 659 -39 c 128,-1,65
 606 -40 606 -40 549 -19.5 c 128,-1,66
 492 1 492 1 448 48 c 0,67,68
 411 88 411 88 394 150.5 c 128,-1,69
 377 213 377 213 393.5 265.5 c 128,-1,70
 410 318 410 318 460 327 c 0,49,50
436 63 m 0,71,72
 410 76 410 76 358 100 c 128,-1,73
 306 124 306 124 281.5 137 c 128,-1,74
 257 150 257 150 221.5 177.5 c 128,-1,75
 186 205 186 205 157 240 c 0,76,77
 138 263 138 263 126 278.5 c 128,-1,78
 114 294 114 294 98 315 c 128,-1,79
 82 336 82 336 72.5 352.5 c 128,-1,80
 63 369 63 369 52 389.5 c 128,-1,81
 41 410 41 410 36 428.5 c 128,-1,82
 31 447 31 447 27 469 c 128,-1,83
 23 491 23 491 23.5 513.5 c 128,-1,84
 24 536 24 536 28 561 c 0,85,86
 35 601 35 601 52.5 632.5 c 128,-1,87
 70 664 70 664 101.5 689 c 128,-1,88
 133 714 133 714 160 730 c 128,-1,89
 187 746 187 746 233 770 c 0,90,91
 242 775 242 775 247 777 c 0,92,93
 336 824 336 824 411.5 840 c 128,-1,94
 487 856 487 856 595 855 c 0,95,96
 693 855 693 855 748 774 c 0,97,98
 765 748 765 748 775 719.5 c 128,-1,99
 785 691 785 691 787.5 671 c 128,-1,100
 790 651 790 651 793 614 c 128,-1,101
 796 577 796 577 799 555 c 0,102,103
 809 490 809 490 799 414 c 0,104,105
 795 386 795 386 792.5 344.5 c 128,-1,106
 790 303 790 303 787.5 279 c 128,-1,107
 785 255 785 255 775.5 221 c 128,-1,108
 766 187 766 187 748 156 c 0,109,110
 717 103 717 103 678 74 c 128,-1,111
 639 45 639 45 577 27 c 0,112,113
 564 23 564 23 550.5 22.5 c 128,-1,114
 537 22 537 22 528 23 c 128,-1,115
 519 24 519 24 504.5 29.5 c 128,-1,116
 490 35 490 35 484 38 c 128,-1,117
 478 41 478 41 460 50.5 c 128,-1,118
 442 60 442 60 436 63 c 0,71,72
EndSplineSet
EndChar

StartChar: R
Encoding: 82 82 52
Width: 1000
GlyphClass: 2
Flags: W
LayerCount: 2
Fore
SplineSet
364 660 m 0,0,1
 334 640 334 640 306.5 597 c 128,-1,2
 279 554 279 554 252 526 c 128,-1,3
 225 498 225 498 184 498 c 0,4,5
 154 498 154 498 139.5 528 c 128,-1,6
 125 558 125 558 130 596.5 c 128,-1,7
 135 635 135 635 154 660 c 0,8,9
 181 695 181 695 214 710.5 c 128,-1,10
 247 726 247 726 301 736.5 c 128,-1,11
 355 747 355 747 382 756 c 0,12,13
 394 760 394 760 414 769.5 c 128,-1,14
 434 779 434 779 446.5 784.5 c 128,-1,15
 459 790 459 790 474.5 789 c 128,-1,16
 490 788 490 788 502 777 c 0,17,18
 535 746 535 746 460 684 c 0,19,20
 445 671 445 671 412 671 c 128,-1,21
 379 671 379 671 364 660 c 0,0,1
103 774 m 0,22,23
 101 697 101 697 95.5 572.5 c 128,-1,24
 90 448 90 448 88.5 381 c 128,-1,25
 87 314 87 314 92 209.5 c 128,-1,26
 97 105 97 105 112 0 c 0,27,28
 117 -28 117 -28 158.5 -21 c 128,-1,29
 200 -14 200 -14 211 15 c 0,30,31
 226 54 226 54 220 99.5 c 128,-1,32
 214 145 214 145 205 191.5 c 128,-1,33
 196 238 196 238 189 275.5 c 128,-1,34
 182 313 182 313 195.5 336.5 c 128,-1,35
 209 360 209 360 247 360 c 0,36,37
 295 360 295 360 327 335 c 128,-1,38
 359 310 359 310 378 268.5 c 128,-1,39
 397 227 397 227 412.5 183 c 128,-1,40
 428 139 428 139 454.5 91 c 128,-1,41
 481 43 481 43 517 15 c 0,42,43
 543 -5 543 -5 582.5 -17 c 128,-1,44
 622 -29 622 -29 653 -22 c 128,-1,45
 684 -15 684 -15 682 15 c 0,46,47
 672 148 672 148 626.5 241 c 128,-1,48
 581 334 581 334 481 465 c 0,49,50
 460 493 460 493 377 485 c 0,51,52
 316 479 316 479 307.5 485 c 128,-1,53
 299 491 299 491 307 507 c 0,54,55
 322 536 322 536 353 559 c 128,-1,56
 384 582 384 582 419.5 596 c 128,-1,57
 455 610 455 610 494.5 624 c 128,-1,58
 534 638 534 638 565.5 648 c 128,-1,59
 597 658 597 658 620.5 675 c 128,-1,60
 644 692 644 692 647.5 710.5 c 128,-1,61
 651 729 651 729 634 759 c 0,62,63
 597 816 597 816 536 829.5 c 128,-1,64
 475 843 475 843 417.5 828 c 128,-1,65
 360 813 360 813 275 794 c 128,-1,66
 190 775 190 775 130 777 c 0,67,68
 127 777 127 777 123 778 c 128,-1,69
 119 779 119 779 115.5 779.5 c 128,-1,70
 112 780 112 780 109 780 c 128,-1,71
 106 780 106 780 104.5 778.5 c 128,-1,72
 103 777 103 777 103 774 c 0,22,23
EndSplineSet
EndChar

StartChar: S
Encoding: 83 83 53
Width: 1000
GlyphClass: 2
Flags: W
LayerCount: 2
Fore
SplineSet
700 750 m 0,0,1
 726 808 726 808 650 807 c 0,2,3
 607 807 607 807 487 780 c 0,4,5
 412 763 412 763 382 759 c 0,6,7
 377 758 377 758 353.5 755 c 128,-1,8
 330 752 330 752 324 751 c 128,-1,9
 318 750 318 750 298.5 746.5 c 128,-1,10
 279 743 279 743 272 740 c 128,-1,11
 265 737 265 737 250 731.5 c 128,-1,12
 235 726 235 726 226.5 719 c 128,-1,13
 218 712 218 712 207 702.5 c 128,-1,14
 196 693 196 693 187 681 c 0,15,16
 176 667 176 667 168.5 653 c 128,-1,17
 161 639 161 639 157 622 c 128,-1,18
 153 605 153 605 150.5 595 c 128,-1,19
 148 585 148 585 149 563.5 c 128,-1,20
 150 542 150 542 150.5 534 c 128,-1,21
 151 526 151 526 153.5 499 c 128,-1,22
 156 472 156 472 157 465 c 0,23,24
 158 459 158 459 161 455.5 c 128,-1,25
 164 452 164 452 170 450.5 c 128,-1,26
 176 449 176 449 181 449 c 128,-1,27
 186 449 186 449 195 449.5 c 128,-1,28
 204 450 204 450 208 450 c 0,29,30
 246 450 246 450 322 462 c 128,-1,31
 398 474 398 474 451 468 c 0,32,33
 498 463 498 463 525 452 c 128,-1,34
 552 441 552 441 571 411 c 0,35,36
 613 346 613 346 571 282 c 0,37,38
 558 262 558 262 536.5 251 c 128,-1,39
 515 240 515 240 500.5 237.5 c 128,-1,40
 486 235 486 235 451 231 c 0,41,42
 384 227 384 227 362 227.5 c 128,-1,43
 340 228 340 228 282.5 233 c 128,-1,44
 225 238 225 238 193 240 c 0,45,46
 174 241 174 241 146 250.5 c 128,-1,47
 118 260 118 260 99 268 c 128,-1,48
 80 276 80 276 60.5 273.5 c 128,-1,49
 41 271 41 271 31 252 c 0,50,51
 -12 174 -12 174 103 75 c 0,52,53
 123 58 123 58 142.5 46.5 c 128,-1,54
 162 35 162 35 187 27.5 c 128,-1,55
 212 20 212 20 226 16.5 c 128,-1,56
 240 13 240 13 275.5 7.5 c 128,-1,57
 311 2 311 2 325 0 c 0,58,59
 328 -1 328 -1 348.5 -4.5 c 128,-1,60
 369 -8 369 -8 373 -8.5 c 128,-1,61
 377 -9 377 -9 393.5 -12 c 128,-1,62
 410 -15 410 -15 415.5 -15 c 128,-1,63
 421 -15 421 -15 435 -16 c 128,-1,64
 449 -17 449 -17 457 -15.5 c 128,-1,65
 465 -14 465 -14 477 -12.5 c 128,-1,66
 489 -11 489 -11 500 -7.5 c 128,-1,67
 511 -4 511 -4 523 0 c 0,68,69
 552 11 552 11 572 29.5 c 128,-1,70
 592 48 592 48 613.5 77 c 128,-1,71
 635 106 635 106 652 123 c 0,72,73
 672 142 672 142 710 164 c 128,-1,74
 748 186 748 186 770.5 208 c 128,-1,75
 793 230 793 230 799 264 c 0,76,77
 805 285 805 285 802 310.5 c 128,-1,78
 799 336 799 336 795 352 c 128,-1,79
 791 368 791 368 780.5 390 c 128,-1,80
 770 412 770 412 761.5 427.5 c 128,-1,81
 753 443 753 443 740 466.5 c 128,-1,82
 727 490 727 490 718 510 c 0,83,84
 714 519 714 519 706 539 c 128,-1,85
 698 559 698 559 693 568 c 128,-1,86
 688 577 688 577 679.5 590.5 c 128,-1,87
 671 604 671 604 660 612.5 c 128,-1,88
 649 621 649 621 634 627 c 0,89,90
 599 641 599 641 564.5 642 c 128,-1,91
 530 643 530 643 486.5 637.5 c 128,-1,92
 443 632 443 632 412 633 c 0,93,94
 401 633 401 633 367 631 c 0,95,96
 321 629 321 629 321 632 c 0,97,98
 321 633 321 633 328 636 c 0,99,100
 372 654 372 654 436 658.5 c 128,-1,101
 500 663 500 663 545.5 662 c 128,-1,102
 591 661 591 661 635 681.5 c 128,-1,103
 679 702 679 702 700 750 c 0,0,1
EndSplineSet
EndChar

StartChar: T
Encoding: 84 84 54
Width: 1000
GlyphClass: 2
Flags: W
LayerCount: 2
Fore
SplineSet
130 711 m 0,0,1
 130 697 130 697 129.5 666.5 c 128,-1,2
 129 636 129 636 130 621.5 c 128,-1,3
 131 607 131 607 139 586 c 128,-1,4
 147 565 147 565 163 549 c 0,5,6
 175 537 175 537 197 540.5 c 128,-1,7
 219 544 219 544 237 553.5 c 128,-1,8
 255 563 255 563 272 564.5 c 128,-1,9
 289 566 289 566 292 549 c 0,10,11
 307 484 307 484 296.5 409 c 128,-1,12
 286 334 286 334 269 281 c 128,-1,13
 252 228 252 228 250 156 c 128,-1,14
 248 84 248 84 280 24 c 0,15,16
 302 -22 302 -22 359 -40.5 c 128,-1,17
 416 -59 416 -59 472.5 -43 c 128,-1,18
 529 -27 529 -27 550 18 c 0,19,20
 575 71 575 71 574.5 129.5 c 128,-1,21
 574 188 574 188 557.5 235.5 c 128,-1,22
 541 283 541 283 526.5 340 c 128,-1,23
 512 397 512 397 509 446.5 c 128,-1,24
 506 496 506 496 532 558 c 0,25,26
 544 583 544 583 568.5 583.5 c 128,-1,27
 593 584 593 584 620.5 568 c 128,-1,28
 648 552 648 552 680 537.5 c 128,-1,29
 712 523 712 523 738.5 517.5 c 128,-1,30
 765 512 765 512 787 534 c 0,31,32
 818 567 818 567 821 618 c 128,-1,33
 824 669 824 669 798.5 712 c 128,-1,34
 773 755 773 755 730 768 c 0,35,36
 669 786 669 786 610.5 788.5 c 128,-1,37
 552 791 552 791 498 781.5 c 128,-1,38
 444 772 444 772 394.5 760 c 128,-1,39
 345 748 345 748 280 733.5 c 128,-1,40
 215 719 215 719 157 714 c 0,41,42
 153 714 153 714 145.5 715.5 c 128,-1,43
 138 717 138 717 134 716.5 c 128,-1,44
 130 716 130 716 130 711 c 0,0,1
EndSplineSet
EndChar

StartChar: U
Encoding: 85 85 55
Width: 1000
GlyphClass: 2
Flags: W
LayerCount: 2
Fore
SplineSet
79 717 m 0,0,1
 97 655 97 655 106.5 584.5 c 128,-1,2
 116 514 116 514 118.5 463.5 c 128,-1,3
 121 413 121 413 135.5 346.5 c 128,-1,4
 150 280 150 280 178 219 c 0,5,6
 223 123 223 123 277 67 c 128,-1,7
 331 11 331 11 421 -21 c 0,8,9
 441 -28 441 -28 461 -28 c 128,-1,10
 481 -28 481 -28 495 -25 c 128,-1,11
 509 -22 509 -22 530 -10 c 128,-1,12
 551 2 551 2 561 9 c 128,-1,13
 571 16 571 16 595 34.5 c 128,-1,14
 619 53 619 53 628 60 c 0,15,16
 651 77 651 77 664 96 c 128,-1,17
 677 115 677 115 691.5 147.5 c 128,-1,18
 706 180 706 180 715 195 c 0,19,20
 719 201 719 201 726.5 214 c 128,-1,21
 734 227 734 227 737 233 c 128,-1,22
 740 239 740 239 743.5 250 c 128,-1,23
 747 261 747 261 748 273 c 0,24,25
 757 395 757 395 757 472.5 c 128,-1,26
 757 550 757 550 748 672 c 0,27,28
 748 676 748 676 747 688.5 c 128,-1,29
 746 701 746 701 745.5 705 c 128,-1,30
 745 709 745 709 743.5 719.5 c 128,-1,31
 742 730 742 730 740 735 c 128,-1,32
 738 740 738 740 735 748 c 128,-1,33
 732 756 732 756 728.5 760.5 c 128,-1,34
 725 765 725 765 719 770.5 c 128,-1,35
 713 776 713 776 706 780 c 0,36,37
 675 799 675 799 638.5 796 c 128,-1,38
 602 793 602 793 580 765 c 0,39,40
 561 741 561 741 549.5 712.5 c 128,-1,41
 538 684 538 684 535 668 c 128,-1,42
 532 652 532 652 528.5 609 c 128,-1,43
 525 566 525 566 523 552 c 0,44,45
 516 523 516 523 522.5 447.5 c 128,-1,46
 529 372 529 372 529 342 c 0,47,48
 529 323 529 323 537.5 287 c 128,-1,49
 546 251 546 251 544 228.5 c 128,-1,50
 542 206 542 206 520 192 c 0,51,52
 473 162 473 162 420 168 c 128,-1,53
 367 174 367 174 331 216 c 0,54,55
 302 249 302 249 294 283 c 128,-1,56
 286 317 286 317 288.5 374.5 c 128,-1,57
 291 432 291 432 289 456 c 0,58,59
 284 518 284 518 301 627 c 0,60,61
 303 639 303 639 321 667 c 128,-1,62
 339 695 339 695 328 711 c 0,63,64
 322 720 322 720 312.5 722 c 128,-1,65
 303 724 303 724 293.5 721 c 128,-1,66
 284 718 284 718 270.5 714.5 c 128,-1,67
 257 711 257 711 247 711 c 0,68,69
 235 711 235 711 199 712.5 c 128,-1,70
 163 714 163 714 139 714 c 0,71,72
 122 714 122 714 89.5 712 c 128,-1,73
 57 710 57 710 34 711 c 0,74,75
 23 712 23 712 39 718 c 0,76,77
 70 730 70 730 78 719 c 0,78,79
 79 718 79 718 79 717 c 0,0,1
EndSplineSet
EndChar

StartChar: V
Encoding: 86 86 56
Width: 1000
GlyphClass: 2
Flags: W
LayerCount: 2
Fore
SplineSet
94 729 m 0,0,1
 112 627 112 627 146.5 531 c 128,-1,2
 181 435 181 435 216 369.5 c 128,-1,3
 251 304 251 304 302 204.5 c 128,-1,4
 353 105 353 105 388 21 c 1,5,-1
 547 15 l 1,6,-1
 826 726 l 1,7,-1
 658 726 l 1,8,-1
 493 186 l 1,9,-1
 265 735 l 1,10,11
 248 734 248 734 221 740 c 128,-1,12
 194 746 194 746 172.5 751 c 128,-1,13
 151 756 151 756 131 759 c 128,-1,14
 111 762 111 762 101 755 c 128,-1,15
 91 748 91 748 94 729 c 0,0,1
EndSplineSet
EndChar

StartChar: W
Encoding: 87 87 57
Width: 1000
GlyphClass: 2
Flags: W
LayerCount: 2
Fore
SplineSet
22 717 m 1,0,-1
 157 72 l 1,1,-1
 232 75 l 1,2,-1
 328 471 l 1,3,-1
 430 93 l 1,4,-1
 505 108 l 1,5,-1
 655 756 l 1,6,-1
 493 750 l 1,7,-1
 484 387 l 1,8,-1
 295 744 l 1,9,-1
 208 372 l 1,10,-1
 22 717 l 1,0,-1
EndSplineSet
EndChar

StartChar: X
Encoding: 88 88 58
Width: 1000
GlyphClass: 2
Flags: W
LayerCount: 2
Fore
SplineSet
133 750 m 1,0,-1
 256 477 l 1,1,-1
 154 96 l 1,2,-1
 271 93 l 1,3,-1
 349 414 l 1,4,-1
 472 111 l 1,5,-1
 562 102 l 1,6,-1
 430 474 l 1,7,-1
 517 750 l 1,8,-1
 418 756 l 1,9,-1
 334 495 l 1,10,-1
 235 756 l 1,11,-1
 133 750 l 1,0,-1
EndSplineSet
EndChar

StartChar: Y
Encoding: 89 89 59
Width: 1000
GlyphClass: 2
Flags: W
LayerCount: 2
Fore
SplineSet
130 723 m 1,0,-1
 316 450 l 1,1,-1
 295 54 l 1,2,-1
 484 54 l 1,3,-1
 499 411 l 1,4,-1
 688 738 l 1,5,-1
 517 756 l 1,6,-1
 415 480 l 1,7,-1
 322 732 l 1,8,-1
 130 723 l 1,0,-1
EndSplineSet
EndChar

StartChar: Z
Encoding: 90 90 60
Width: 1000
GlyphClass: 2
Flags: W
LayerCount: 2
Fore
SplineSet
136 723 m 1,0,-1
 115 588 l 1,1,-1
 514 588 l 1,2,-1
 115 63 l 1,3,-1
 649 66 l 1,4,-1
 649 195 l 1,5,-1
 319 174 l 1,6,-1
 751 747 l 1,7,-1
 136 723 l 1,0,-1
EndSplineSet
EndChar

StartChar: bracketleft
Encoding: 91 91 61
Width: 1000
GlyphClass: 2
Flags: W
LayerCount: 2
Fore
SplineSet
523 726 m 1,0,-1
 202 696 l 1,1,-1
 226 99 l 1,2,-1
 562 102 l 1,3,-1
 562 327 l 1,4,-1
 292 237 l 1,5,-1
 298 597 l 1,6,-1
 529 633 l 1,7,-1
 523 726 l 1,0,-1
EndSplineSet
EndChar

StartChar: backslash
Encoding: 92 92 62
Width: 1000
GlyphClass: 2
Flags: W
LayerCount: 2
Fore
SplineSet
193 720 m 1,0,-1
 376 87 l 1,1,-1
 571 87 l 1,2,-1
 415 714 l 1,3,-1
 193 720 l 1,0,-1
EndSplineSet
EndChar

StartChar: bracketright
Encoding: 93 93 63
Width: 1000
GlyphClass: 2
Flags: W
LayerCount: 2
Fore
SplineSet
220 750 m 1,0,-1
 217 627 l 1,1,-1
 508 630 l 1,2,-1
 511 171 l 1,3,-1
 232 186 l 1,4,-1
 232 60 l 1,5,-1
 601 60 l 1,6,-1
 601 747 l 1,7,-1
 220 750 l 1,0,-1
EndSplineSet
EndChar

StartChar: asciicircum
Encoding: 94 94 64
Width: 1000
GlyphClass: 2
Flags: W
LayerCount: 2
Fore
SplineSet
457 768 m 1,0,-1
 166 471 l 1,1,-1
 238 402 l 1,2,-1
 466 645 l 1,3,-1
 634 408 l 1,4,-1
 700 465 l 1,5,-1
 457 768 l 1,0,-1
EndSplineSet
EndChar

StartChar: underscore
Encoding: 95 95 65
Width: 1000
GlyphClass: 2
Flags: W
LayerCount: 2
Fore
SplineSet
205 225 m 1,0,-1
 214 33 l 1,1,-1
 661 36 l 1,2,-1
 676 249 l 1,3,-1
 205 225 l 1,0,-1
EndSplineSet
EndChar

StartChar: grave
Encoding: 96 96 66
Width: 1000
GlyphClass: 2
Flags: W
LayerCount: 2
Fore
SplineSet
163 762 m 1,0,-1
 247 561 l 1,1,-1
 310 594 l 1,2,-1
 256 780 l 1,3,-1
 163 762 l 1,0,-1
EndSplineSet
EndChar

StartChar: a
Encoding: 97 97 67
Width: 1000
GlyphClass: 2
Flags: W
LayerCount: 2
Fore
SplineSet
433 210 m 1,0,-1
 436 123 l 1,1,-1
 229 117 l 1,2,-1
 208 147 l 1,3,-1
 202 189 l 1,4,-1
 220 204 l 1,5,-1
 433 210 l 1,0,-1
475 261 m 1,6,-1
 205 255 l 1,7,-1
 151 219 l 1,8,-1
 160 129 l 1,9,-1
 205 84 l 1,10,-1
 520 69 l 1,11,-1
 475 261 l 1,6,-1
112 516 m 1,12,-1
 121 417 l 1,13,-1
 397 432 l 1,14,-1
 439 381 l 1,15,-1
 469 75 l 1,16,-1
 580 69 l 1,17,-1
 553 474 l 1,18,-1
 502 540 l 1,19,-1
 112 516 l 1,12,-1
EndSplineSet
EndChar

StartChar: b
Encoding: 98 98 68
Width: 1000
GlyphClass: 2
Flags: W
LayerCount: 2
Fore
SplineSet
538 330 m 1,0,-1
 571 252 l 1,1,-1
 505 222 l 1,2,-1
 367 207 l 1,3,-1
 325 249 l 1,4,-1
 538 330 l 1,0,-1
202 762 m 1,5,-1
 205 174 l 1,6,-1
 502 117 l 1,7,-1
 661 249 l 1,8,-1
 562 378 l 1,9,-1
 373 309 l 1,10,-1
 331 723 l 1,11,-1
 202 762 l 1,5,-1
EndSplineSet
EndChar

StartChar: c
Encoding: 99 99 69
Width: 1000
GlyphClass: 2
Flags: W
LayerCount: 2
Fore
SplineSet
208 465 m 1,0,-1
 139 369 l 1,1,-1
 139 216 l 1,2,-1
 208 147 l 1,3,-1
 550 147 l 1,4,-1
 601 213 l 1,5,-1
 250 216 l 1,6,-1
 223 255 l 1,7,-1
 220 357 l 1,8,-1
 256 393 l 1,9,-1
 619 393 l 1,10,-1
 559 468 l 1,11,-1
 208 465 l 1,0,-1
EndSplineSet
EndChar

StartChar: d
Encoding: 100 100 70
Width: 1000
GlyphClass: 2
Flags: W
LayerCount: 2
Fore
SplineSet
268 300 m 1,0,-1
 595 219 l 1,1,-1
 550 120 l 1,2,-1
 415 120 l 1,3,-1
 298 168 l 1,4,-1
 268 300 l 1,0,-1
547 732 m 1,5,-1
 535 270 l 1,6,-1
 238 396 l 1,7,-1
 154 321 l 1,8,-1
 157 174 l 1,9,-1
 403 36 l 1,10,-1
 637 60 l 1,11,-1
 763 51 l 1,12,-1
 745 570 l 1,13,-1
 730 720 l 1,14,-1
 547 732 l 1,5,-1
EndSplineSet
EndChar

StartChar: e
Encoding: 101 101 71
Width: 1000
GlyphClass: 2
Flags: W
LayerCount: 2
Fore
SplineSet
445 633 m 1,0,-1
 499 528 l 1,1,-1
 589 429 l 1,2,-1
 427 402 l 1,3,-1
 292 456 l 1,4,-1
 253 486 l 1,5,-1
 253 570 l 1,6,-1
 331 621 l 1,7,-1
 445 633 l 1,0,-1
253 390 m 1,8,-1
 643 315 l 1,9,-1
 718 447 l 1,10,-1
 622 621 l 1,11,-1
 481 699 l 1,12,-1
 220 660 l 1,13,-1
 106 519 l 1,14,-1
 70 312 l 1,15,-1
 70 153 l 1,16,-1
 223 66 l 1,17,-1
 481 18 l 1,18,-1
 697 0 l 1,19,-1
 736 105 l 1,20,-1
 616 195 l 1,21,-1
 475 144 l 1,22,-1
 280 159 l 1,23,-1
 190 237 l 1,24,-1
 253 390 l 1,8,-1
EndSplineSet
EndChar

StartChar: f
Encoding: 102 102 72
Width: 1000
GlyphClass: 2
Flags: W
LayerCount: 2
Fore
SplineSet
511 708 m 1,0,-1
 337 702 l 1,1,-1
 355 534 l 1,2,-1
 154 552 l 1,3,-1
 139 363 l 1,4,-1
 364 408 l 1,5,-1
 340 87 l 1,6,-1
 565 51 l 1,7,-1
 538 387 l 1,8,-1
 736 369 l 1,9,-1
 721 525 l 1,10,-1
 517 504 l 1,11,-1
 712 585 l 1,12,-1
 703 687 l 1,13,-1
 511 708 l 1,0,-1
EndSplineSet
EndChar

StartChar: g
Encoding: 103 103 73
Width: 1000
GlyphClass: 2
Flags: W
LayerCount: 2
Fore
SplineSet
289 534 m 1,0,-1
 394 531 l 1,1,-1
 478 483 l 1,2,-1
 454 420 l 1,3,-1
 346 378 l 1,4,-1
 268 405 l 1,5,-1
 247 480 l 1,6,-1
 289 534 l 1,0,-1
625 552 m 1,7,-1
 529 564 l 1,8,-1
 511 519 l 1,9,-1
 394 588 l 1,10,-1
 271 618 l 1,11,-1
 187 516 l 1,12,-1
 160 444 l 1,13,-1
 187 384 l 1,14,-1
 289 324 l 1,15,-1
 361 324 l 1,16,-1
 430 339 l 1,17,-1
 472 318 l 1,18,-1
 469 255 l 1,19,-1
 451 201 l 1,20,-1
 349 231 l 1,21,-1
 289 264 l 1,22,-1
 145 261 l 1,23,-1
 97 159 l 1,24,-1
 175 96 l 1,25,-1
 385 39 l 1,26,-1
 517 24 l 1,27,-1
 625 552 l 1,7,-1
EndSplineSet
EndChar

StartChar: h
Encoding: 104 104 74
Width: 1000
GlyphClass: 2
Flags: W
LayerCount: 2
Fore
SplineSet
211 717 m 1,0,-1
 193 78 l 1,1,-1
 337 66 l 1,2,-1
 340 318 l 1,3,-1
 625 324 l 1,4,-1
 658 33 l 1,5,-1
 757 54 l 1,6,-1
 742 450 l 1,7,-1
 286 375 l 1,8,-1
 316 666 l 1,9,-1
 211 717 l 1,0,-1
EndSplineSet
EndChar

StartChar: i
Encoding: 105 105 75
Width: 1000
GlyphClass: 2
Flags: W
LayerCount: 2
Fore
SplineSet
286 525 m 1,0,-1
 265 84 l 1,1,-1
 451 90 l 1,2,-1
 496 456 l 1,3,-1
 286 525 l 1,0,-1
259 708 m 1,4,-1
 289 549 l 1,5,-1
 454 612 l 1,6,-1
 430 744 l 1,7,-1
 259 708 l 1,4,-1
EndSplineSet
EndChar

StartChar: j
Encoding: 106 106 76
Width: 1000
GlyphClass: 2
Flags: W
LayerCount: 2
Fore
SplineSet
271 516 m 1,0,-1
 238 129 l 1,1,-1
 67 87 l 1,2,-1
 64 -15 l 1,3,-1
 364 -30 l 1,4,-1
 463 441 l 1,5,-1
 271 516 l 1,0,-1
277 681 m 1,6,-1
 277 579 l 1,7,-1
 427 573 l 1,8,-1
 451 723 l 1,9,-1
 277 681 l 1,6,-1
EndSplineSet
EndChar

StartChar: k
Encoding: 107 107 77
Width: 1000
GlyphClass: 2
Flags: W
LayerCount: 2
Fore
SplineSet
199 741 m 1,0,-1
 115 96 l 1,1,-1
 238 84 l 1,2,-1
 310 270 l 1,3,-1
 463 45 l 1,4,-1
 682 27 l 1,5,-1
 439 420 l 1,6,-1
 706 516 l 1,7,-1
 466 510 l 1,8,-1
 319 399 l 1,9,-1
 295 747 l 1,10,-1
 199 741 l 1,0,-1
EndSplineSet
EndChar

StartChar: l
Encoding: 108 108 78
Width: 1000
GlyphClass: 2
Flags: W
LayerCount: 2
Fore
SplineSet
313 714 m 1,0,-1
 313 618 l 1,1,-1
 403 621 l 1,2,-1
 376 195 l 1,3,-1
 598 186 l 1,4,-1
 604 240 l 1,5,-1
 475 258 l 1,6,-1
 487 690 l 1,7,-1
 313 714 l 1,0,-1
EndSplineSet
EndChar

StartChar: m
Encoding: 109 109 79
Width: 1000
GlyphClass: 2
Flags: W
LayerCount: 2
Fore
SplineSet
82 621 m 1,0,-1
 64 168 l 1,1,-1
 208 117 l 1,2,-1
 241 375 l 1,3,-1
 298 402 l 1,4,-1
 394 126 l 1,5,-1
 463 108 l 1,6,-1
 460 357 l 1,7,-1
 505 423 l 1,8,-1
 586 108 l 1,9,-1
 667 102 l 1,10,-1
 637 642 l 1,11,-1
 547 675 l 1,12,-1
 451 633 l 1,13,-1
 424 564 l 1,14,-1
 373 528 l 1,15,-1
 343 597 l 1,16,-1
 313 648 l 1,17,-1
 265 657 l 1,18,-1
 196 660 l 1,19,-1
 130 585 l 1,20,-1
 130 627 l 1,21,-1
 82 621 l 1,0,-1
EndSplineSet
EndChar

StartChar: n
Encoding: 110 110 80
Width: 1000
GlyphClass: 2
Flags: W
LayerCount: 2
Fore
SplineSet
97 600 m 1,0,-1
 94 147 l 1,1,-1
 322 114 l 1,2,-1
 262 417 l 1,3,-1
 343 504 l 1,4,-1
 529 561 l 1,5,-1
 580 417 l 1,6,-1
 583 114 l 1,7,-1
 772 117 l 1,8,-1
 697 600 l 1,9,-1
 547 756 l 1,10,-1
 385 693 l 1,11,-1
 238 546 l 1,12,-1
 238 750 l 1,13,-1
 112 756 l 1,14,-1
 97 600 l 1,0,-1
EndSplineSet
EndChar

StartChar: o
Encoding: 111 111 81
Width: 1000
GlyphClass: 2
Flags: W
LayerCount: 2
Fore
SplineSet
400 504 m 0,0,1
 406 509 406 509 416 518.5 c 128,-1,2
 426 528 426 528 432 533 c 128,-1,3
 438 538 438 538 447.5 544.5 c 128,-1,4
 457 551 457 551 464 553 c 128,-1,5
 471 555 471 555 480.5 554.5 c 128,-1,6
 490 554 490 554 499 549 c 0,7,8
 513 541 513 541 523 529.5 c 128,-1,9
 533 518 533 518 538 509.5 c 128,-1,10
 543 501 543 501 547 480 c 128,-1,11
 551 459 551 459 552 452.5 c 128,-1,12
 553 446 553 446 556 420 c 0,13,14
 563 375 563 375 558 335 c 128,-1,15
 553 295 553 295 529 258 c 0,16,17
 501 215 501 215 430 225 c 0,18,19
 424 226 424 226 419.5 228 c 128,-1,20
 415 230 415 230 411.5 232 c 128,-1,21
 408 234 408 234 403.5 238.5 c 128,-1,22
 399 243 399 243 397 245 c 128,-1,23
 395 247 395 247 391 254 c 128,-1,24
 387 261 387 261 386 262.5 c 128,-1,25
 385 264 385 264 381 272.5 c 128,-1,26
 377 281 377 281 376 282 c 0,27,28
 373 288 373 288 366 301 c 128,-1,29
 359 314 359 314 356.5 319 c 128,-1,30
 354 324 354 324 348.5 336 c 128,-1,31
 343 348 343 348 342.5 353 c 128,-1,32
 342 358 342 358 338 371 c 128,-1,33
 334 384 334 384 336 390 c 128,-1,34
 338 396 338 396 337 411 c 0,35,36
 339 432 339 432 349 449.5 c 128,-1,37
 359 467 359 467 369 476.5 c 128,-1,38
 379 486 379 486 400 504 c 0,0,1
529 636 m 0,39,40
 415 656 415 656 319.5 590.5 c 128,-1,41
 224 525 224 525 205 414 c 0,42,43
 185 296 185 296 251 197 c 128,-1,44
 317 98 317 98 433 78 c 0,45,46
 531 61 531 61 602.5 138.5 c 128,-1,47
 674 216 674 216 694 330 c 0,48,49
 706 399 706 399 692 463.5 c 128,-1,50
 678 528 678 528 635.5 576.5 c 128,-1,51
 593 625 593 625 529 636 c 0,39,40
EndSplineSet
EndChar

StartChar: p
Encoding: 112 112 82
Width: 1000
GlyphClass: 2
Flags: W
LayerCount: 2
Fore
SplineSet
481 537 m 0,0,1
 531 532 531 532 565 505 c 128,-1,2
 599 478 599 478 598 435 c 0,3,4
 597 396 597 396 559 377.5 c 128,-1,5
 521 359 521 359 475 363 c 0,6,7
 442 366 442 366 421.5 392 c 128,-1,8
 401 418 401 418 403 453 c 0,9,10
 405 489 405 489 427 514.5 c 128,-1,11
 449 540 449 540 481 537 c 0,0,1
217 654 m 0,12,13
 210 604 210 604 197.5 540.5 c 128,-1,14
 185 477 185 477 176.5 434 c 128,-1,15
 168 391 168 391 161.5 339 c 128,-1,16
 155 287 155 287 156.5 233 c 128,-1,17
 158 179 158 179 169 120 c 0,18,19
 174 93 174 93 203 80 c 128,-1,20
 232 67 232 67 265.5 73.5 c 128,-1,21
 299 80 299 80 316 102 c 128,-1,22
 333 124 333 124 328 156.5 c 128,-1,23
 323 189 323 189 309.5 215.5 c 128,-1,24
 296 242 296 242 294.5 271 c 128,-1,25
 293 300 293 300 316 315 c 0,26,27
 344 334 344 334 376.5 335.5 c 128,-1,28
 409 337 409 337 439.5 328 c 128,-1,29
 470 319 470 319 501 309.5 c 128,-1,30
 532 300 532 300 565.5 300.5 c 128,-1,31
 599 301 599 301 628 318 c 0,32,33
 721 373 721 373 685 537 c 0,34,35
 675 582 675 582 640 608 c 128,-1,36
 605 634 605 634 556 636 c 0,37,38
 526 638 526 638 502.5 623.5 c 128,-1,39
 479 609 479 609 453 585.5 c 128,-1,40
 427 562 427 562 403 552 c 0,41,42
 395 548 395 548 379 539.5 c 128,-1,43
 363 531 363 531 354 527 c 128,-1,44
 345 523 345 523 332.5 523 c 128,-1,45
 320 523 320 523 310 531 c 0,46,47
 293 540 293 540 303.5 578.5 c 128,-1,48
 314 617 314 617 304 633 c 0,49,50
 299 642 299 642 289 642.5 c 128,-1,51
 279 643 279 643 265.5 640 c 128,-1,52
 252 637 252 637 244 639 c 0,53,54
 240 640 240 640 225 654 c 0,55,56
 218 658 218 658 217 654 c 0,12,13
EndSplineSet
EndChar

StartChar: q
Encoding: 113 113 83
Width: 1000
GlyphClass: 2
Flags: W
LayerCount: 2
Fore
SplineSet
355 618 m 0,0,1
 395 610 395 610 421 583 c 128,-1,2
 447 556 447 556 448 516 c 0,3,4
 450 481 450 481 422.5 456.5 c 128,-1,5
 395 432 395 432 361 438 c 0,6,7
 326 444 326 444 307 474.5 c 128,-1,8
 288 505 288 505 286 546 c 0,9,10
 285 576 285 576 306 599.5 c 128,-1,11
 327 623 327 623 355 618 c 0,0,1
583 696 m 0,12,13
 573 691 573 691 569 665.5 c 128,-1,14
 565 640 565 640 553 642 c 0,15,16
 524 645 524 645 494 670.5 c 128,-1,17
 464 696 464 696 437.5 712.5 c 128,-1,18
 411 729 411 729 382 717 c 0,19,20
 284 674 284 674 229 617.5 c 128,-1,21
 174 561 174 561 172 474 c 0,22,23
 171 401 171 401 228.5 356.5 c 128,-1,24
 286 312 286 312 373 297 c 0,25,26
 396 293 396 293 419.5 309.5 c 128,-1,27
 443 326 443 326 459.5 349.5 c 128,-1,28
 476 373 476 373 495 394 c 128,-1,29
 514 415 514 415 527.5 421 c 128,-1,30
 541 427 541 427 559 408 c 0,31,32
 588 371 588 371 590.5 326.5 c 128,-1,33
 593 282 593 282 580.5 244.5 c 128,-1,34
 568 207 568 207 559 155 c 128,-1,35
 550 103 550 103 559 60 c 0,36,37
 564 36 564 36 598 28 c 128,-1,38
 632 20 632 20 637 42 c 0,39,40
 659 137 659 137 666 166.5 c 128,-1,41
 673 196 673 196 688.5 270 c 128,-1,42
 704 344 704 344 708 380.5 c 128,-1,43
 712 417 712 417 717.5 479 c 128,-1,44
 723 541 723 541 721.5 596.5 c 128,-1,45
 720 652 720 652 715 717 c 0,46,47
 714 728 714 728 709 733.5 c 128,-1,48
 704 739 704 739 695 739 c 128,-1,49
 686 739 686 739 676.5 737.5 c 128,-1,50
 667 736 667 736 653 730 c 128,-1,51
 639 724 639 724 629 719 c 128,-1,52
 619 714 619 714 604.5 706.5 c 128,-1,53
 590 699 590 699 583 696 c 0,12,13
EndSplineSet
EndChar

StartChar: r
Encoding: 114 114 84
Width: 1000
GlyphClass: 2
Flags: W
LayerCount: 2
Fore
SplineSet
109 600 m 0,0,1
 68 440 68 440 64 330 c 128,-1,2
 60 220 60 220 94 60 c 0,3,4
 104 19 104 19 159 11.5 c 128,-1,5
 214 4 214 4 238 39 c 0,6,7
 259 69 259 69 262 106.5 c 128,-1,8
 265 144 265 144 258 174.5 c 128,-1,9
 251 205 251 205 252.5 244 c 128,-1,10
 254 283 254 283 271 315 c 0,11,12
 307 381 307 381 353 418 c 128,-1,13
 399 455 399 455 469 468 c 0,14,15
 492 472 492 472 513.5 458.5 c 128,-1,16
 535 445 535 445 548.5 426.5 c 128,-1,17
 562 408 562 408 583.5 393 c 128,-1,18
 605 378 605 378 628 381 c 0,19,20
 637 382 637 382 644 386 c 128,-1,21
 651 390 651 390 654.5 397.5 c 128,-1,22
 658 405 658 405 660.5 411.5 c 128,-1,23
 663 418 663 418 663.5 430 c 128,-1,24
 664 442 664 442 664.5 449 c 128,-1,25
 665 456 665 456 664.5 469.5 c 128,-1,26
 664 483 664 483 664 489 c 128,-1,27
 664 495 664 495 664.5 519.5 c 128,-1,28
 665 544 665 544 664.5 552.5 c 128,-1,29
 664 561 664 561 661 577.5 c 128,-1,30
 658 594 658 594 649.5 604.5 c 128,-1,31
 641 615 641 615 628 624 c 0,32,33
 617 631 617 631 604.5 636 c 128,-1,34
 592 641 592 641 583.5 644.5 c 128,-1,35
 575 648 575 648 559.5 648.5 c 128,-1,36
 544 649 544 649 538.5 650 c 128,-1,37
 533 651 533 651 514 648.5 c 128,-1,38
 495 646 495 646 491.5 645.5 c 128,-1,39
 488 645 488 645 465 640.5 c 128,-1,40
 442 636 442 636 439 636 c 0,41,42
 419 632 419 632 404.5 624 c 128,-1,43
 390 616 390 616 369.5 598 c 128,-1,44
 349 580 349 580 340 573 c 0,45,46
 327 563 327 563 313 538 c 128,-1,47
 299 513 299 513 286.5 500.5 c 128,-1,48
 274 488 274 488 256 495 c 0,49,50
 238 503 238 503 240 528 c 128,-1,51
 242 553 242 553 248 575.5 c 128,-1,52
 254 598 254 598 235 615 c 0,53,54
 206 639 206 639 161.5 636.5 c 128,-1,55
 117 634 117 634 109 600 c 0,0,1
EndSplineSet
EndChar

StartChar: s
Encoding: 115 115 85
Width: 1000
GlyphClass: 2
Flags: W
LayerCount: 2
Fore
SplineSet
472 579 m 0,0,1
 478 590 478 590 479 598 c 128,-1,2
 480 606 480 606 468 613.5 c 128,-1,3
 456 621 456 621 444.5 626 c 128,-1,4
 433 631 433 631 414 635.5 c 128,-1,5
 395 640 395 640 381.5 643 c 128,-1,6
 368 646 368 646 352 648 c 0,7,8
 311 658 311 658 270 654 c 128,-1,9
 229 650 229 650 202 621 c 0,10,11
 171 587 171 587 165 540.5 c 128,-1,12
 159 494 159 494 166 447 c 0,13,14
 169 405 169 405 179.5 378.5 c 128,-1,15
 190 352 190 352 220 342 c 0,16,17
 246 333 246 333 285.5 360 c 128,-1,18
 325 387 325 387 349 384 c 0,19,20
 440 374 440 374 466 315 c 0,21,22
 505 228 505 228 445 174 c 0,23,24
 427 157 427 157 405.5 156 c 128,-1,25
 384 155 384 155 353 161.5 c 128,-1,26
 322 168 322 168 304 168 c 0,27,28
 276 168 276 168 205 175 c 128,-1,29
 134 182 134 182 85 177 c 0,30,31
 75 176 75 176 71 164.5 c 128,-1,32
 67 153 67 153 73 144 c 0,33,34
 97 109 97 109 115 91.5 c 128,-1,35
 133 74 133 74 163 63 c 0,36,37
 195 51 195 51 223 47.5 c 128,-1,38
 251 44 251 44 292.5 43.5 c 128,-1,39
 334 43 334 43 355 42 c 0,40,41
 441 37 441 37 484 42 c 0,42,43
 518 46 518 46 544 43.5 c 128,-1,44
 570 41 570 41 597.5 47.5 c 128,-1,45
 625 54 625 54 646 75 c 0,46,47
 668 97 668 97 678 124.5 c 128,-1,48
 688 152 688 152 687 180 c 128,-1,49
 686 208 686 208 685 243 c 0,50,51
 684 281 684 281 672.5 308.5 c 128,-1,52
 661 336 661 336 634 375 c 0,53,54
 610 410 610 410 589.5 429.5 c 128,-1,55
 569 449 569 449 535 465 c 0,56,57
 506 478 506 478 477.5 484 c 128,-1,58
 449 490 449 490 413.5 494 c 128,-1,59
 378 498 378 498 352 504 c 0,60,61
 339 507 339 507 301 510 c 0,62,63
 250 514 250 514 249 520 c 0,64,65
 251 524 251 524 256 528 c 0,66,67
 285 547 285 547 329 545.5 c 128,-1,68
 373 544 373 544 411 547 c 128,-1,69
 449 550 449 550 472 579 c 0,0,1
EndSplineSet
EndChar

StartChar: t
Encoding: 116 116 86
Width: 1000
GlyphClass: 2
Flags: W
LayerCount: 2
Fore
SplineSet
154 576 m 0,0,1
 128 551 128 551 127 515 c 128,-1,2
 126 479 126 479 154 459 c 0,3,4
 172 447 172 447 200 454 c 128,-1,5
 228 461 228 461 250 473.5 c 128,-1,6
 272 486 272 486 294 488 c 128,-1,7
 316 490 316 490 322 468 c 0,8,9
 339 419 339 419 334 379 c 128,-1,10
 329 339 329 339 317 294.5 c 128,-1,11
 305 250 305 250 292.5 212.5 c 128,-1,12
 280 175 280 175 282 131 c 128,-1,13
 284 87 284 87 307 48 c 0,14,15
 378 -72 378 -72 592 15 c 0,16,17
 619 26 619 26 629.5 54.5 c 128,-1,18
 640 83 640 83 633 115 c 128,-1,19
 626 147 626 147 607 171 c 0,20,21
 594 187 594 187 569.5 187.5 c 128,-1,22
 545 188 545 188 522.5 180 c 128,-1,23
 500 172 500 172 478.5 174 c 128,-1,24
 457 176 457 176 448 195 c 0,25,26
 375 356 375 356 469 474 c 0,27,28
 486 496 486 496 515.5 495.5 c 128,-1,29
 545 495 545 495 572 483.5 c 128,-1,30
 599 472 599 472 630 470 c 128,-1,31
 661 468 661 468 682 486 c 0,32,33
 716 517 716 517 706 567.5 c 128,-1,34
 696 618 696 618 655 642 c 1,35,36
 614 660 614 660 588.5 648.5 c 128,-1,37
 563 637 563 637 523 622.5 c 128,-1,38
 483 608 483 608 451 618 c 0,39,40
 435 623 435 623 434.5 642.5 c 128,-1,41
 434 662 434 662 438 680.5 c 128,-1,42
 442 699 442 699 427 714 c 0,43,44
 360 773 360 773 316 735 c 0,45,46
 301 722 301 722 326 686 c 128,-1,47
 351 650 351 650 337 636 c 0,48,49
 310 609 310 609 245.5 605.5 c 128,-1,50
 181 602 181 602 154 576 c 0,0,1
EndSplineSet
EndChar

StartChar: u
Encoding: 117 117 87
Width: 1000
GlyphClass: 2
Flags: W
LayerCount: 2
Fore
SplineSet
118 504 m 1,0,-1
 115 156 l 1,1,2
 153 144 153 144 204.5 120 c 128,-1,3
 256 96 256 96 298.5 82.5 c 128,-1,4
 341 69 341 69 391 69 c 0,5,6
 432 69 432 69 466.5 81 c 128,-1,7
 501 93 501 93 543 116 c 128,-1,8
 585 139 585 139 616 150 c 1,9,-1
 616 69 l 1,10,-1
 736 69 l 1,11,-1
 739 546 l 1,12,-1
 625 546 l 1,13,-1
 625 258 l 1,14,15
 594 250 594 250 551 234 c 128,-1,16
 508 218 508 218 473 208.5 c 128,-1,17
 438 199 438 199 397 198 c 0,18,19
 363 197 363 197 334 204.5 c 128,-1,20
 305 212 305 212 269.5 225.5 c 128,-1,21
 234 239 234 239 208 246 c 1,22,-1
 211 501 l 1,23,-1
 118 504 l 1,0,-1
EndSplineSet
EndChar

StartChar: v
Encoding: 118 118 88
Width: 1000
GlyphClass: 2
Flags: W
LayerCount: 2
Fore
SplineSet
127 501 m 1,0,-1
 418 24 l 1,1,-1
 709 483 l 1,2,-1
 430 105 l 1,3,-1
 127 501 l 1,0,-1
EndSplineSet
EndChar

StartChar: w
Encoding: 119 119 89
Width: 1000
GlyphClass: 2
Flags: W
LayerCount: 2
Fore
SplineSet
34 489 m 1,0,-1
 172 63 l 1,1,-1
 373 384 l 1,2,-1
 511 75 l 1,3,-1
 649 513 l 1,4,-1
 499 135 l 1,5,-1
 373 384 l 1,6,-1
 181 102 l 1,7,-1
 34 489 l 1,0,-1
EndSplineSet
EndChar

StartChar: x
Encoding: 120 120 90
Width: 1000
GlyphClass: 2
Flags: W
LayerCount: 2
Fore
SplineSet
508 543 m 1,0,-1
 133 168 l 1,1,-1
 514 522 l 1,2,-1
 508 543 l 1,0,-1
169 534 m 1,3,-1
 568 162 l 1,4,-1
 163 513 l 1,5,-1
 169 534 l 1,3,-1
EndSplineSet
EndChar

StartChar: y
Encoding: 121 121 91
Width: 1000
GlyphClass: 2
Flags: W
LayerCount: 2
Fore
SplineSet
214 546 m 1,0,-1
 85 474 l 1,1,-1
 244 270 l 1,2,-1
 46 60 l 1,3,-1
 202 0 l 1,4,-1
 592 537 l 1,5,-1
 448 570 l 1,6,-1
 313 369 l 1,7,-1
 214 546 l 1,0,-1
EndSplineSet
EndChar

StartChar: z
Encoding: 122 122 92
Width: 1000
GlyphClass: 2
Flags: W
LayerCount: 2
Fore
SplineSet
157 603 m 1,0,-1
 157 429 l 1,1,-1
 490 459 l 1,2,-1
 136 159 l 1,3,-1
 136 30 l 1,4,-1
 715 33 l 1,5,-1
 697 162 l 1,6,-1
 301 159 l 1,7,-1
 715 465 l 1,8,-1
 721 636 l 1,9,-1
 157 603 l 1,0,-1
EndSplineSet
EndChar

StartChar: braceleft
Encoding: 123 123 93
Width: 1000
GlyphClass: 2
Flags: W
LayerCount: 2
Fore
SplineSet
487 750 m 1,0,1
 461 745 461 745 423 742.5 c 128,-1,2
 385 740 385 740 356 734 c 128,-1,3
 327 728 327 728 298 711 c 0,4,5
 285 703 285 703 276.5 690 c 128,-1,6
 268 677 268 677 265 666.5 c 128,-1,7
 262 656 262 656 257.5 636.5 c 128,-1,8
 253 617 253 617 250 606 c 0,9,10
 247 597 247 597 251.5 577 c 128,-1,11
 256 557 256 557 250 549 c 0,12,13
 239 529 239 529 215 511.5 c 128,-1,14
 191 494 191 494 174 477 c 128,-1,15
 157 460 157 460 157 435 c 0,16,17
 157 420 157 420 178 423 c 128,-1,18
 199 426 199 426 219.5 432.5 c 128,-1,19
 240 439 240 439 250 423 c 0,20,21
 266 387 266 387 248.5 319 c 128,-1,22
 231 251 231 251 250 216 c 0,23,24
 256 203 256 203 268.5 201 c 128,-1,25
 281 199 281 199 293.5 203 c 128,-1,26
 306 207 306 207 324 211 c 128,-1,27
 342 215 342 215 355 213 c 0,28,29
 371 211 371 211 410.5 192.5 c 128,-1,30
 450 174 450 174 478 183 c 0,31,32
 503 192 503 192 514 219 c 128,-1,33
 525 246 525 246 508 264 c 0,34,35
 488 284 488 284 451.5 285.5 c 128,-1,36
 415 287 415 287 384 290.5 c 128,-1,37
 353 294 353 294 340 321 c 0,38,39
 300 405 300 405 298 475.5 c 128,-1,40
 296 546 296 546 334 630 c 0,41,42
 346 655 346 655 378 653.5 c 128,-1,43
 410 652 410 652 440 643 c 128,-1,44
 470 634 470 634 499 654 c 0,45,46
 509 662 509 662 510 674 c 128,-1,47
 511 686 511 686 506 696.5 c 128,-1,48
 501 707 501 707 495 723 c 128,-1,49
 489 739 489 739 487 750 c 1,0,1
EndSplineSet
EndChar

StartChar: bar
Encoding: 124 124 94
Width: 1000
GlyphClass: 2
Flags: W
LayerCount: 2
Fore
SplineSet
235 744 m 0,0,1
 184 543 184 543 187 382 c 128,-1,2
 190 221 190 221 253 24 c 0,3,4
 265 -13 265 -13 312 -22.5 c 128,-1,5
 359 -32 359 -32 404.5 -12.5 c 128,-1,6
 450 7 450 7 460 45 c 0,7,8
 508 246 508 246 500.5 395 c 128,-1,9
 493 544 493 544 430 741 c 0,10,11
 419 775 419 775 374.5 790 c 128,-1,12
 330 805 330 805 287 792 c 128,-1,13
 244 779 244 779 235 744 c 0,0,1
EndSplineSet
EndChar

StartChar: braceright
Encoding: 125 125 95
Width: 1000
GlyphClass: 2
Flags: W
LayerCount: 2
Fore
SplineSet
235 687 m 0,0,1
 209 682 209 682 206.5 644 c 128,-1,2
 204 606 204 606 229 594 c 0,3,4
 259 581 259 581 293.5 582.5 c 128,-1,5
 328 584 328 584 356 592 c 128,-1,6
 384 600 384 600 416 597 c 128,-1,7
 448 594 448 594 472 573 c 0,8,9
 491 556 491 556 492 532.5 c 128,-1,10
 493 509 493 509 484.5 488 c 128,-1,11
 476 467 476 467 468.5 437 c 128,-1,12
 461 407 461 407 466 384 c 0,13,14
 469 368 469 368 495 351.5 c 128,-1,15
 521 335 521 335 520 318 c 0,16,17
 520 307 520 307 494 313 c 128,-1,18
 468 319 468 319 463 309 c 0,19,20
 457 284 457 284 462 255 c 128,-1,21
 467 226 467 226 476 202 c 128,-1,22
 485 178 485 178 482 155.5 c 128,-1,23
 479 133 479 133 457 120 c 0,24,25
 428 104 428 104 393.5 112 c 128,-1,26
 359 120 359 120 332 138.5 c 128,-1,27
 305 157 305 157 270 166.5 c 128,-1,28
 235 176 235 176 205 162 c 0,29,30
 178 149 178 149 167.5 113.5 c 128,-1,31
 157 78 157 78 168 43.5 c 128,-1,32
 179 9 179 9 208 0 c 0,33,34
 310 -32 310 -32 393 -21 c 128,-1,35
 476 -10 476 -10 568 45 c 0,36,37
 588 57 588 57 590 78 c 128,-1,38
 592 99 592 99 583.5 121 c 128,-1,39
 575 143 575 143 570 169.5 c 128,-1,40
 565 196 565 196 571 219 c 0,41,42
 579 243 579 243 597.5 265 c 128,-1,43
 616 287 616 287 633 300.5 c 128,-1,44
 650 314 650 314 664 336 c 128,-1,45
 678 358 678 358 679 384 c 0,46,47
 680 401 680 401 667 411.5 c 128,-1,48
 654 422 654 422 637.5 426 c 128,-1,49
 621 430 621 430 604 440 c 128,-1,50
 587 450 587 450 580 465 c 0,51,52
 571 489 571 489 573 518 c 128,-1,53
 575 547 575 547 582 571.5 c 128,-1,54
 589 596 589 596 584.5 619.5 c 128,-1,55
 580 643 580 643 559 657 c 0,56,57
 520 682 520 682 482.5 694.5 c 128,-1,58
 445 707 445 707 401.5 707 c 128,-1,59
 358 707 358 707 325.5 702.5 c 128,-1,60
 293 698 293 698 235 687 c 0,0,1
EndSplineSet
EndChar

StartChar: asciitilde
Encoding: 126 126 96
Width: 1000
GlyphClass: 2
Flags: W
LayerCount: 2
Fore
SplineSet
82 627 m 0,0,1
 55 589 55 589 59 538.5 c 128,-1,2
 63 488 63 488 103 471 c 0,3,4
 122 463 122 463 139 475 c 128,-1,5
 156 487 156 487 167 506.5 c 128,-1,6
 178 526 178 526 196.5 543.5 c 128,-1,7
 215 561 215 561 235 561 c 0,8,9
 269 561 269 561 296 548 c 128,-1,10
 323 535 323 535 355 511.5 c 128,-1,11
 387 488 387 488 412 477 c 0,12,13
 424 471 424 471 442.5 458 c 128,-1,14
 461 445 461 445 476 439.5 c 128,-1,15
 491 434 491 434 508 438 c 0,16,17
 559 449 559 449 574 513 c 0,18,19
 586 550 586 550 584 585.5 c 128,-1,20
 582 621 582 621 559 651 c 0,21,22
 519 702 519 702 448 672 c 0,23,24
 443 670 443 670 441 664.5 c 128,-1,25
 439 659 439 659 440 652 c 128,-1,26
 441 645 441 645 442.5 637.5 c 128,-1,27
 444 630 444 630 446 623 c 128,-1,28
 448 616 448 616 448.5 610.5 c 128,-1,29
 449 605 449 605 447 602 c 128,-1,30
 445 599 445 599 439 600 c 0,31,32
 405 605 405 605 375 629.5 c 128,-1,33
 345 654 345 654 315 676.5 c 128,-1,34
 285 699 285 699 250 702 c 0,35,36
 135 710 135 710 82 627 c 0,0,1
EndSplineSet
EndChar

StartChar: uni007F
Encoding: 127 127 97
Width: 1000
GlyphClass: 2
Flags: W
LayerCount: 2
Fore
SplineSet
451 318 m 1,0,-1
 397 42 l 1,1,-1
 502 39 l 1,2,-1
 496 132 l 1,3,-1
 631 123 l 1,4,-1
 634 192 l 1,5,-1
 502 207 l 1,6,-1
 631 243 l 1,7,-1
 616 303 l 1,8,-1
 451 318 l 1,0,-1
0 366 m 1,9,-1
 34 177 l 1,10,-1
 163 213 l 1,11,-1
 130 282 l 1,12,-1
 268 291 l 1,13,-1
 142 24 l 1,14,-1
 253 24 l 1,15,-1
 385 342 l 1,16,-1
 0 366 l 1,9,-1
559 642 m 1,17,-1
 700 645 l 1,18,-1
 655 525 l 1,19,-1
 580 504 l 1,20,-1
 559 642 l 1,17,-1
475 699 m 1,21,-1
 472 444 l 1,22,-1
 718 432 l 1,23,-1
 721 717 l 1,24,-1
 475 699 l 1,21,-1
184 684 m 1,25,-1
 160 528 l 1,26,-1
 85 528 l 1,27,-1
 76 705 l 1,28,-1
 184 684 l 1,25,-1
28 747 m 1,29,-1
 34 477 l 1,30,-1
 223 465 l 1,31,-1
 256 723 l 1,32,-1
 25 777 l 1,33,-1
 28 747 l 1,29,-1
EndSplineSet
EndChar

StartChar: yen
Encoding: 165 165 98
Width: 1000
GlyphClass: 2
Flags: W
LayerCount: 2
Fore
SplineSet
0 264 m 1,0,-1
 0 195 l 1,1,-1
 448 135 l 1,2,-1
 433 210 l 1,3,-1
 0 264 l 1,0,-1
0 477 m 1,4,-1
 0 342 l 1,5,-1
 448 306 l 1,6,-1
 442 456 l 1,7,-1
 0 477 l 1,4,-1
73 729 m 1,8,-1
 0 714 l 1,9,-1
 88 507 l 1,10,-1
 82 120 l 1,11,-1
 271 72 l 1,12,-1
 271 483 l 1,13,-1
 472 681 l 1,14,-1
 394 726 l 1,15,-1
 253 627 l 1,16,-1
 169 609 l 1,17,-1
 73 729 l 1,8,-1
EndSplineSet
EndChar

StartChar: brokenbar
Encoding: 166 166 99
Width: 1000
GlyphClass: 2
Flags: W
LayerCount: 2
Fore
SplineSet
280 438 m 1,0,-1
 253 75 l 1,1,-1
 385 75 l 1,2,-1
 430 318 l 1,3,-1
 280 438 l 1,0,-1
259 738 m 1,4,-1
 265 492 l 1,5,-1
 424 477 l 1,6,-1
 436 732 l 1,7,-1
 259 738 l 1,4,-1
EndSplineSet
EndChar

StartChar: section
Encoding: 167 167 100
Width: 1000
GlyphClass: 2
Flags: W
LayerCount: 2
Fore
SplineSet
148 492 m 1,0,-1
 547 609 l 1,1,-1
 598 354 l 1,2,-1
 334 198 l 1,3,-1
 142 366 l 1,4,-1
 148 492 l 1,0,-1
511 816 m 1,5,-1
 211 651 l 1,6,-1
 220 576 l 1,7,-1
 220 447 l 1,8,-1
 307 327 l 1,9,-1
 370 303 l 1,10,-1
 379 189 l 1,11,-1
 238 198 l 1,12,-1
 241 63 l 1,13,-1
 355 63 l 1,14,-1
 433 75 l 1,15,-1
 505 138 l 1,16,-1
 526 333 l 1,17,-1
 520 384 l 1,18,-1
 439 429 l 1,19,-1
 358 438 l 1,20,-1
 325 603 l 1,21,-1
 385 657 l 1,22,-1
 589 741 l 1,23,-1
 514 840 l 1,24,-1
 511 816 l 1,5,-1
EndSplineSet
EndChar

StartChar: dieresis
Encoding: 168 168 101
Width: 1000
GlyphClass: 2
Flags: W
LayerCount: 2
Fore
SplineSet
346 762 m 1,0,-1
 352 594 l 1,1,-1
 550 627 l 1,2,-1
 538 741 l 1,3,-1
 346 762 l 1,0,-1
163 783 m 1,4,-1
 163 642 l 1,5,-1
 286 642 l 1,6,-1
 307 783 l 1,7,-1
 163 783 l 1,4,-1
EndSplineSet
EndChar

StartChar: copyright
Encoding: 169 169 102
Width: 1000
GlyphClass: 2
Flags: W
LayerCount: 2
Fore
SplineSet
460 543 m 1,0,-1
 337 522 l 1,1,-1
 313 405 l 1,2,-1
 331 270 l 1,3,-1
 436 252 l 1,4,-1
 478 327 l 1,5,-1
 394 327 l 1,6,-1
 385 486 l 1,7,-1
 460 486 l 1,8,-1
 460 543 l 1,0,-1
457 639 m 1,9,-1
 574 537 l 1,10,-1
 613 324 l 1,11,-1
 616 204 l 1,12,-1
 418 120 l 1,13,-1
 262 198 l 1,14,-1
 232 495 l 1,15,-1
 250 582 l 1,16,-1
 457 639 l 1,9,-1
697 585 m 1,17,-1
 517 726 l 1,18,-1
 187 666 l 1,19,-1
 166 381 l 1,20,-1
 196 135 l 1,21,-1
 424 63 l 1,22,-1
 646 132 l 1,23,-1
 703 219 l 1,24,-1
 706 384 l 1,25,-1
 697 585 l 1,17,-1
EndSplineSet
EndChar

StartChar: guillemotleft
Encoding: 171 171 103
Width: 1000
GlyphClass: 2
Flags: W
LayerCount: 2
Fore
SplineSet
424 642 m 1,0,-1
 289 438 l 1,1,-1
 433 246 l 1,2,-1
 550 246 l 1,3,-1
 412 456 l 1,4,-1
 517 636 l 1,5,-1
 424 642 l 1,0,-1
232 654 m 1,6,-1
 85 435 l 1,7,-1
 247 213 l 1,8,-1
 355 213 l 1,9,-1
 184 438 l 1,10,-1
 307 648 l 1,11,-1
 232 654 l 1,6,-1
EndSplineSet
EndChar

StartChar: logicalnot
Encoding: 172 172 104
Width: 1000
GlyphClass: 2
Flags: W
LayerCount: 2
Fore
SplineSet
172 618 m 1,0,-1
 181 438 l 1,1,-1
 562 483 l 1,2,-1
 532 279 l 1,3,-1
 724 288 l 1,4,-1
 724 627 l 1,5,-1
 172 618 l 1,0,-1
EndSplineSet
EndChar

StartChar: uni00AD
Encoding: 173 173 105
Width: 1000
GlyphClass: 2
Flags: W
LayerCount: 2
Fore
SplineSet
193 450 m 1,0,-1
 205 309 l 1,1,-1
 562 291 l 1,2,-1
 556 447 l 1,3,-1
 193 450 l 1,0,-1
EndSplineSet
EndChar

StartChar: registered
Encoding: 174 174 106
Width: 1000
GlyphClass: 2
Flags: W
LayerCount: 2
Fore
SplineSet
373 501 m 1,0,-1
 421 498 l 1,1,-1
 409 399 l 1,2,-1
 367 423 l 1,3,-1
 373 501 l 1,0,-1
331 537 m 1,4,-1
 292 297 l 1,5,-1
 268 219 l 1,6,-1
 367 171 l 1,7,-1
 385 357 l 1,8,-1
 421 159 l 1,9,-1
 559 150 l 1,10,-1
 445 417 l 1,11,-1
 496 537 l 1,12,-1
 331 537 l 1,4,-1
514 651 m 1,13,-1
 619 492 l 1,14,-1
 679 288 l 1,15,-1
 664 96 l 1,16,-1
 550 -27 l 1,17,-1
 349 57 l 1,18,-1
 238 138 l 1,19,-1
 223 351 l 1,20,-1
 277 585 l 1,21,-1
 514 651 l 1,13,-1
544 717 m 1,22,-1
 316 708 l 1,23,-1
 124 486 l 1,24,-1
 103 213 l 1,25,-1
 202 -24 l 1,26,-1
 661 -18 l 1,27,-1
 793 207 l 1,28,-1
 775 456 l 1,29,-1
 658 624 l 1,30,-1
 544 717 l 1,22,-1
EndSplineSet
EndChar

StartChar: macron
Encoding: 175 175 107
Width: 1000
GlyphClass: 2
Flags: W
LayerCount: 2
Fore
SplineSet
202 753 m 1,0,-1
 202 633 l 1,1,-1
 598 606 l 1,2,-1
 538 747 l 1,3,-1
 202 753 l 1,0,-1
EndSplineSet
EndChar

StartChar: degree
Encoding: 176 176 108
Width: 1000
GlyphClass: 2
Flags: W
LayerCount: 2
Fore
SplineSet
409 720 m 1,0,-1
 343 660 l 1,1,-1
 391 525 l 1,2,-1
 547 579 l 1,3,-1
 409 720 l 1,0,-1
379 438 m 1,4,-1
 208 696 l 1,5,-1
 427 798 l 1,6,-1
 610 687 l 1,7,-1
 508 468 l 1,8,-1
 379 438 l 1,4,-1
EndSplineSet
EndChar

StartChar: plusminus
Encoding: 177 177 109
Width: 1000
GlyphClass: 2
Flags: W
LayerCount: 2
Fore
SplineSet
166 216 m 1,0,-1
 187 51 l 1,1,-1
 661 69 l 1,2,-1
 685 213 l 1,3,-1
 166 216 l 1,0,-1
349 768 m 1,4,-1
 346 609 l 1,5,-1
 142 636 l 1,6,-1
 142 477 l 1,7,-1
 358 444 l 1,8,-1
 355 246 l 1,9,-1
 520 258 l 1,10,-1
 514 426 l 1,11,-1
 679 435 l 1,12,-1
 688 639 l 1,13,-1
 508 624 l 1,14,-1
 505 768 l 1,15,-1
 349 768 l 1,4,-1
EndSplineSet
EndChar

StartChar: uni00B2
Encoding: 178 178 110
Width: 1000
GlyphClass: 2
Flags: W
LayerCount: 2
Fore
SplineSet
367 753 m 1,0,-1
 343 642 l 1,1,-1
 475 726 l 1,2,-1
 331 555 l 1,3,-1
 334 453 l 1,4,-1
 544 507 l 1,5,-1
 538 624 l 1,6,-1
 430 543 l 1,7,-1
 538 801 l 1,8,-1
 367 753 l 1,0,-1
EndSplineSet
EndChar

StartChar: uni00B3
Encoding: 179 179 111
Width: 1000
GlyphClass: 2
Flags: W
LayerCount: 2
Fore
SplineSet
265 759 m 1,0,-1
 265 651 l 1,1,-1
 475 714 l 1,2,-1
 286 546 l 1,3,-1
 514 609 l 1,4,-1
 286 399 l 1,5,-1
 472 405 l 1,6,-1
 607 627 l 1,7,-1
 481 636 l 1,8,-1
 592 786 l 1,9,-1
 265 759 l 1,0,-1
EndSplineSet
EndChar

StartChar: acute
Encoding: 180 180 112
Width: 1000
GlyphClass: 2
Flags: W
LayerCount: 2
Fore
SplineSet
403 807 m 1,0,-1
 289 660 l 1,1,-1
 445 660 l 1,2,-1
 541 798 l 1,3,-1
 403 807 l 1,0,-1
EndSplineSet
EndChar

StartChar: mu
Encoding: 181 181 113
Width: 1000
GlyphClass: 2
Flags: W
LayerCount: 2
Fore
SplineSet
193 462 m 1,0,-1
 61 471 l 1,1,-1
 94 -15 l 1,2,-1
 238 0 l 1,3,-1
 202 165 l 1,4,-1
 562 135 l 1,5,-1
 559 267 l 1,6,-1
 457 264 l 1,7,-1
 457 462 l 1,8,-1
 352 477 l 1,9,-1
 352 264 l 1,10,-1
 187 255 l 1,11,-1
 193 462 l 1,0,-1
EndSplineSet
EndChar

StartChar: paragraph
Encoding: 182 182 114
Width: 1000
GlyphClass: 2
Flags: W
LayerCount: 2
Fore
SplineSet
430 696 m 1,0,-1
 157 705 l 1,1,-1
 118 495 l 1,2,-1
 379 510 l 1,3,-1
 247 75 l 1,4,-1
 427 60 l 1,5,-1
 514 621 l 1,6,-1
 595 609 l 1,7,-1
 589 39 l 1,8,-1
 730 48 l 1,9,-1
 748 693 l 1,10,-1
 430 696 l 1,0,-1
EndSplineSet
EndChar

StartChar: periodcentered
Encoding: 183 183 115
Width: 1000
GlyphClass: 2
Flags: W
LayerCount: 2
Fore
SplineSet
349 549 m 1,0,-1
 265 417 l 1,1,-1
 472 363 l 1,2,-1
 556 495 l 1,3,-1
 349 549 l 1,0,-1
EndSplineSet
EndChar

StartChar: cedilla
Encoding: 184 184 116
Width: 1000
GlyphClass: 2
Flags: W
LayerCount: 2
Fore
SplineSet
439 63 m 1,0,-1
 439 0 l 1,1,-1
 541 21 l 1,2,-1
 439 63 l 1,0,-1
EndSplineSet
EndChar

StartChar: uni00B9
Encoding: 185 185 117
Width: 1000
GlyphClass: 2
Flags: W
LayerCount: 2
Fore
SplineSet
301 804 m 1,0,-1
 322 753 l 1,1,-1
 412 756 l 1,2,-1
 400 651 l 1,3,-1
 343 648 l 1,4,-1
 385 534 l 1,5,-1
 538 570 l 1,6,-1
 496 636 l 1,7,-1
 454 648 l 1,8,-1
 451 816 l 1,9,-1
 301 804 l 1,0,-1
EndSplineSet
EndChar

StartChar: guillemotright
Encoding: 187 187 118
Width: 1000
GlyphClass: 2
Flags: W
LayerCount: 2
Fore
SplineSet
556 633 m 1,0,-1
 616 477 l 1,1,-1
 466 294 l 1,2,-1
 703 261 l 1,3,-1
 787 468 l 1,4,-1
 718 627 l 1,5,-1
 556 633 l 1,0,-1
157 648 m 1,6,-1
 361 447 l 1,7,-1
 115 300 l 1,8,-1
 367 282 l 1,9,-1
 472 471 l 1,10,-1
 157 648 l 1,6,-1
EndSplineSet
EndChar

StartChar: uni1416
Encoding: 5142 5142 119
Width: 1000
GlyphClass: 2
Flags: W
LayerCount: 2
Fore
SplineSet
238 444 m 1,0,-1
 484 381 l 1,1,-1
 304 117 l 1,2,-1
 238 444 l 1,0,-1
586 405 m 1,3,-1
 157 513 l 1,4,-1
 283 45 l 1,5,-1
 586 405 l 1,3,-1
451 687 m 1,6,-1
 457 543 l 1,7,-1
 586 546 l 1,8,-1
 589 663 l 1,9,-1
 451 687 l 1,6,-1
187 756 m 1,10,-1
 190 645 l 1,11,-1
 343 660 l 1,12,-1
 337 750 l 1,13,-1
 187 756 l 1,10,-1
EndSplineSet
EndChar

StartChar: uni141B
Encoding: 5147 5147 120
Width: 1000
GlyphClass: 2
Flags: W
LayerCount: 2
Fore
SplineSet
538 516 m 1,0,-1
 556 162 l 1,1,-1
 337 435 l 1,2,-1
 538 516 l 1,0,-1
580 579 m 1,3,-1
 286 453 l 1,4,-1
 571 75 l 1,5,-1
 580 579 l 1,3,-1
361 705 m 1,6,-1
 289 696 l 1,7,-1
 304 636 l 1,8,-1
 370 645 l 1,9,-1
 361 705 l 1,6,-1
451 726 m 1,10,-1
 469 642 l 1,11,-1
 550 672 l 1,12,-1
 550 720 l 1,13,-1
 451 726 l 1,10,-1
EndSplineSet
EndChar

StartChar: uni3041
Encoding: 12353 12353 121
Width: 1000
GlyphClass: 2
Flags: W
LayerCount: 2
Fore
SplineSet
250 162 m 1,0,-1
 115 51 l 1,1,-1
 106 102 l 1,2,-1
 196 156 l 1,3,-1
 274 120 l 1,4,-1
 262 90 l 1,5,-1
 220 33 l 1,6,-1
 259 27 l 1,7,-1
 316 162 l 1,8,-1
 208 186 l 1,9,-1
 118 156 l 1,10,-1
 61 114 l 1,11,-1
 73 33 l 1,12,-1
 112 18 l 1,13,-1
 274 150 l 1,14,-1
 250 162 l 1,0,-1
145 294 m 1,15,-1
 181 42 l 1,16,-1
 205 45 l 1,17,-1
 172 285 l 1,18,-1
 145 294 l 1,15,-1
103 264 m 1,19,-1
 121 183 l 1,20,-1
 295 228 l 1,21,-1
 274 273 l 1,22,-1
 103 264 l 1,19,-1
EndSplineSet
EndChar

StartChar: uni3042
Encoding: 12354 12354 122
Width: 1000
GlyphClass: 2
Flags: W
LayerCount: 2
Fore
SplineSet
499 396 m 1,0,-1
 175 108 l 1,1,-1
 157 267 l 1,2,-1
 403 348 l 1,3,-1
 532 285 l 1,4,-1
 457 132 l 1,5,-1
 418 69 l 1,6,-1
 493 39 l 1,7,-1
 640 348 l 1,8,-1
 352 414 l 1,9,-1
 97 321 l 1,10,-1
 94 90 l 1,11,-1
 160 21 l 1,12,-1
 568 405 l 1,13,-1
 499 396 l 1,0,-1
211 675 m 1,14,-1
 286 21 l 1,15,-1
 331 24 l 1,16,-1
 298 633 l 1,17,-1
 211 675 l 1,14,-1
91 474 m 1,18,-1
 79 414 l 1,19,-1
 625 477 l 1,20,-1
 616 570 l 1,21,-1
 91 474 l 1,18,-1
EndSplineSet
EndChar

StartChar: uni3043
Encoding: 12355 12355 123
Width: 1000
GlyphClass: 2
Flags: W
LayerCount: 2
Fore
SplineSet
223 294 m 1,0,-1
 244 180 l 1,1,-1
 268 132 l 1,2,-1
 319 174 l 1,3,-1
 277 273 l 1,4,-1
 223 294 l 1,0,-1
85 261 m 1,5,-1
 127 39 l 1,6,-1
 166 60 l 1,7,-1
 196 96 l 1,8,-1
 157 96 l 1,9,-1
 112 264 l 1,10,-1
 85 261 l 1,5,-1
EndSplineSet
EndChar

StartChar: uni3044
Encoding: 12356 12356 124
Width: 1000
GlyphClass: 2
Flags: W
LayerCount: 2
Fore
SplineSet
427 633 m 1,0,-1
 493 501 l 1,1,-1
 517 357 l 1,2,-1
 604 345 l 1,3,-1
 616 525 l 1,4,-1
 517 687 l 1,5,-1
 427 633 l 1,0,-1
121 603 m 1,6,-1
 133 396 l 1,7,-1
 202 279 l 1,8,-1
 241 237 l 1,9,-1
 244 318 l 1,10,-1
 286 285 l 1,11,-1
 286 174 l 1,12,-1
 187 159 l 1,13,-1
 58 405 l 1,14,-1
 64 594 l 1,15,-1
 121 603 l 1,6,-1
EndSplineSet
EndChar

StartChar: uni3045
Encoding: 12357 12357 125
Width: 1000
GlyphClass: 2
Flags: W
LayerCount: 2
Fore
SplineSet
76 237 m 1,0,-1
 94 174 l 1,1,-1
 190 216 l 1,2,-1
 253 216 l 1,3,-1
 292 174 l 1,4,-1
 244 102 l 1,5,-1
 196 48 l 1,6,-1
 310 27 l 1,7,-1
 391 198 l 1,8,-1
 361 258 l 1,9,-1
 277 273 l 1,10,-1
 76 237 l 1,0,-1
139 396 m 1,11,-1
 139 303 l 1,12,-1
 346 309 l 1,13,-1
 340 342 l 1,14,-1
 139 396 l 1,11,-1
EndSplineSet
EndChar

StartChar: uni3046
Encoding: 12358 12358 126
Width: 1000
GlyphClass: 2
Flags: W
LayerCount: 2
Fore
SplineSet
145 495 m 1,0,-1
 181 306 l 1,1,-1
 328 384 l 1,2,-1
 559 387 l 1,3,-1
 622 267 l 1,4,-1
 508 186 l 1,5,-1
 322 54 l 1,6,-1
 529 48 l 1,7,-1
 691 168 l 1,8,-1
 829 378 l 1,9,-1
 727 474 l 1,10,-1
 427 531 l 1,11,-1
 145 495 l 1,0,-1
193 699 m 1,12,-1
 193 540 l 1,13,-1
 724 564 l 1,14,-1
 724 702 l 1,15,-1
 193 699 l 1,12,-1
EndSplineSet
EndChar

StartChar: uni3047
Encoding: 12359 12359 127
Width: 1000
GlyphClass: 2
Flags: W
LayerCount: 2
Fore
SplineSet
49 285 m 1,0,-1
 58 219 l 1,1,-1
 238 216 l 1,2,-1
 61 60 l 1,3,-1
 154 45 l 1,4,-1
 229 90 l 1,5,-1
 307 24 l 1,6,-1
 403 60 l 1,7,-1
 367 147 l 1,8,-1
 217 138 l 1,9,-1
 337 261 l 1,10,-1
 49 285 l 1,0,-1
106 405 m 1,11,-1
 106 309 l 1,12,-1
 340 309 l 1,13,-1
 328 387 l 1,14,-1
 106 405 l 1,11,-1
EndSplineSet
EndChar

StartChar: uni3048
Encoding: 12360 12360 128
Width: 1000
GlyphClass: 2
Flags: W
LayerCount: 2
Fore
SplineSet
82 507 m 1,0,-1
 97 354 l 1,1,-1
 301 423 l 1,2,-1
 412 423 l 1,3,-1
 520 420 l 1,4,-1
 475 303 l 1,5,-1
 280 180 l 1,6,-1
 175 120 l 1,7,-1
 331 54 l 1,8,-1
 469 111 l 1,9,-1
 601 120 l 1,10,-1
 676 54 l 1,11,-1
 757 33 l 1,12,-1
 871 102 l 1,13,-1
 919 207 l 1,14,-1
 820 273 l 1,15,-1
 730 171 l 1,16,-1
 592 219 l 1,17,-1
 445 177 l 1,18,-1
 640 354 l 1,19,-1
 754 540 l 1,20,-1
 316 543 l 1,21,-1
 82 507 l 1,0,-1
172 747 m 1,22,-1
 172 642 l 1,23,-1
 727 606 l 1,24,-1
 727 702 l 1,25,-1
 172 747 l 1,22,-1
EndSplineSet
EndChar

StartChar: uni3049
Encoding: 12361 12361 129
Width: 1000
GlyphClass: 2
Flags: W
LayerCount: 2
Fore
SplineSet
484 393 m 1,0,-1
 568 288 l 1,1,-1
 643 339 l 1,2,-1
 484 393 l 1,0,-1
130 507 m 1,3,-1
 214 90 l 1,4,-1
 121 147 l 1,5,-1
 277 228 l 1,6,-1
 367 225 l 1,7,-1
 376 183 l 1,8,-1
 352 126 l 1,9,-1
 316 63 l 1,10,-1
 388 15 l 1,11,-1
 505 252 l 1,12,-1
 445 288 l 1,13,-1
 238 276 l 1,14,-1
 124 207 l 1,15,-1
 64 120 l 1,16,-1
 253 0 l 1,17,-1
 205 513 l 1,18,-1
 130 507 l 1,3,-1
61 447 m 1,19,-1
 79 303 l 1,20,-1
 409 360 l 1,21,-1
 382 423 l 1,22,-1
 61 447 l 1,19,-1
EndSplineSet
EndChar

StartChar: uni304A
Encoding: 12362 12362 130
Width: 1000
GlyphClass: 2
Flags: W
LayerCount: 2
Fore
SplineSet
859 714 m 1,0,-1
 802 561 l 1,1,-1
 883 369 l 1,2,-1
 928 570 l 1,3,-1
 859 714 l 1,0,-1
283 732 m 1,4,-1
 337 153 l 1,5,-1
 169 225 l 1,6,-1
 196 348 l 1,7,-1
 451 384 l 1,8,-1
 592 378 l 1,9,-1
 592 258 l 1,10,-1
 550 174 l 1,11,-1
 475 90 l 1,12,-1
 640 36 l 1,13,-1
 772 339 l 1,14,-1
 730 459 l 1,15,-1
 442 489 l 1,16,-1
 184 465 l 1,17,-1
 109 342 l 1,18,-1
 124 120 l 1,19,-1
 364 63 l 1,20,-1
 394 735 l 1,21,-1
 283 732 l 1,4,-1
139 633 m 1,22,-1
 163 537 l 1,23,-1
 730 564 l 1,24,-1
 730 654 l 1,25,-1
 139 633 l 1,22,-1
EndSplineSet
EndChar

StartChar: uni304B
Encoding: 12363 12363 131
Width: 1000
GlyphClass: 2
Flags: W
LayerCount: 2
Fore
SplineSet
922 861 m 1,0,-1
 772 783 l 1,1,-1
 925 489 l 1,2,-1
 1060 570 l 1,3,-1
 922 861 l 1,0,-1
283 879 m 1,4,-1
 97 75 l 1,5,-1
 328 90 l 1,6,-1
 409 849 l 1,7,-1
 283 879 l 1,4,-1
136 735 m 1,8,-1
 106 462 l 1,9,-1
 637 573 l 1,10,-1
 568 96 l 1,11,-1
 718 105 l 1,12,-1
 832 726 l 1,13,-1
 136 735 l 1,8,-1
EndSplineSet
EndChar

StartChar: uni304C
Encoding: 12364 12364 132
Width: 1000
GlyphClass: 2
Flags: W
LayerCount: 2
Fore
SplineSet
958 699 m 1,0,-1
 928 597 l 1,1,-1
 964 531 l 1,2,-1
 958 699 l 1,0,-1
877 783 m 1,3,-1
 865 735 l 1,4,-1
 901 651 l 1,5,-1
 946 747 l 1,6,-1
 877 783 l 1,3,-1
841 777 m 1,7,-1
 697 681 l 1,8,-1
 886 438 l 1,9,-1
 841 777 l 1,7,-1
295 795 m 1,10,-1
 97 129 l 1,11,-1
 265 120 l 1,12,-1
 532 825 l 1,13,-1
 295 795 l 1,10,-1
139 672 m 1,14,-1
 136 486 l 1,15,-1
 697 516 l 1,16,-1
 490 48 l 1,17,-1
 820 72 l 1,18,-1
 853 660 l 1,19,-1
 139 672 l 1,14,-1
EndSplineSet
EndChar

StartChar: uni304D
Encoding: 12365 12365 133
Width: 1000
GlyphClass: 2
Flags: W
LayerCount: 2
Fore
SplineSet
103 366 m 1,0,-1
 0 285 l 1,1,-1
 124 99 l 1,2,-1
 298 0 l 1,3,-1
 361 90 l 1,4,-1
 187 168 l 1,5,-1
 103 366 l 1,0,-1
295 762 m 1,6,-1
 424 294 l 1,7,-1
 358 321 l 1,8,-1
 319 252 l 1,9,-1
 520 216 l 1,10,-1
 424 789 l 1,11,-1
 295 762 l 1,6,-1
193 453 m 1,12,-1
 214 351 l 1,13,-1
 736 429 l 1,14,-1
 727 528 l 1,15,-1
 193 453 l 1,12,-1
163 678 m 1,16,-1
 184 537 l 1,17,-1
 706 660 l 1,18,-1
 694 792 l 1,19,-1
 163 678 l 1,16,-1
EndSplineSet
EndChar

StartChar: uni304E
Encoding: 12366 12366 134
Width: 1000
GlyphClass: 2
Flags: W
LayerCount: 2
Fore
SplineSet
790 717 m 1,0,-1
 748 702 l 1,1,-1
 919 552 l 1,2,-1
 967 606 l 1,3,-1
 790 717 l 1,0,-1
700 687 m 1,4,-1
 682 627 l 1,5,-1
 769 510 l 1,6,-1
 820 600 l 1,7,-1
 700 687 l 1,4,-1
109 300 m 1,8,-1
 166 162 l 1,9,-1
 334 90 l 1,10,-1
 253 21 l 1,11,-1
 106 96 l 1,12,-1
 109 300 l 1,8,-1
307 717 m 1,13,-1
 352 273 l 1,14,-1
 286 279 l 1,15,-1
 250 225 l 1,16,-1
 445 207 l 1,17,-1
 421 708 l 1,18,-1
 325 723 l 1,19,-1
 307 717 l 1,13,-1
214 474 m 1,20,-1
 241 360 l 1,21,-1
 643 348 l 1,22,-1
 640 459 l 1,23,-1
 214 474 l 1,20,-1
163 654 m 1,24,-1
 199 549 l 1,25,-1
 616 561 l 1,26,-1
 568 681 l 1,27,-1
 163 654 l 1,24,-1
EndSplineSet
EndChar

StartChar: uni304F
Encoding: 12367 12367 135
Width: 1000
GlyphClass: 2
Flags: W
LayerCount: 2
Fore
SplineSet
589 720 m 1,0,-1
 148 495 l 1,1,-1
 400 111 l 1,2,-1
 589 150 l 1,3,-1
 319 429 l 1,4,-1
 664 651 l 1,5,-1
 589 720 l 1,0,-1
EndSplineSet
EndChar

StartChar: uni3050
Encoding: 12368 12368 136
Width: 1000
GlyphClass: 2
Flags: W
LayerCount: 2
Fore
SplineSet
739 756 m 1,0,-1
 751 516 l 1,1,-1
 823 735 l 1,2,-1
 739 756 l 1,0,-1
706 771 m 1,3,-1
 619 576 l 1,4,-1
 706 546 l 1,5,-1
 706 771 l 1,3,-1
511 681 m 1,6,-1
 160 444 l 1,7,-1
 370 39 l 1,8,-1
 478 255 l 1,9,-1
 307 372 l 1,10,-1
 607 585 l 1,11,-1
 511 681 l 1,6,-1
EndSplineSet
EndChar

StartChar: uni3051
Encoding: 12369 12369 137
Width: 1000
GlyphClass: 2
Flags: W
LayerCount: 2
Fore
SplineSet
385 753 m 1,0,-1
 403 270 l 1,1,-1
 259 48 l 1,2,-1
 436 45 l 1,3,-1
 526 270 l 1,4,-1
 508 720 l 1,5,-1
 385 753 l 1,0,-1
283 645 m 1,6,-1
 286 516 l 1,7,-1
 694 450 l 1,8,-1
 670 630 l 1,9,-1
 283 645 l 1,6,-1
115 636 m 1,10,-1
 103 198 l 1,11,-1
 193 282 l 1,12,-1
 256 195 l 1,13,-1
 76 36 l 1,14,-1
 25 750 l 1,15,-1
 115 636 l 1,10,-1
EndSplineSet
EndChar

StartChar: uni3052
Encoding: 12370 12370 138
Width: 1000
GlyphClass: 2
Flags: W
LayerCount: 2
Fore
SplineSet
804 696 m 1,0,-1
 825 588 l 1,1,-1
 904 648 l 1,2,-1
 884 726 l 1,3,-1
 804 696 l 1,0,-1
690 780 m 1,4,-1
 699 684 l 1,5,-1
 771 645 l 1,6,-1
 765 780 l 1,7,-1
 690 780 l 1,4,-1
408 741 m 1,8,-1
 372 252 l 1,9,-1
 267 144 l 1,10,-1
 402 87 l 1,11,-1
 525 723 l 1,12,-1
 408 741 l 1,8,-1
298 645 m 1,13,-1
 292 483 l 1,14,-1
 625 528 l 1,15,-1
 630 672 l 1,16,-1
 298 645 l 1,13,-1
103 714 m 1,17,-1
 121 183 l 1,18,-1
 148 258 l 1,19,-1
 217 210 l 1,20,-1
 64 60 l 1,21,-1
 0 699 l 1,22,-1
 103 714 l 1,17,-1
EndSplineSet
EndChar

StartChar: uni3053
Encoding: 12371 12371 139
Width: 1000
GlyphClass: 2
Flags: W
LayerCount: 2
Fore
SplineSet
151 309 m 1,0,-1
 250 183 l 1,1,-1
 685 180 l 1,2,-1
 703 57 l 1,3,-1
 193 45 l 1,4,-1
 25 231 l 1,5,-1
 151 309 l 1,0,-1
112 723 m 1,6,-1
 133 561 l 1,7,-1
 694 609 l 1,8,-1
 613 543 l 1,9,-1
 754 516 l 1,10,-1
 889 735 l 1,11,-1
 112 723 l 1,6,-1
EndSplineSet
EndChar

StartChar: uni3054
Encoding: 12372 12372 140
Width: 1000
GlyphClass: 2
Flags: W
LayerCount: 2
Fore
SplineSet
919 642 m 1,0,-1
 889 474 l 1,1,-1
 1000 495 l 1,2,-1
 958 639 l 1,3,-1
 919 642 l 1,0,-1
832 690 m 1,4,-1
 793 549 l 1,5,-1
 862 516 l 1,6,-1
 904 702 l 1,7,-1
 832 690 l 1,4,-1
127 345 m 1,8,-1
 274 243 l 1,9,-1
 658 228 l 1,10,-1
 661 60 l 1,11,-1
 256 75 l 1,12,-1
 88 150 l 1,13,-1
 127 345 l 1,8,-1
130 738 m 1,14,-1
 118 612 l 1,15,-1
 661 627 l 1,16,-1
 532 552 l 1,17,-1
 697 504 l 1,18,-1
 787 714 l 1,19,-1
 130 738 l 1,14,-1
EndSplineSet
EndChar

StartChar: uni3055
Encoding: 12373 12373 141
Width: 1000
GlyphClass: 2
Flags: W
LayerCount: 2
Fore
SplineSet
241 750 m 1,0,-1
 373 276 l 1,1,-1
 178 315 l 1,2,-1
 49 285 l 1,3,-1
 124 111 l 1,4,-1
 538 0 l 1,5,-1
 520 105 l 1,6,-1
 253 195 l 1,7,-1
 622 234 l 1,8,-1
 445 810 l 1,9,-1
 241 750 l 1,0,-1
154 564 m 1,10,-1
 202 414 l 1,11,-1
 703 546 l 1,12,-1
 676 705 l 1,13,-1
 154 564 l 1,10,-1
EndSplineSet
EndChar

StartChar: uni3056
Encoding: 12374 12374 142
Width: 1000
GlyphClass: 2
Flags: W
LayerCount: 2
Fore
SplineSet
823 681 m 1,0,-1
 769 567 l 1,1,-1
 865 561 l 1,2,-1
 823 681 l 1,0,-1
712 741 m 1,3,-1
 706 603 l 1,4,-1
 808 756 l 1,5,-1
 712 741 l 1,3,-1
49 387 m 1,6,-1
 109 162 l 1,7,-1
 394 117 l 1,8,-1
 382 45 l 1,9,-1
 28 45 l 1,10,-1
 49 387 l 1,6,-1
277 735 m 1,11,-1
 349 315 l 1,12,-1
 211 333 l 1,13,-1
 217 180 l 1,14,-1
 517 189 l 1,15,-1
 388 729 l 1,16,-1
 277 735 l 1,11,-1
109 624 m 1,17,-1
 211 426 l 1,18,-1
 637 552 l 1,19,-1
 631 705 l 1,20,-1
 109 624 l 1,17,-1
EndSplineSet
EndChar

StartChar: uni3057
Encoding: 12375 12375 143
Width: 1000
GlyphClass: 2
Flags: W
LayerCount: 2
Fore
SplineSet
121 756 m 1,0,-1
 103 156 l 1,1,-1
 322 0 l 1,2,-1
 628 54 l 1,3,-1
 796 234 l 1,4,-1
 619 360 l 1,5,-1
 490 255 l 1,6,-1
 307 186 l 1,7,-1
 373 453 l 1,8,-1
 268 702 l 1,9,-1
 121 756 l 1,0,-1
EndSplineSet
EndChar

StartChar: uni3058
Encoding: 12376 12376 144
Width: 1000
GlyphClass: 2
Flags: W
LayerCount: 2
Fore
SplineSet
604 699 m 1,0,-1
 544 447 l 1,1,-1
 649 441 l 1,2,-1
 604 699 l 1,0,-1
430 723 m 1,3,-1
 466 471 l 1,4,-1
 568 723 l 1,5,-1
 430 723 l 1,3,-1
106 666 m 1,6,-1
 88 264 l 1,7,-1
 316 72 l 1,8,-1
 619 159 l 1,9,-1
 580 348 l 1,10,-1
 355 216 l 1,11,-1
 244 693 l 1,12,-1
 106 666 l 1,6,-1
EndSplineSet
EndChar

StartChar: uni3059
Encoding: 12377 12377 145
Width: 1000
GlyphClass: 2
Flags: W
LayerCount: 2
Fore
SplineSet
385 759 m 1,0,-1
 307 159 l 1,1,-1
 202 273 l 1,2,-1
 304 360 l 1,3,-1
 409 306 l 1,4,-1
 310 93 l 1,5,-1
 148 141 l 1,6,-1
 118 78 l 1,7,-1
 451 0 l 1,8,-1
 553 330 l 1,9,-1
 283 435 l 1,10,-1
 106 393 l 1,11,-1
 202 183 l 1,12,-1
 316 120 l 1,13,-1
 469 753 l 1,14,-1
 385 759 l 1,0,-1
109 705 m 1,15,-1
 112 465 l 1,16,-1
 754 483 l 1,17,-1
 817 705 l 1,18,-1
 124 684 l 1,19,-1
 109 705 l 1,15,-1
EndSplineSet
EndChar

StartChar: uni305A
Encoding: 12378 12378 146
Width: 1000
GlyphClass: 2
Flags: W
LayerCount: 2
Fore
SplineSet
724 732 m 1,0,-1
 796 525 l 1,1,-1
 769 732 l 1,2,-1
 724 732 l 1,0,-1
682 717 m 1,3,-1
 700 498 l 1,4,-1
 754 504 l 1,5,-1
 682 717 l 1,3,-1
313 753 m 1,6,-1
 268 285 l 1,7,-1
 121 405 l 1,8,-1
 325 486 l 1,9,-1
 304 225 l 1,10,-1
 163 189 l 1,11,-1
 184 45 l 1,12,-1
 445 87 l 1,13,-1
 409 540 l 1,14,-1
 118 552 l 1,15,-1
 46 444 l 1,16,-1
 91 234 l 1,17,-1
 283 246 l 1,18,-1
 511 726 l 1,19,-1
 313 753 l 1,6,-1
121 711 m 1,20,-1
 97 600 l 1,21,-1
 667 591 l 1,22,-1
 748 684 l 1,23,-1
 121 711 l 1,20,-1
EndSplineSet
EndChar

StartChar: uni305B
Encoding: 12379 12379 147
Width: 1000
GlyphClass: 2
Flags: W
LayerCount: 2
Fore
SplineSet
139 789 m 1,0,-1
 109 135 l 1,1,-1
 682 15 l 1,2,-1
 874 111 l 1,3,-1
 673 150 l 1,4,-1
 616 120 l 1,5,-1
 217 210 l 1,6,-1
 226 780 l 1,7,-1
 139 789 l 1,0,-1
547 774 m 1,8,-1
 577 336 l 1,9,-1
 463 393 l 1,10,-1
 448 300 l 1,11,-1
 730 240 l 1,12,-1
 634 804 l 1,13,-1
 547 774 l 1,8,-1
46 660 m 1,14,-1
 76 519 l 1,15,-1
 904 606 l 1,16,-1
 868 738 l 1,17,-1
 46 660 l 1,14,-1
EndSplineSet
EndChar

StartChar: uni305C
Encoding: 12380 12380 148
Width: 1000
GlyphClass: 2
Flags: W
LayerCount: 2
Fore
SplineSet
860 777 m 1,0,-1
 833 729 l 1,1,-1
 890 687 l 1,2,-1
 860 777 l 1,0,-1
746 786 m 1,3,-1
 758 672 l 1,4,-1
 809 765 l 1,5,-1
 746 786 l 1,3,-1
169 717 m 1,6,-1
 184 147 l 1,7,-1
 781 105 l 1,8,-1
 821 177 l 1,9,-1
 821 273 l 1,10,-1
 731 177 l 1,11,-1
 275 219 l 1,12,-1
 248 717 l 1,13,-1
 169 717 l 1,6,-1
544 744 m 1,14,-1
 586 483 l 1,15,-1
 556 486 l 1,16,-1
 538 453 l 1,17,-1
 679 393 l 1,18,-1
 658 717 l 1,19,-1
 544 744 l 1,14,-1
94 642 m 1,20,-1
 103 516 l 1,21,-1
 838 585 l 1,22,-1
 817 678 l 1,23,-1
 94 642 l 1,20,-1
EndSplineSet
EndChar

StartChar: uni305D
Encoding: 12381 12381 149
Width: 1000
GlyphClass: 2
Flags: W
LayerCount: 2
Fore
SplineSet
194 738 m 1,0,-1
 182 540 l 1,1,-1
 497 606 l 1,2,-1
 119 408 l 1,3,-1
 152 291 l 1,4,-1
 476 369 l 1,5,-1
 326 210 l 1,6,-1
 212 117 l 1,7,-1
 689 42 l 1,8,-1
 857 222 l 1,9,-1
 683 234 l 1,10,-1
 545 135 l 1,11,-1
 416 135 l 1,12,-1
 605 462 l 1,13,-1
 296 393 l 1,14,-1
 662 639 l 1,15,-1
 671 738 l 1,16,-1
 194 738 l 1,0,-1
EndSplineSet
EndChar

StartChar: uni305E
Encoding: 12382 12382 150
Width: 1000
GlyphClass: 2
Flags: W
LayerCount: 2
Fore
SplineSet
803 729 m 1,0,-1
 803 651 l 1,1,-1
 917 609 l 1,2,-1
 917 708 l 1,3,-1
 803 729 l 1,0,-1
629 780 m 1,4,-1
 629 687 l 1,5,-1
 749 648 l 1,6,-1
 749 738 l 1,7,-1
 629 780 l 1,4,-1
191 741 m 1,8,-1
 116 522 l 1,9,-1
 467 579 l 1,10,-1
 68 366 l 1,11,-1
 83 264 l 1,12,-1
 476 372 l 1,13,-1
 242 156 l 1,14,-1
 437 75 l 1,15,-1
 767 123 l 1,16,-1
 773 294 l 1,17,-1
 656 306 l 1,18,-1
 626 192 l 1,19,-1
 404 177 l 1,20,-1
 653 477 l 1,21,-1
 242 390 l 1,22,-1
 716 594 l 1,23,-1
 530 753 l 1,24,-1
 191 741 l 1,8,-1
EndSplineSet
EndChar

StartChar: uni305F
Encoding: 12383 12383 151
Width: 1000
GlyphClass: 2
Flags: W
LayerCount: 2
Fore
SplineSet
404 201 m 1,0,-1
 344 105 l 1,1,-1
 518 48 l 1,2,-1
 740 33 l 1,3,-1
 719 153 l 1,4,-1
 545 156 l 1,5,-1
 404 201 l 1,0,-1
377 462 m 1,6,-1
 383 396 l 1,7,-1
 632 432 l 1,8,-1
 572 348 l 1,9,-1
 689 315 l 1,10,-1
 752 483 l 1,11,-1
 377 462 l 1,6,-1
191 720 m 1,12,-1
 197 213 l 1,13,-1
 98 114 l 1,14,-1
 221 39 l 1,15,-1
 320 165 l 1,16,-1
 326 771 l 1,17,-1
 191 720 l 1,12,-1
74 651 m 1,18,-1
 89 528 l 1,19,-1
 806 549 l 1,20,-1
 776 636 l 1,21,-1
 74 651 l 1,18,-1
EndSplineSet
EndChar

StartChar: uni3060
Encoding: 12384 12384 152
Width: 1000
GlyphClass: 2
Flags: W
LayerCount: 2
Fore
SplineSet
866 699 m 1,0,-1
 824 582 l 1,1,-1
 872 582 l 1,2,-1
 866 699 l 1,0,-1
770 753 m 1,3,-1
 779 594 l 1,4,-1
 833 723 l 1,5,-1
 770 753 l 1,3,-1
374 252 m 1,6,-1
 326 171 l 1,7,-1
 455 102 l 1,8,-1
 665 99 l 1,9,-1
 668 189 l 1,10,-1
 473 180 l 1,11,-1
 374 252 l 1,6,-1
389 471 m 1,12,-1
 395 402 l 1,13,-1
 617 420 l 1,14,-1
 566 345 l 1,15,-1
 662 312 l 1,16,-1
 725 474 l 1,17,-1
 389 471 l 1,12,-1
185 729 m 1,18,-1
 179 327 l 1,19,-1
 113 174 l 1,20,-1
 230 120 l 1,21,-1
 314 294 l 1,22,-1
 299 735 l 1,23,-1
 185 729 l 1,18,-1
98 657 m 1,24,-1
 113 516 l 1,25,-1
 746 576 l 1,26,-1
 725 705 l 1,27,-1
 98 657 l 1,24,-1
EndSplineSet
EndChar

StartChar: uni3061
Encoding: 12385 12385 153
Width: 1000
GlyphClass: 2
Flags: W
LayerCount: 2
Fore
SplineSet
221 762 m 1024,0,-1
248 759 m 1,1,-1
 179 309 l 1,2,-1
 308 351 l 1,3,-1
 449 306 l 1,4,-1
 500 132 l 1,5,-1
 359 78 l 1,6,-1
 197 132 l 1,7,-1
 185 69 l 1,8,-1
 392 0 l 1,9,-1
 644 69 l 1,10,-1
 626 309 l 1,11,-1
 524 462 l 1,12,-1
 299 414 l 1,13,-1
 416 765 l 1,14,-1
 248 759 l 1,1,-1
86 669 m 1,15,-1
 77 513 l 1,16,-1
 743 549 l 1,17,-1
 740 708 l 1,18,-1
 86 669 l 1,15,-1
EndSplineSet
EndChar

StartChar: uni3062
Encoding: 12386 12386 154
Width: 1000
GlyphClass: 2
Flags: W
LayerCount: 2
Fore
SplineSet
908 666 m 1,0,-1
 707 381 l 1,1,-1
 911 606 l 1,2,-1
 908 666 l 1,0,-1
689 687 m 1,3,-1
 683 429 l 1,4,-1
 872 693 l 1,5,-1
 689 687 l 1,3,-1
185 708 m 1,6,-1
 128 267 l 1,7,-1
 242 318 l 1,8,-1
 356 237 l 1,9,-1
 377 135 l 1,10,-1
 143 156 l 1,11,-1
 92 54 l 1,12,-1
 497 51 l 1,13,-1
 503 324 l 1,14,-1
 299 399 l 1,15,-1
 308 741 l 1,16,-1
 185 708 l 1,6,-1
53 594 m 1,17,-1
 74 405 l 1,18,-1
 644 456 l 1,19,-1
 596 666 l 1,20,-1
 53 594 l 1,17,-1
EndSplineSet
EndChar

StartChar: uni3063
Encoding: 12387 12387 155
Width: 1000
GlyphClass: 2
Flags: W
LayerCount: 2
Fore
SplineSet
50 297 m 1,0,-1
 77 174 l 1,1,-1
 284 228 l 1,2,-1
 329 126 l 1,3,-1
 128 108 l 1,4,-1
 131 57 l 1,5,-1
 392 78 l 1,6,-1
 404 225 l 1,7,-1
 284 354 l 1,8,-1
 50 297 l 1,0,-1
EndSplineSet
EndChar

StartChar: uni3064
Encoding: 12388 12388 156
Width: 1000
GlyphClass: 2
Flags: W
LayerCount: 2
Fore
SplineSet
47 555 m 1,0,-1
 74 423 l 1,1,-1
 383 504 l 1,2,-1
 557 375 l 1,3,-1
 539 237 l 1,4,-1
 197 150 l 1,5,-1
 254 36 l 1,6,-1
 761 177 l 1,7,-1
 734 405 l 1,8,-1
 647 564 l 1,9,-1
 515 687 l 1,10,-1
 47 555 l 1,0,-1
EndSplineSet
EndChar

StartChar: uni3065
Encoding: 12389 12389 157
Width: 1000
GlyphClass: 2
Flags: W
LayerCount: 2
Fore
SplineSet
800 759 m 1,0,-1
 896 582 l 1,1,-1
 947 675 l 1,2,-1
 905 717 l 1,3,-1
 800 759 l 1,0,-1
680 708 m 1,4,-1
 599 627 l 1,5,-1
 785 480 l 1,6,-1
 794 648 l 1,7,-1
 680 708 l 1,4,-1
50 666 m 1,8,-1
 86 462 l 1,9,-1
 404 555 l 1,10,-1
 527 339 l 1,11,-1
 425 240 l 1,12,-1
 227 279 l 1,13,-1
 284 144 l 1,14,-1
 647 132 l 1,15,-1
 671 468 l 1,16,-1
 509 639 l 1,17,-1
 50 666 l 1,8,-1
EndSplineSet
EndChar

StartChar: uni3066
Encoding: 12390 12390 158
Width: 1000
GlyphClass: 2
Flags: W
LayerCount: 2
Fore
SplineSet
194 669 m 1,0,-1
 170 534 l 1,1,-1
 638 537 l 1,2,-1
 416 282 l 1,3,-1
 539 54 l 1,4,-1
 839 117 l 1,5,-1
 674 306 l 1,6,-1
 827 678 l 1,7,-1
 194 669 l 1,0,-1
EndSplineSet
EndChar

StartChar: uni3067
Encoding: 12391 12391 159
Width: 1000
GlyphClass: 2
Flags: W
LayerCount: 2
Fore
SplineSet
860 681 m 1,0,-1
 851 510 l 1,1,-1
 932 633 l 1,2,-1
 860 681 l 1,0,-1
704 618 m 1,3,-1
 698 456 l 1,4,-1
 794 594 l 1,5,-1
 704 618 l 1,3,-1
92 654 m 1,6,-1
 104 531 l 1,7,-1
 503 531 l 1,8,-1
 272 285 l 1,9,-1
 413 96 l 1,10,-1
 641 132 l 1,11,-1
 437 309 l 1,12,-1
 659 672 l 1,13,-1
 92 654 l 1,6,-1
EndSplineSet
EndChar

StartChar: uni3068
Encoding: 12392 12392 160
Width: 1000
GlyphClass: 2
Flags: W
LayerCount: 2
Fore
SplineSet
686 702 m 1,0,-1
 101 285 l 1,1,-1
 140 132 l 1,2,-1
 497 36 l 1,3,-1
 824 54 l 1,4,-1
 791 192 l 1,5,-1
 419 153 l 1,6,-1
 254 219 l 1,7,-1
 779 651 l 1,8,-1
 686 702 l 1,0,-1
302 735 m 1,9,-1
 65 615 l 1,10,-1
 452 306 l 1,11,-1
 563 498 l 1,12,-1
 302 735 l 1,9,-1
EndSplineSet
EndChar

StartChar: uni3069
Encoding: 12393 12393 161
Width: 1000
GlyphClass: 2
Flags: W
LayerCount: 2
Fore
SplineSet
689 489 m 1,0,-1
 653 405 l 1,1,-1
 857 417 l 1,2,-1
 845 510 l 1,3,-1
 689 489 l 1,0,-1
683 711 m 1,4,-1
 668 645 l 1,5,-1
 773 555 l 1,6,-1
 839 645 l 1,7,-1
 683 711 l 1,4,-1
530 699 m 1,8,-1
 149 342 l 1,9,-1
 104 207 l 1,10,-1
 506 63 l 1,11,-1
 728 111 l 1,12,-1
 689 168 l 1,13,-1
 284 243 l 1,14,-1
 611 609 l 1,15,-1
 530 699 l 1,8,-1
212 690 m 1,16,-1
 56 525 l 1,17,-1
 443 294 l 1,18,-1
 542 447 l 1,19,-1
 212 690 l 1,16,-1
EndSplineSet
EndChar

StartChar: uni306A
Encoding: 12394 12394 162
Width: 1000
GlyphClass: 2
Flags: W
LayerCount: 2
Fore
SplineSet
662 723 m 1,0,-1
 590 696 l 1,1,-1
 650 552 l 1,2,-1
 764 621 l 1,3,-1
 662 723 l 1,0,-1
491 555 m 1,4,-1
 515 129 l 1,5,-1
 401 108 l 1,6,-1
 326 231 l 1,7,-1
 416 309 l 1,8,-1
 644 165 l 1,9,-1
 740 273 l 1,10,-1
 410 405 l 1,11,-1
 224 252 l 1,12,-1
 284 102 l 1,13,-1
 392 57 l 1,14,-1
 569 39 l 1,15,-1
 581 546 l 1,16,-1
 491 555 l 1,4,-1
44 684 m 1,17,-1
 56 579 l 1,18,-1
 251 636 l 1,19,-1
 50 342 l 1,20,-1
 194 306 l 1,21,-1
 404 639 l 1,22,-1
 539 645 l 1,23,-1
 509 747 l 1,24,-1
 398 711 l 1,25,-1
 410 780 l 1,26,-1
 245 783 l 1,27,-1
 269 711 l 1,28,-1
 44 684 l 1,17,-1
EndSplineSet
EndChar

StartChar: uni306B
Encoding: 12395 12395 163
Width: 1000
GlyphClass: 2
Flags: W
LayerCount: 2
Fore
SplineSet
407 357 m 1,0,-1
 356 276 l 1,1,-1
 737 120 l 1,2,-1
 830 219 l 1,3,-1
 407 357 l 1,0,-1
485 699 m 1,4,-1
 452 588 l 1,5,-1
 761 606 l 1,6,-1
 590 462 l 1,7,-1
 743 423 l 1,8,-1
 905 705 l 1,9,-1
 485 699 l 1,4,-1
158 723 m 1,10,-1
 71 138 l 1,11,-1
 257 60 l 1,12,-1
 332 126 l 1,13,-1
 278 273 l 1,14,-1
 137 204 l 1,15,-1
 263 708 l 1,16,-1
 158 723 l 1,10,-1
EndSplineSet
EndChar

StartChar: uni306C
Encoding: 12396 12396 164
Width: 1000
GlyphClass: 2
Flags: W
LayerCount: 2
Fore
SplineSet
389 606 m 1,0,-1
 149 186 l 1,1,-1
 92 435 l 1,2,-1
 314 525 l 1,3,-1
 551 282 l 1,4,-1
 488 213 l 1,5,-1
 410 243 l 1,6,-1
 626 432 l 1,7,-1
 560 495 l 1,8,-1
 365 318 l 1,9,-1
 440 105 l 1,10,-1
 674 231 l 1,11,-1
 299 621 l 1,12,-1
 0 531 l 1,13,-1
 95 99 l 1,14,-1
 476 561 l 1,15,-1
 389 606 l 1,0,-1
107 615 m 1,16,-1
 263 63 l 1,17,-1
 410 114 l 1,18,-1
 257 636 l 1,19,-1
 107 615 l 1,16,-1
EndSplineSet
EndChar

StartChar: uni306D
Encoding: 12397 12397 165
Width: 1000
GlyphClass: 2
Flags: W
LayerCount: 2
Fore
SplineSet
80 480 m 1,0,-1
 377 576 l 1,1,-1
 131 117 l 1,2,-1
 683 654 l 1,3,-1
 704 84 l 1,4,-1
 485 204 l 1,5,-1
 872 261 l 1,6,-1
 857 381 l 1,7,-1
 425 279 l 1,8,-1
 368 183 l 1,9,-1
 749 0 l 1,10,-1
 728 753 l 1,11,-1
 353 378 l 1,12,-1
 407 681 l 1,13,-1
 80 480 l 1,0,-1
176 672 m 1,14,-1
 206 75 l 1,15,-1
 275 78 l 1,16,-1
 269 696 l 1,17,-1
 176 672 l 1,14,-1
EndSplineSet
EndChar

StartChar: uni306E
Encoding: 12398 12398 166
Width: 1000
GlyphClass: 2
Flags: W
LayerCount: 2
Fore
SplineSet
347 585 m 1,0,-1
 160 442 l 1,1,-1
 292 262 l 1,2,-1
 347 585 l 1,0,-1
485 567 m 1,3,-1
 332 135 l 1,4,-1
 56 387 l 1,5,-1
 227 717 l 1,6,-1
 779 735 l 1,7,-1
 848 507 l 1,8,-1
 809 108 l 1,9,-1
 587 120 l 1,10,-1
 683 543 l 1,11,-1
 485 567 l 1,3,-1
EndSplineSet
EndChar

StartChar: uni306F
Encoding: 12399 12399 167
Width: 1000
GlyphClass: 2
Flags: W
LayerCount: 2
Fore
SplineSet
619 766 m 1,0,-1
 574 122 l 1,1,-1
 469 250 l 1,2,-1
 721 290 l 1,3,-1
 664 86 l 1,4,-1
 787 80 l 1,5,-1
 847 376 l 1,6,-1
 361 328 l 1,7,-1
 610 40 l 1,8,-1
 712 802 l 1,9,-1
 619 766 l 1,0,-1
487 646 m 1,10,-1
 472 500 l 1,11,-1
 856 506 l 1,12,-1
 880 668 l 1,13,-1
 487 646 l 1,10,-1
103 730 m 1,14,-1
 64 166 l 1,15,-1
 217 92 l 1,16,-1
 301 194 l 1,17,-1
 145 188 l 1,18,-1
 223 736 l 1,19,-1
 103 730 l 1,14,-1
EndSplineSet
EndChar

StartChar: uni3070
Encoding: 12400 12400 168
Width: 1000
GlyphClass: 2
Flags: W
LayerCount: 2
Fore
SplineSet
835 802 m 1,0,-1
 877 622 l 1,1,-1
 982 664 l 1,2,-1
 907 812 l 1,3,-1
 835 802 l 1,0,-1
700 838 m 1,4,-1
 574 770 l 1,5,-1
 601 676 l 1,6,-1
 781 788 l 1,7,-1
 700 838 l 1,4,-1
448 700 m 1,8,-1
 517 190 l 1,9,-1
 427 244 l 1,10,-1
 679 350 l 1,11,-1
 622 134 l 1,12,-1
 766 104 l 1,13,-1
 844 478 l 1,14,-1
 322 284 l 1,15,-1
 559 130 l 1,16,-1
 526 724 l 1,17,-1
 448 700 l 1,8,-1
340 602 m 1,18,-1
 325 424 l 1,19,-1
 856 542 l 1,20,-1
 826 698 l 1,21,-1
 340 602 l 1,18,-1
85 704 m 1,22,-1
 61 62 l 1,23,-1
 271 166 l 1,24,-1
 121 164 l 1,25,-1
 196 682 l 1,26,-1
 85 704 l 1,22,-1
EndSplineSet
EndChar

StartChar: uni3071
Encoding: 12401 12401 169
Width: 1000
GlyphClass: 2
Flags: W
LayerCount: 2
Fore
SplineSet
787 692 m 0,0,1
 812 713 812 713 868 694 c 0,2,3
 878 691 878 691 862 680 c 0,4,5
 852 674 852 674 844 674 c 0,6,7
 794 672 794 672 784 683 c 0,8,9
 781 687 781 687 787 692 c 0,0,1
844 740 m 0,10,11
 824 738 824 738 812.5 737 c 128,-1,12
 801 736 801 736 783 731.5 c 128,-1,13
 765 727 765 727 755 721.5 c 128,-1,14
 745 716 745 716 737.5 705 c 128,-1,15
 730 694 730 694 730 680 c 0,16,17
 730 624 730 624 844 634 c 0,18,19
 873 636 873 636 893 652.5 c 128,-1,20
 913 669 913 669 913 694 c 0,21,22
 913 717 913 717 891.5 729.5 c 128,-1,23
 870 742 870 742 844 740 c 0,10,11
493 662 m 1,24,-1
 478 112 l 1,25,-1
 385 230 l 1,26,-1
 637 322 l 1,27,-1
 568 34 l 1,28,-1
 715 392 l 1,29,-1
 298 284 l 1,30,-1
 499 52 l 1,31,-1
 541 656 l 1,32,-1
 493 662 l 1,24,-1
370 568 m 1,33,-1
 379 392 l 1,34,-1
 736 482 l 1,35,-1
 715 548 l 1,36,-1
 370 568 l 1,33,-1
136 730 m 1,37,-1
 61 82 l 1,38,-1
 286 208 l 1,39,-1
 148 212 l 1,40,-1
 202 716 l 1,41,-1
 136 730 l 1,37,-1
EndSplineSet
EndChar

StartChar: uni3072
Encoding: 12402 12402 170
Width: 1000
GlyphClass: 2
Flags: W
LayerCount: 2
Fore
SplineSet
88 698 m 1,0,-1
 55 454 l 1,1,-1
 304 578 l 1,2,-1
 157 68 l 1,3,-1
 526 44 l 1,4,-1
 568 556 l 1,5,-1
 766 422 l 1,6,-1
 787 620 l 1,7,-1
 487 766 l 1,8,-1
 406 140 l 1,9,-1
 286 160 l 1,10,-1
 406 728 l 1,11,-1
 88 698 l 1,0,-1
EndSplineSet
EndChar

StartChar: uni3073
Encoding: 12403 12403 171
Width: 1000
GlyphClass: 2
Flags: W
LayerCount: 2
Fore
SplineSet
862 746 m 1,0,-1
 841 694 l 1,1,-1
 895 646 l 1,2,-1
 862 746 l 1,0,-1
784 772 m 1,3,-1
 721 754 l 1,4,-1
 787 638 l 1,5,-1
 784 772 l 1,3,-1
91 620 m 1,6,-1
 103 416 l 1,7,-1
 358 512 l 1,8,-1
 205 122 l 1,9,-1
 466 94 l 1,10,-1
 526 524 l 1,11,-1
 655 412 l 1,12,-1
 757 632 l 1,13,-1
 541 700 l 1,14,-1
 424 178 l 1,15,-1
 319 194 l 1,16,-1
 442 662 l 1,17,-1
 91 620 l 1,6,-1
EndSplineSet
EndChar

StartChar: uni3074
Encoding: 12404 12404 172
Width: 1000
GlyphClass: 2
Flags: W
LayerCount: 2
Fore
SplineSet
784 670 m 0,0,1
 801 669 801 669 812.5 656 c 128,-1,2
 824 643 824 643 823 626 c 0,3,4
 822 608 822 608 810 595.5 c 128,-1,5
 798 583 798 583 781 584 c 0,6,7
 766 585 766 585 758 598 c 128,-1,8
 750 611 750 611 751 628 c 128,-1,9
 752 645 752 645 760.5 658 c 128,-1,10
 769 671 769 671 784 670 c 0,0,1
796 716 m 0,11,12
 751 713 751 713 721 680 c 128,-1,13
 691 647 691 647 691 602 c 0,14,15
 691 565 691 565 723 543.5 c 128,-1,16
 755 522 755 522 796 524 c 0,17,18
 828 526 828 526 846.5 552.5 c 128,-1,19
 865 579 865 579 865 614 c 0,20,21
 865 655 865 655 847 686.5 c 128,-1,22
 829 718 829 718 796 716 c 0,11,12
100 632 m 1,23,-1
 124 440 l 1,24,-1
 274 554 l 1,25,-1
 205 152 l 1,26,-1
 457 112 l 1,27,-1
 478 562 l 1,28,-1
 595 470 l 1,29,-1
 607 622 l 1,30,-1
 415 680 l 1,31,-1
 391 206 l 1,32,-1
 277 212 l 1,33,-1
 331 700 l 1,34,-1
 100 632 l 1,23,-1
EndSplineSet
EndChar

StartChar: uni3075
Encoding: 12405 12405 173
Width: 1000
GlyphClass: 2
Flags: W
LayerCount: 2
Fore
SplineSet
580 304 m 1,0,-1
 613 64 l 1,1,-1
 766 98 l 1,2,-1
 580 304 l 1,0,-1
34 296 m 1,3,-1
 0 158 l 1,4,-1
 121 94 l 1,5,-1
 136 416 l 1,6,-1
 34 296 l 1,3,-1
319 368 m 1,7,-1
 199 256 l 1,8,-1
 385 166 l 1,9,-1
 223 62 l 1,10,-1
 493 86 l 1,11,-1
 493 242 l 1,12,-1
 319 368 l 1,7,-1
301 686 m 1,13,-1
 196 542 l 1,14,-1
 361 472 l 1,15,-1
 481 628 l 1,16,-1
 301 686 l 1,13,-1
EndSplineSet
EndChar

StartChar: uni3076
Encoding: 12406 12406 174
Width: 1000
GlyphClass: 2
Flags: W
LayerCount: 2
Fore
SplineSet
766 724 m 1,0,-1
 766 520 l 1,1,-1
 895 520 l 1,2,-1
 895 722 l 1,3,-1
 766 724 l 1,0,-1
499 722 m 1,4,-1
 499 526 l 1,5,-1
 676 526 l 1,6,-1
 667 722 l 1,7,-1
 499 722 l 1,4,-1
457 286 m 1,8,-1
 463 124 l 1,9,-1
 580 124 l 1,10,-1
 574 296 l 1,11,-1
 457 286 l 1,8,-1
19 268 m 1,12,-1
 22 134 l 1,13,-1
 106 118 l 1,14,-1
 115 262 l 1,15,-1
 19 268 l 1,12,-1
166 326 m 1,16,-1
 160 208 l 1,17,-1
 277 266 l 1,18,-1
 286 112 l 1,19,-1
 178 100 l 1,20,-1
 184 26 l 1,21,-1
 415 40 l 1,22,-1
 385 356 l 1,23,-1
 166 326 l 1,16,-1
169 656 m 1,24,-1
 160 482 l 1,25,-1
 376 490 l 1,26,-1
 373 640 l 1,27,-1
 169 656 l 1,24,-1
EndSplineSet
EndChar

StartChar: uni3077
Encoding: 12407 12407 175
Width: 1000
GlyphClass: 2
Flags: W
LayerCount: 2
Fore
SplineSet
706 662 m 0,0,1
 753 661 753 661 784.5 623.5 c 128,-1,2
 816 586 816 586 817 536 c 0,3,4
 818 492 818 492 785.5 460.5 c 128,-1,5
 753 429 753 429 709 430 c 128,-1,6
 665 431 665 431 635 462 c 128,-1,7
 605 493 605 493 604 538 c 0,8,9
 603 588 603 588 632 625.5 c 128,-1,10
 661 663 661 663 706 662 c 0,0,1
724 730 m 0,11,12
 631 732 631 732 561.5 677.5 c 128,-1,13
 492 623 492 623 490 536 c 0,14,15
 488 458 488 458 556 412 c 128,-1,16
 624 366 624 366 715 364 c 0,17,18
 787 363 787 363 840.5 411.5 c 128,-1,19
 894 460 894 460 895 530 c 0,20,21
 897 609 897 609 848 669 c 128,-1,22
 799 729 799 729 724 730 c 0,11,12
469 320 m 1,23,-1
 466 200 l 1,24,-1
 451 116 l 1,25,-1
 556 170 l 1,26,-1
 577 272 l 1,27,-1
 565 320 l 1,28,-1
 469 320 l 1,23,-1
61 344 m 1,29,-1
 16 266 l 1,30,-1
 0 112 l 1,31,-1
 76 100 l 1,32,-1
 142 244 l 1,33,-1
 61 344 l 1,29,-1
154 418 m 1,34,-1
 124 352 l 1,35,-1
 232 334 l 1,36,-1
 244 298 l 1,37,-1
 247 236 l 1,38,-1
 232 182 l 1,39,-1
 154 106 l 1,40,-1
 139 76 l 1,41,-1
 181 76 l 1,42,-1
 226 76 l 1,43,-1
 289 124 l 1,44,-1
 322 166 l 1,45,-1
 385 242 l 1,46,-1
 388 308 l 1,47,-1
 370 350 l 1,48,-1
 337 376 l 1,49,-1
 277 404 l 1,50,-1
 154 418 l 1,34,-1
190 754 m 1,51,-1
 136 706 l 1,52,-1
 127 646 l 1,53,-1
 148 610 l 1,54,-1
 229 590 l 1,55,-1
 244 544 l 1,56,-1
 205 496 l 1,57,-1
 319 494 l 1,58,-1
 370 610 l 1,59,-1
 364 682 l 1,60,-1
 307 710 l 1,61,-1
 229 754 l 1,62,-1
 190 754 l 1,51,-1
EndSplineSet
EndChar

StartChar: uni3078
Encoding: 12408 12408 176
Width: 1000
GlyphClass: 2
Flags: W
LayerCount: 2
Fore
SplineSet
298 250 m 1,0,-1
 262 176 l 1,1,-1
 367 166 l 1,2,-1
 307 124 l 1,3,-1
 412 200 l 1,4,-1
 331 200 l 1,5,-1
 334 236 l 1,6,-1
 298 250 l 1,0,-1
295 310 m 1,7,-1
 301 278 l 1,8,-1
 358 278 l 1,9,-1
 349 320 l 1,10,-1
 295 310 l 1,7,-1
58 322 m 1,11,-1
 58 224 l 1,12,-1
 136 268 l 1,13,-1
 127 146 l 1,14,-1
 175 158 l 1,15,-1
 193 256 l 1,16,-1
 271 248 l 1,17,-1
 241 316 l 1,18,-1
 184 314 l 1,19,-1
 157 200 l 1,20,-1
 145 328 l 1,21,-1
 58 322 l 1,11,-1
145 598 m 1,22,-1
 100 418 l 1,23,-1
 295 500 l 1,24,-1
 535 142 l 1,25,-1
 667 242 l 1,26,-1
 370 598 l 1,27,-1
 145 598 l 1,22,-1
EndSplineSet
EndChar

StartChar: uni3079
Encoding: 12409 12409 177
Width: 1000
GlyphClass: 2
Flags: W
LayerCount: 2
Fore
SplineSet
295 170 m 1,0,-1
 253 104 l 1,1,-1
 352 112 l 1,2,-1
 268 62 l 1,3,-1
 415 130 l 1,4,-1
 319 140 l 1,5,-1
 325 182 l 1,6,-1
 295 170 l 1,0,-1
286 244 m 1,7,-1
 283 208 l 1,8,-1
 424 206 l 1,9,-1
 388 250 l 1,10,-1
 286 244 l 1,7,-1
34 238 m 1,11,-1
 34 170 l 1,12,-1
 100 206 l 1,13,-1
 88 40 l 1,14,-1
 166 40 l 1,15,-1
 172 190 l 1,16,-1
 229 190 l 1,17,-1
 217 262 l 1,18,-1
 154 256 l 1,19,-1
 136 70 l 1,20,-1
 112 250 l 1,21,-1
 34 238 l 1,11,-1
706 566 m 1,22,-1
 610 490 l 1,23,-1
 703 424 l 1,24,-1
 772 494 l 1,25,-1
 706 566 l 1,22,-1
562 682 m 1,26,-1
 445 604 l 1,27,-1
 556 518 l 1,28,-1
 631 598 l 1,29,-1
 562 682 l 1,26,-1
319 668 m 1,30,-1
 22 494 l 1,31,-1
 55 350 l 1,32,-1
 334 478 l 1,33,-1
 631 104 l 1,34,-1
 748 182 l 1,35,-1
 319 668 l 1,30,-1
EndSplineSet
EndChar

StartChar: uni307A
Encoding: 12410 12410 178
Width: 1000
GlyphClass: 2
Flags: W
LayerCount: 2
Fore
SplineSet
745 680 m 0,0,1
 820 670 820 670 823 628 c 0,2,3
 825 601 825 601 803 582.5 c 128,-1,4
 781 564 781 564 754 568 c 0,5,6
 722 573 722 573 701.5 595.5 c 128,-1,7
 681 618 681 618 679 650 c 0,8,9
 678 669 678 669 699 676.5 c 128,-1,10
 720 684 720 684 745 680 c 0,0,1
763 748 m 0,11,12
 704 749 704 749 659.5 718 c 128,-1,13
 615 687 615 687 613 634 c 0,14,15
 611 580 611 580 653.5 544.5 c 128,-1,16
 696 509 696 509 754 508 c 0,17,18
 804 507 804 507 839.5 543.5 c 128,-1,19
 875 580 875 580 877 632 c 0,20,21
 878 679 878 679 844 713.5 c 128,-1,22
 810 748 810 748 763 748 c 0,11,12
301 170 m 1,23,-1
 268 104 l 1,24,-1
 367 116 l 1,25,-1
 265 0 l 1,26,-1
 490 152 l 1,27,-1
 334 160 l 1,28,-1
 370 188 l 1,29,-1
 301 170 l 1,23,-1
301 278 m 1,30,-1
 295 212 l 1,31,-1
 427 236 l 1,32,-1
 397 274 l 1,33,-1
 301 278 l 1,30,-1
34 262 m 1,34,-1
 0 148 l 1,35,-1
 106 218 l 1,36,-1
 49 34 l 1,37,-1
 154 56 l 1,38,-1
 202 206 l 1,39,-1
 265 206 l 1,40,-1
 241 256 l 1,41,-1
 142 280 l 1,42,-1
 145 112 l 1,43,-1
 112 274 l 1,44,-1
 34 262 l 1,34,-1
34 572 m 1,45,-1
 97 358 l 1,46,-1
 397 542 l 1,47,-1
 760 94 l 1,48,-1
 868 242 l 1,49,-1
 391 748 l 1,50,-1
 34 572 l 1,45,-1
EndSplineSet
EndChar

StartChar: uni307B
Encoding: 12411 12411 179
Width: 1000
GlyphClass: 2
Flags: W
LayerCount: 2
Fore
SplineSet
418 729 m 1,0,-1
 466 117 l 1,1,-1
 334 213 l 1,2,-1
 586 273 l 1,3,-1
 550 102 l 1,4,-1
 643 84 l 1,5,-1
 667 264 l 1,6,-1
 610 312 l 1,7,-1
 277 240 l 1,8,-1
 490 51 l 1,9,-1
 469 720 l 1,10,-1
 418 729 l 1,0,-1
343 468 m 1,11,-1
 346 285 l 1,12,-1
 661 360 l 1,13,-1
 649 501 l 1,14,-1
 343 468 l 1,11,-1
325 669 m 1,15,-1
 340 507 l 1,16,-1
 652 585 l 1,17,-1
 643 666 l 1,18,-1
 325 669 l 1,15,-1
91 714 m 1,19,-1
 43 78 l 1,20,-1
 232 213 l 1,21,-1
 112 147 l 1,22,-1
 139 669 l 1,23,-1
 91 714 l 1,19,-1
EndSplineSet
EndChar

StartChar: uni307C
Encoding: 12412 12412 180
Width: 1000
GlyphClass: 2
Flags: W
LayerCount: 2
Fore
SplineSet
829 723 m 1,0,-1
 826 516 l 1,1,-1
 898 687 l 1,2,-1
 829 723 l 1,0,-1
694 726 m 1,3,-1
 691 513 l 1,4,-1
 751 684 l 1,5,-1
 694 726 l 1,3,-1
430 768 m 1,6,-1
 364 84 l 1,7,-1
 295 189 l 1,8,-1
 547 192 l 1,9,-1
 433 24 l 1,10,-1
 670 237 l 1,11,-1
 226 240 l 1,12,-1
 373 30 l 1,13,-1
 430 768 l 1,6,-1
256 474 m 1,14,-1
 220 318 l 1,15,-1
 646 444 l 1,16,-1
 256 474 l 1,14,-1
268 696 m 1,17,-1
 223 543 l 1,18,-1
 631 663 l 1,19,-1
 268 696 l 1,17,-1
52 666 m 1,20,-1
 40 81 l 1,21,-1
 202 210 l 1,22,-1
 91 195 l 1,23,-1
 52 666 l 1,20,-1
EndSplineSet
EndChar

StartChar: uni307D
Encoding: 12413 12413 181
Width: 1000
GlyphClass: 2
Flags: W
LayerCount: 2
Fore
SplineSet
859 720 m 0,0,1
 872 721 872 721 879 708 c 128,-1,2
 886 695 886 695 886 678 c 0,3,4
 886 631 886 631 859 627 c 0,5,6
 841 625 841 625 827.5 638 c 128,-1,7
 814 651 814 651 814 669 c 0,8,9
 814 689 814 689 826.5 703.5 c 128,-1,10
 839 718 839 718 859 720 c 0,0,1
862 759 m 0,11,12
 820 756 820 756 791 732.5 c 128,-1,13
 762 709 762 709 763 672 c 0,14,15
 764 634 764 634 796 609.5 c 128,-1,16
 828 585 828 585 868 588 c 0,17,18
 903 591 903 591 922.5 620 c 128,-1,19
 942 649 942 649 940 687 c 0,20,21
 939 718 939 718 916 739.5 c 128,-1,22
 893 761 893 761 862 759 c 0,11,12
433 753 m 1,23,-1
 451 147 l 1,24,-1
 346 147 l 1,25,-1
 343 237 l 1,26,-1
 565 246 l 1,27,-1
 568 60 l 1,28,-1
 682 72 l 1,29,-1
 655 309 l 1,30,-1
 259 306 l 1,31,-1
 271 66 l 1,32,-1
 523 69 l 1,33,-1
 523 747 l 1,34,-1
 433 753 l 1,23,-1
328 549 m 1,35,-1
 334 480 l 1,36,-1
 697 474 l 1,37,-1
 697 549 l 1,38,-1
 328 549 l 1,35,-1
322 690 m 1,39,-1
 328 627 l 1,40,-1
 700 627 l 1,41,-1
 700 678 l 1,42,-1
 322 690 l 1,39,-1
55 735 m 1,43,-1
 70 75 l 1,44,-1
 226 129 l 1,45,-1
 193 189 l 1,46,-1
 121 162 l 1,47,-1
 106 735 l 1,48,-1
 55 735 l 1,43,-1
EndSplineSet
EndChar

StartChar: uni307E
Encoding: 12414 12414 182
Width: 1000
GlyphClass: 2
Flags: W
LayerCount: 2
Fore
SplineSet
265 777 m 1,0,-1
 268 96 l 1,1,-1
 154 189 l 1,2,-1
 319 219 l 1,3,-1
 361 99 l 1,4,-1
 490 120 l 1,5,-1
 415 210 l 1,6,-1
 202 261 l 1,7,-1
 64 243 l 1,8,-1
 295 48 l 1,9,-1
 325 732 l 1,10,-1
 265 777 l 1,0,-1
133 423 m 1,11,-1
 115 288 l 1,12,-1
 517 225 l 1,13,-1
 610 354 l 1,14,-1
 133 423 l 1,11,-1
112 666 m 1,15,-1
 118 522 l 1,16,-1
 559 501 l 1,17,-1
 559 612 l 1,18,-1
 112 666 l 1,15,-1
EndSplineSet
EndChar

StartChar: uni307F
Encoding: 12415 12415 183
Width: 1000
GlyphClass: 2
Flags: W
LayerCount: 2
Fore
SplineSet
394 585 m 1,0,-1
 388 84 l 1,1,-1
 502 225 l 1,2,-1
 493 675 l 1,3,-1
 394 585 l 1,0,-1
97 708 m 1,4,-1
 28 504 l 1,5,-1
 274 555 l 1,6,-1
 163 111 l 1,7,-1
 37 267 l 1,8,-1
 577 336 l 1,9,-1
 631 429 l 1,10,-1
 -38 336 l 1,11,-1
 133 15 l 1,12,-1
 244 81 l 1,13,-1
 334 660 l 1,14,-1
 97 708 l 1,4,-1
EndSplineSet
EndChar

StartChar: uni3080
Encoding: 12416 12416 184
Width: 1000
GlyphClass: 2
Flags: W
LayerCount: 2
Fore
SplineSet
610 717 m 1,0,-1
 499 537 l 1,1,-1
 667 498 l 1,2,-1
 778 594 l 1,3,-1
 610 717 l 1,0,-1
127 726 m 1,4,-1
 157 117 l 1,5,-1
 82 111 l 1,6,-1
 76 240 l 1,7,-1
 220 234 l 1,8,-1
 226 39 l 1,9,-1
 778 48 l 1,10,-1
 784 435 l 1,11,-1
 616 405 l 1,12,-1
 622 132 l 1,13,-1
 358 132 l 1,14,-1
 259 330 l 1,15,-1
 -20 330 l 1,16,-1
 0 18 l 1,17,-1
 187 0 l 1,18,-1
 226 750 l 1,19,-1
 127 726 l 1,4,-1
82 642 m 1,20,-1
 79 492 l 1,21,-1
 355 531 l 1,22,-1
 331 678 l 1,23,-1
 82 642 l 1,20,-1
EndSplineSet
EndChar

StartChar: uni3081
Encoding: 12417 12417 185
Width: 1000
GlyphClass: 2
Flags: W
LayerCount: 2
Fore
SplineSet
505 768 m 1,0,-1
 445 363 l 1,1,-1
 136 261 l 1,2,-1
 103 519 l 1,3,-1
 733 585 l 1,4,-1
 541 225 l 1,5,-1
 694 93 l 1,6,-1
 841 702 l 1,7,-1
 0 582 l 1,8,-1
 34 186 l 1,9,-1
 508 291 l 1,10,-1
 658 759 l 1,11,-1
 505 768 l 1,0,-1
121 702 m 1,12,-1
 178 117 l 1,13,-1
 391 195 l 1,14,-1
 289 753 l 1,15,-1
 121 702 l 1,12,-1
EndSplineSet
EndChar

StartChar: uni3082
Encoding: 12418 12418 186
Width: 1000
GlyphClass: 2
Flags: W
LayerCount: 2
Fore
SplineSet
330 732 m 1,0,-1
 234 51 l 1,1,-1
 723 138 l 1,2,-1
 351 141 l 1,3,-1
 489 687 l 1,4,-1
 330 732 l 1,0,-1
82 441 m 1,5,-1
 68 256 l 1,6,-1
 598 272 l 1,7,-1
 662 426 l 1,8,-1
 82 441 l 1,5,-1
139 663 m 1,9,-1
 82 543 l 1,10,-1
 637 486 l 1,11,-1
 706 612 l 1,12,-1
 139 663 l 1,9,-1
EndSplineSet
EndChar

StartChar: uni3083
Encoding: 12419 12419 187
Width: 1000
GlyphClass: 2
Flags: W
LayerCount: 2
Fore
SplineSet
289 461 m 1,0,-1
 295 353 l 1,1,-1
 375 437 l 1,2,-1
 289 461 l 1,0,-1
97 432 m 1,3,-1
 180 75 l 1,4,-1
 280 95 l 1,5,-1
 193 446 l 1,6,-1
 97 432 l 1,3,-1
71 350 m 1,7,-1
 111 248 l 1,8,-1
 421 336 l 1,9,-1
 421 223 l 1,10,-1
 383 270 l 1,11,-1
 325 211 l 1,12,-1
 429 118 l 1,13,-1
 510 403 l 1,14,-1
 71 350 l 1,7,-1
EndSplineSet
EndChar

StartChar: uni3084
Encoding: 12420 12420 188
Width: 1000
GlyphClass: 2
Flags: W
LayerCount: 2
Fore
SplineSet
384 642 m 1,0,-1
 405 534 l 1,1,-1
 501 669 l 1,2,-1
 384 642 l 1,0,-1
129 669 m 1,3,-1
 222 111 l 1,4,-1
 345 138 l 1,5,-1
 243 627 l 1,6,-1
 129 669 l 1,3,-1
48 549 m 1,7,-1
 66 363 l 1,8,-1
 618 552 l 1,9,-1
 633 366 l 1,10,-1
 513 390 l 1,11,-1
 504 315 l 1,12,-1
 795 243 l 1,13,-1
 753 594 l 1,14,-1
 48 549 l 1,7,-1
EndSplineSet
EndChar

StartChar: uni3085
Encoding: 12421 12421 189
Width: 1000
GlyphClass: 2
Flags: W
LayerCount: 2
Fore
SplineSet
177 465 m 1,0,-1
 180 93 l 1,1,-1
 129 54 l 1,2,-1
 195 42 l 1,3,-1
 222 93 l 1,4,-1
 228 444 l 1,5,-1
 195 459 l 1,6,-1
 177 465 l 1,0,-1
51 411 m 1,7,-1
 51 177 l 1,8,-1
 246 312 l 1,9,-1
 246 171 l 1,10,-1
 159 186 l 1,11,-1
 186 132 l 1,12,-1
 336 138 l 1,13,-1
 321 417 l 1,14,-1
 105 267 l 1,15,-1
 114 414 l 1,16,-1
 51 411 l 1,7,-1
EndSplineSet
EndChar

StartChar: uni3086
Encoding: 12422 12422 190
Width: 1000
GlyphClass: 2
Flags: W
LayerCount: 2
Fore
SplineSet
369 693 m 1,0,-1
 438 63 l 1,1,-1
 369 57 l 1,2,-1
 495 30 l 1,3,-1
 510 63 l 1,4,-1
 477 705 l 1,5,-1
 369 693 l 1,0,-1
96 684 m 1,6,-1
 96 222 l 1,7,-1
 522 474 l 1,8,-1
 660 378 l 1,9,-1
 348 213 l 1,10,-1
 366 78 l 1,11,-1
 789 273 l 1,12,-1
 735 633 l 1,13,-1
 441 573 l 1,14,-1
 204 381 l 1,15,-1
 228 687 l 1,16,-1
 96 684 l 1,6,-1
EndSplineSet
EndChar

StartChar: uni3087
Encoding: 12423 12423 191
Width: 1000
GlyphClass: 2
Flags: W
LayerCount: 2
Fore
SplineSet
168 300 m 1,0,-1
 159 249 l 1,1,-1
 291 228 l 1,2,-1
 270 303 l 1,3,-1
 168 300 l 1,0,-1
129 360 m 1,4,-1
 129 81 l 1,5,-1
 72 90 l 1,6,-1
 78 132 l 1,7,-1
 225 54 l 1,8,-1
 246 120 l 1,9,-1
 30 189 l 1,10,-1
 36 60 l 1,11,-1
 168 60 l 1,12,-1
 198 357 l 1,13,-1
 129 360 l 1,4,-1
EndSplineSet
EndChar

StartChar: uni3088
Encoding: 12424 12424 192
Width: 1000
GlyphClass: 2
Flags: W
LayerCount: 2
Fore
SplineSet
483 648 m 1,0,-1
 483 522 l 1,1,-1
 780 495 l 1,2,-1
 756 645 l 1,3,-1
 483 648 l 1,0,-1
438 699 m 1,4,-1
 414 243 l 1,5,-1
 141 324 l 1,6,-1
 270 462 l 1,7,-1
 660 267 l 1,8,-1
 684 378 l 1,9,-1
 288 567 l 1,10,-1
 36 273 l 1,11,-1
 456 81 l 1,12,-1
 525 708 l 1,13,-1
 438 699 l 1,4,-1
EndSplineSet
EndChar

StartChar: uni3089
Encoding: 12425 12425 193
Width: 1000
GlyphClass: 2
Flags: W
LayerCount: 2
Fore
SplineSet
234 462 m 1,0,-1
 114 243 l 1,1,-1
 357 255 l 1,2,-1
 183 45 l 1,3,-1
 531 237 l 1,4,-1
 258 306 l 1,5,-1
 294 441 l 1,6,-1
 234 462 l 1,0,-1
327 693 m 1,7,-1
 264 534 l 1,8,-1
 483 540 l 1,9,-1
 411 438 l 1,10,-1
 636 573 l 1,11,-1
 327 693 l 1,7,-1
EndSplineSet
EndChar

StartChar: uni308A
Encoding: 12426 12426 194
Width: 1000
GlyphClass: 2
Flags: W
LayerCount: 2
Fore
SplineSet
189 708 m 1,0,-1
 117 312 l 1,1,-1
 504 519 l 1,2,-1
 372 204 l 1,3,-1
 177 177 l 1,4,-1
 252 69 l 1,5,-1
 534 129 l 1,6,-1
 657 672 l 1,7,-1
 216 441 l 1,8,-1
 264 690 l 1,9,-1
 189 708 l 1,0,-1
EndSplineSet
EndChar

StartChar: uni308B
Encoding: 12427 12427 195
Width: 1000
GlyphClass: 2
Flags: W
LayerCount: 2
Fore
SplineSet
159 729 m 1,0,-1
 114 465 l 1,1,-1
 531 570 l 1,2,-1
 345 315 l 1,3,-1
 546 333 l 1,4,-1
 528 51 l 1,5,-1
 402 84 l 1,6,-1
 405 165 l 1,7,-1
 657 117 l 1,8,-1
 672 207 l 1,9,-1
 315 246 l 1,10,-1
 255 69 l 1,11,-1
 606 -15 l 1,12,-1
 609 393 l 1,13,-1
 474 393 l 1,14,-1
 609 657 l 1,15,-1
 159 729 l 1,0,-1
EndSplineSet
EndChar

StartChar: uni308C
Encoding: 12428 12428 196
Width: 1000
GlyphClass: 2
Flags: W
LayerCount: 2
Fore
SplineSet
60 636 m 1,0,-1
 66 507 l 1,1,-1
 366 498 l 1,2,-1
 66 111 l 1,3,-1
 579 546 l 1,4,-1
 498 66 l 1,5,-1
 834 57 l 1,6,-1
 864 243 l 1,7,-1
 609 123 l 1,8,-1
 654 690 l 1,9,-1
 438 504 l 1,10,-1
 414 663 l 1,11,-1
 60 636 l 1,0,-1
156 726 m 1,12,-1
 150 75 l 1,13,-1
 285 75 l 1,14,-1
 258 735 l 1,15,-1
 156 726 l 1,12,-1
EndSplineSet
EndChar

StartChar: uni308D
Encoding: 12429 12429 197
Width: 1000
GlyphClass: 2
Flags: W
LayerCount: 2
Fore
SplineSet
885 348 m 1,0,-1
 846 306 l 1,1,-1
 924 309 l 1,2,-1
 819 195 l 1,3,-1
 972 315 l 1,4,-1
 903 327 l 1,5,-1
 921 342 l 1,6,-1
 885 348 l 1,0,-1
915 432 m 1,7,-1
 912 363 l 1,8,-1
 945 372 l 1,9,-1
 948 459 l 1,10,-1
 915 432 l 1,7,-1
663 399 m 1,11,-1
 648 339 l 1,12,-1
 696 342 l 1,13,-1
 693 198 l 1,14,-1
 774 213 l 1,15,-1
 774 360 l 1,16,-1
 834 354 l 1,17,-1
 828 426 l 1,18,-1
 747 426 l 1,19,-1
 753 303 l 1,20,-1
 720 411 l 1,21,-1
 663 399 l 1,11,-1
159 744 m 1,22,-1
 114 471 l 1,23,-1
 471 609 l 1,24,-1
 216 384 l 1,25,-1
 522 450 l 1,26,-1
 528 222 l 1,27,-1
 435 135 l 1,28,-1
 321 267 l 1,29,-1
 201 174 l 1,30,-1
 399 57 l 1,31,-1
 600 84 l 1,32,-1
 636 537 l 1,33,-1
 492 504 l 1,34,-1
 588 747 l 1,35,-1
 159 744 l 1,22,-1
EndSplineSet
EndChar

StartChar: uni308E
Encoding: 12430 12430 198
Width: 1000
GlyphClass: 2
Flags: W
LayerCount: 2
Fore
SplineSet
30 291 m 1,0,-1
 36 246 l 1,1,-1
 252 264 l 1,2,-1
 42 81 l 1,3,-1
 345 204 l 1,4,-1
 273 96 l 1,5,-1
 342 75 l 1,6,-1
 417 255 l 1,7,-1
 222 210 l 1,8,-1
 333 315 l 1,9,-1
 30 291 l 1,0,-1
66 399 m 1,10,-1
 111 66 l 1,11,-1
 195 66 l 1,12,-1
 135 369 l 1,13,-1
 66 399 l 1,10,-1
EndSplineSet
EndChar

StartChar: uni308F
Encoding: 12431 12431 199
Width: 1000
GlyphClass: 2
Flags: W
LayerCount: 2
Fore
SplineSet
78 651 m 1,0,-1
 60 483 l 1,1,-1
 411 540 l 1,2,-1
 54 102 l 1,3,-1
 582 453 l 1,4,-1
 582 219 l 1,5,-1
 417 216 l 1,6,-1
 420 84 l 1,7,-1
 717 108 l 1,8,-1
 696 588 l 1,9,-1
 351 378 l 1,10,-1
 483 654 l 1,11,-1
 78 651 l 1,0,-1
189 657 m 1,12,-1
 171 147 l 1,13,-1
 315 126 l 1,14,-1
 306 639 l 1,15,-1
 198 693 l 1,16,-1
 189 657 l 1,12,-1
EndSplineSet
EndChar

StartChar: uni3090
Encoding: 12432 12432 200
Width: 1000
GlyphClass: 2
Flags: W
LayerCount: 2
Fore
SplineSet
252 177 m 1,0,-1
 252 129 l 1,1,-1
 300 135 l 1,2,-1
 291 51 l 1,3,-1
 258 51 l 1,4,-1
 258 36 l 1,5,-1
 399 0 l 1,6,-1
 390 48 l 1,7,-1
 327 48 l 1,8,-1
 324 147 l 1,9,-1
 354 147 l 1,10,-1
 354 219 l 1,11,-1
 252 177 l 1,0,-1
30 201 m 1,12,-1
 69 33 l 1,13,-1
 120 144 l 1,14,-1
 150 18 l 1,15,-1
 207 177 l 1,16,-1
 165 90 l 1,17,-1
 105 195 l 1,18,-1
 75 120 l 1,19,-1
 30 201 l 1,12,-1
774 414 m 1,20,-1
 795 114 l 1,21,-1
 897 219 l 1,22,-1
 852 402 l 1,23,-1
 774 414 l 1,20,-1
585 471 m 1,24,-1
 579 114 l 1,25,-1
 753 225 l 1,26,-1
 642 201 l 1,27,-1
 666 405 l 1,28,-1
 585 471 l 1,24,-1
27 618 m 1,29,-1
 27 516 l 1,30,-1
 312 573 l 1,31,-1
 39 366 l 1,32,-1
 339 495 l 1,33,-1
 297 375 l 1,34,-1
 252 384 l 1,35,-1
 255 363 l 1,36,-1
 399 363 l 1,37,-1
 429 564 l 1,38,-1
 273 501 l 1,39,-1
 399 624 l 1,40,-1
 27 618 l 1,29,-1
57 708 m 1,41,-1
 87 357 l 1,42,-1
 222 387 l 1,43,-1
 171 702 l 1,44,-1
 57 708 l 1,41,-1
EndSplineSet
EndChar

StartChar: uni3091
Encoding: 12433 12433 201
Width: 1000
GlyphClass: 2
Flags: W
LayerCount: 2
Fore
SplineSet
201 258 m 1,0,-1
 183 129 l 1,1,-1
 309 129 l 1,2,-1
 306 180 l 1,3,-1
 225 156 l 1,4,-1
 291 213 l 1,5,-1
 234 207 l 1,6,-1
 312 279 l 1,7,-1
 201 258 l 1,0,-1
0 234 m 1,8,-1
 36 138 l 1,9,-1
 81 189 l 1,10,-1
 138 138 l 1,11,-1
 138 243 l 1,12,-1
 117 186 l 1,13,-1
 75 237 l 1,14,-1
 42 204 l 1,15,-1
 0 234 l 1,8,-1
522 414 m 1,16,-1
 498 270 l 1,17,-1
 780 351 l 1,18,-1
 519 108 l 1,19,-1
 699 210 l 1,20,-1
 738 114 l 1,21,-1
 903 120 l 1,22,-1
 873 285 l 1,23,-1
 741 210 l 1,24,-1
 834 378 l 1,25,-1
 522 414 l 1,16,-1
621 564 m 1,26,-1
 594 438 l 1,27,-1
 762 462 l 1,28,-1
 750 528 l 1,29,-1
 621 564 l 1,26,-1
24 702 m 1,30,-1
 24 621 l 1,31,-1
 234 678 l 1,32,-1
 15 519 l 1,33,-1
 303 639 l 1,34,-1
 255 564 l 1,35,-1
 198 537 l 1,36,-1
 219 477 l 1,37,-1
 366 522 l 1,38,-1
 372 696 l 1,39,-1
 246 645 l 1,40,-1
 288 774 l 1,41,-1
 24 702 l 1,30,-1
42 768 m 1,42,-1
 66 492 l 1,43,-1
 180 507 l 1,44,-1
 141 747 l 1,45,-1
 42 768 l 1,42,-1
EndSplineSet
EndChar

StartChar: uni3092
Encoding: 12434 12434 202
Width: 1000
GlyphClass: 2
Flags: W
LayerCount: 2
Fore
SplineSet
582 399 m 1,0,-1
 240 195 l 1,1,-1
 222 57 l 1,2,-1
 642 0 l 1,3,-1
 648 33 l 1,4,-1
 309 84 l 1,5,-1
 609 300 l 1,6,-1
 582 399 l 1,0,-1
369 783 m 1,7,-1
 171 300 l 1,8,-1
 345 375 l 1,9,-1
 468 117 l 1,10,-1
 573 195 l 1,11,-1
 498 441 l 1,12,-1
 285 408 l 1,13,-1
 465 822 l 1,14,-1
 369 783 l 1,7,-1
111 678 m 1,15,-1
 111 531 l 1,16,-1
 738 564 l 1,17,-1
 744 759 l 1,18,-1
 111 678 l 1,15,-1
EndSplineSet
EndChar

StartChar: uni3093
Encoding: 12435 12435 203
Width: 1000
GlyphClass: 2
Flags: W
LayerCount: 2
Fore
SplineSet
222 777 m 1,0,-1
 42 96 l 1,1,-1
 183 60 l 1,2,-1
 285 231 l 1,3,-1
 405 231 l 1,4,-1
 459 72 l 1,5,-1
 636 51 l 1,6,-1
 771 426 l 1,7,-1
 621 423 l 1,8,-1
 546 222 l 1,9,-1
 420 405 l 1,10,-1
 264 405 l 1,11,-1
 195 252 l 1,12,-1
 345 711 l 1,13,-1
 222 777 l 1,0,-1
EndSplineSet
EndChar

StartChar: uni3094
Encoding: 12436 12436 204
Width: 1000
GlyphClass: 2
Flags: W
LayerCount: 2
Fore
SplineSet
663 501 m 1,0,-1
 714 354 l 1,1,-1
 765 384 l 1,2,-1
 765 474 l 1,3,-1
 663 501 l 1,0,-1
579 678 m 1,4,-1
 567 558 l 1,5,-1
 696 561 l 1,6,-1
 666 648 l 1,7,-1
 579 678 l 1,4,-1
114 438 m 1,8,-1
 132 297 l 1,9,-1
 360 330 l 1,10,-1
 219 129 l 1,11,-1
 390 75 l 1,12,-1
 552 360 l 1,13,-1
 114 438 l 1,8,-1
240 714 m 1,14,-1
 222 519 l 1,15,-1
 480 477 l 1,16,-1
 513 654 l 1,17,-1
 240 714 l 1,14,-1
EndSplineSet
EndChar

StartChar: uni3095
Encoding: 12437 12437 205
Width: 1000
GlyphClass: 2
Flags: W
LayerCount: 2
Fore
SplineSet
339 414 m 1,0,-1
 327 276 l 1,1,-1
 429 285 l 1,2,-1
 408 402 l 1,3,-1
 339 414 l 1,0,-1
78 363 m 1,4,-1
 60 120 l 1,5,-1
 111 159 l 1,6,-1
 150 372 l 1,7,-1
 78 363 l 1,4,-1
39 324 m 1,8,-1
 39 258 l 1,9,-1
 198 270 l 1,10,-1
 159 75 l 1,11,-1
 270 81 l 1,12,-1
 279 330 l 1,13,-1
 39 324 l 1,8,-1
EndSplineSet
EndChar

StartChar: uni3096
Encoding: 12438 12438 206
Width: 1000
GlyphClass: 2
Flags: W
LayerCount: 2
Fore
SplineSet
249 375 m 1,0,-1
 186 90 l 1,1,-1
 279 198 l 1,2,-1
 288 354 l 1,3,-1
 249 375 l 1,0,-1
186 297 m 1,4,-1
 186 261 l 1,5,-1
 348 312 l 1,6,-1
 186 297 l 1,4,-1
42 339 m 1,7,-1
 0 84 l 1,8,-1
 168 159 l 1,9,-1
 60 150 l 1,10,-1
 78 333 l 1,11,-1
 42 339 l 1,7,-1
EndSplineSet
EndChar

StartChar: u1F4A9
Encoding: 128169 128169 207
Width: 1000
GlyphClass: 3
Flags: W
LayerCount: 2
Fore
SplineSet
476 622 m 0,0,1
 607 593 607 593 596 550 c 0,2,3
 567 437 567 437 436 466 c 0,4,5
 293 497 293 497 322 610 c 0,6,7
 333 653 333 653 476 622 c 0,0,1
462 516 m 0,8,9
 706 499 706 499 698 414 c 0,10,11
 686 291 686 291 442 308 c 0,12,13
 180 326 180 326 192 450 c 0,14,15
 200 535 200 535 462 516 c 0,8,9
414 58 m 0,16,17
 137 45 137 45 172 196 c 0,18,19
 197 303 197 303 474 316 c 0,20,21
 691 327 691 327 666 220 c 0,22,23
 631 69 631 69 414 58 c 0,16,17
EndSplineSet
Ligature2: "'liga'SLl0s" s h i t
Ligature2: "'liga'SLl0s" p o o p
Ligature2: "'liga'SLl0s" p o o
Ligature2: "'liga'SLl0s" u n k o
Ligature2: "'liga'SLl0s" uni3046 uni3093 uni3053
EndChar

StartChar: uniE000
Encoding: 57344 57344 208
Width: 1000
VWidth: 0
LayerCount: 2
Fore
SplineSet
684 86 m 1,0,-1
 666.32233047 103.67766953 l 1,1,2
 675.51413996 112.86947902 675.51413996 112.86947902 687.047344598 125.536067528 c 128,-1,3
 698.580549235 138.202656037 698.580549235 138.202656037 712.596468615 154.529131037 c 128,-1,4
 726.612387994 170.855606038 726.612387994 170.855606038 742.70174411 190.392681322 c 0,5,6
 789.556315283 247.287517746 789.556315283 247.287517746 813.306129605 272.513958648 c 1,7,-1
 835.639320225 317.180339887 l 1,8,-1
 858 306 l 1,9,-1
 880.360679775 294.819660113 l 1,10,-1
 856.360679775 246.819660113 l 2,11,12
 854.668208188 243.434716938 854.668208188 243.434716938 852.049705128 240.702365919 c 0,13,14
 829.700406212 217.381358355 829.700406212 217.381358355 781.29825589 158.607318678 c 0,15,16
 756.391735003 128.363686172 756.391735003 128.363686172 736.615446481 105.923752536 c 128,-1,17
 716.839157958 83.4838188991 716.839157958 83.4838188991 701.67766953 68.3223304703 c 1,18,-1
 684 86 l 1,0,-1
694 322 m 1,19,-1
 717.289440487 331.088562141 l 1,20,21
 722.222829253 318.44675343 722.222829253 318.44675343 727.349303797 307.52072081 c 128,-1,22
 732.475778341 296.594688191 732.475778341 296.594688191 737.03064938 288.694938169 c 128,-1,23
 741.585520418 280.795188146 741.585520418 280.795188146 745.706515379 275.38638226 c 0,24,25
 753.714755021 265.376082708 753.714755021 265.376082708 759.842003966 256.477875499 c 128,-1,26
 765.969252911 247.57966829 765.969252911 247.57966829 769.827028437 240.237450352 c 2,27,-1
 795.256628667 199.158865365 l 2,28,29
 796.07712641 197.833445935 796.07712641 197.833445935 796.726620572 196.416367762 c 2,30,-1
 818.726620572 148.416367762 l 2,31,32
 819.361289669 147.031635189 819.361289669 147.031635189 819.8231445 145.580091432 c 2,33,-1
 833.232240371 103.437218695 l 1,34,-1
 846.360679775 77.1803398875 l 1,35,-1
 824 66 l 1,36,-1
 801.639320225 54.8196601125 l 1,37,-1
 787.639320225 82.8196601125 l 2,38,39
 786.767759629 84.5627813046 786.767759629 84.5627813046 786.1768555 86.4199085681 c 2,40,-1
 772.638710331 128.968364811 l 1,41,-1
 751.92287359 174.166554065 l 1,42,-1
 726.743371333 214.841134635 l 2,43,44
 726.146471815 215.805356933 726.146471815 215.805356933 725.639320225 216.819660113 c 0,45,46
 720.823769395 226.450761772 720.823769395 226.450761772 706.293484621 244.61361774 c 0,47,48
 687.986744244 268.641214484 687.986744244 268.641214484 670.710559513 312.911437859 c 1,49,-1
 694 322 l 1,19,-1
642 328 m 1,50,-1
 666.999021124 327.778769725 l 1,51,-1
 664.999021124 101.778769725 l 1,52,-1
 640 102 l 1,53,-1
 615.000978876 102.221230275 l 1,54,-1
 617.000978876 328.221230275 l 1,55,-1
 642 328 l 1,50,-1
558 316 m 1,56,-1
 582.897330162 313.736606349 l 1,57,-1
 577.025210159 249.143286323 l 1,58,-1
 578.881429399 165.613420559 l 2,59,60
 581.170987012 159.106256814 581.170987012 159.106256814 583.359779892 149.621487667 c 0,61,62
 584.726221253 143.700241772 584.726221253 143.700241772 586.658100286 139 c 1,63,-1
 594 139 l 2,64,65
 602.437128592 139 602.437128592 139 615.42060238 132.742904198 c 1,66,-1
 621.639320225 145.180339887 l 1,67,-1
 644 134 l 1,68,-1
 666.360679775 122.819660113 l 1,69,-1
 656.360679775 102.819660113 l 2,70,71
 655.409638298 100.917577158 655.409638298 100.917577158 654.119417198 99.1731985331 c 128,-1,72
 652.829196098 97.4288199084 652.829196098 97.4288199084 651.244296326 95.9110784908 c 128,-1,73
 649.659396553 94.3933370732 649.659396553 94.3933370732 647.867504906 93.1987426416 c 2,74,-1
 647.439629436 92.9186942029 l 2,75,76
 642.778536446 88.7026543323 642.778536446 88.7026543323 641.274725342 87.5686314769 c 128,-1,77
 639.770914239 86.4346086215 639.770914239 86.4346086215 636.180339887 84.639320225 c 0,78,79
 628.901699437 81 628.901699437 81 618 81 c 0,80,81
 611.324087835 81 611.324087835 81 605.771999634 82.7195972822 c 128,-1,82
 600.219911434 84.4391945645 600.219911434 84.4391945645 593.819660113 87.639320225 c 0,83,84
 592.20277918 88.447760691 592.20277918 88.447760691 590.942983257 89 c 2,85,-1
 580 89 l 2,86,87
 569.000571382 89 569.000571382 89 559.818989303 95.004350206 c 128,-1,88
 550.637407223 101.008700412 550.637407223 101.008700412 545.451644621 109.824496836 c 0,89,90
 538.503989914 121.635509838 538.503989914 121.635509838 534.640220108 138.378512333 c 0,91,92
 533.212638008 144.564701432 533.212638008 144.564701432 532.105833268 147.913495261 c 0,93,94
 529.134965179 153.648823434 529.134965179 153.648823434 529.006170554 159.444581568 c 2,95,-1
 527.006170554 249.444581568 l 1,96,-1
 527.102669838 252.263393651 l 1,97,-1
 533.102669838 318.263393651 l 1,98,-1
 558 316 l 1,56,-1
388 258 m 1,99,-1
 340.783333333 258 l 2,100,101
 339.197702163 261.805514809 339.197702163 261.805514809 341.846702567 272.931316508 c 0,102,103
 352.556966103 299.706975346 352.556966103 299.706975346 377.814053185 308.947373059 c 0,104,105
 399.434121371 320.903388909 399.434121371 320.903388909 417.964000015 326.951694454 c 128,-1,106
 436.493878659 333 436.493878659 333 454 333 c 0,107,108
 475.478150705 333 475.478150705 333 490.141073279 324.853931903 c 0,109,110
 506.347724006 315.850237055 506.347724006 315.850237055 512.259161937 302.845073608 c 0,111,112
 515.364648443 296.013003294 515.364648443 296.013003294 519.81060368 282.119393178 c 0,113,114
 520.690278511 279.37040933 520.690278511 279.37040933 521.582377997 276.840989491 c 128,-1,115
 522.474477482 274.311569651 522.474477482 274.311569651 523.302669504 272.199773648 c 128,-1,116
 524.130861527 270.087977644 524.130861527 270.087977644 524.894327533 268.337045001 c 128,-1,117
 525.65779354 266.586112357 525.65779354 266.586112357 526.360679775 265.180339887 c 0,118,119
 529.100222109 259.70125522 529.100222109 259.70125522 528.996409851 253.576332036 c 2,120,-1
 526.996409851 135.576332036 l 2,121,122
 526.986775829 135.007924717 526.986775829 135.007924717 526.951314462 134.440542846 c 2,123,-1
 524.951314462 102.440542846 l 1,124,-1
 475.048685538 105.559457154 l 1,125,-1
 477.013224171 136.992075283 l 1,126,-1
 478.906500744 248.695393063 l 2,127,128
 475.477265943 256.606014249 475.477265943 256.606014249 472.18939632 266.880606822 c 0,129,130
 469.492986778 275.306886643 469.492986778 275.306886643 467.607026433 280.09036788 c 0,131,132
 466.753692902 280.648975774 466.753692902 280.648975774 465.858926721 281.146068097 c 0,133,134
 462.521849295 283 462.521849295 283 454 283 c 0,135,136
 433.565029948 283 433.565029948 283 400.283029673 264.225538306 c 0,137,138
 397.980333076 262.926581251 397.980333076 262.926581251 395.456874828 262.138000549 c 0,139,140
 394.047455214 261.69755692 394.047455214 261.69755692 394.5317805 260.520792615 c 128,-1,141
 395.016105786 259.34402831 395.016105786 259.34402831 393 258 c 2,142,-1
 388 258 l 1,99,-1
366 300 m 1,143,-1
 390.998047104 299.687524411 l 1,144,-1
 388.998047104 139.687524411 l 1,145,-1
 388.944628946 138.337024737 l 1,146,-1
 386.944628946 108.337024737 l 1,147,-1
 362 110 l 1,148,-1
 337.055371054 111.662975263 l 1,149,-1
 339.010402547 140.988447666 l 1,150,-1
 341.001952896 300.312475589 l 1,151,-1
 366 300 l 1,143,-1
245.207465293 318.793395485 m 1,152,-1
 246 369 l 1,153,-1
 270 369 l 2,154,155
 275.182968975 369 275.182968975 369 279.886561137 366.830033449 c 128,-1,156
 284.5901533 364.660066899 284.5901533 364.660066899 287.844140296 361.161742525 c 128,-1,157
 291.098127291 357.66341815 291.098127291 357.66341815 293.029914139 353.200451378 c 128,-1,158
 294.961700987 348.737484605 294.961700987 348.737484605 294.999146277 344.206604515 c 2,159,-1
 296.999146277 102.206604515 l 1,160,-1
 247.000853723 101.793395485 l 1,161,-1
 245.207465293 318.793395485 l 1,152,-1
268 408 m 1,162,-1
 293 408 l 1,163,-1
 293 396 l 1,164,-1
 268 396 l 1,165,-1
 243 396 l 1,166,-1
 243 408 l 1,167,-1
 268 408 l 1,162,-1
66 452 m 1,168,-1
 90.8646623212 449.402199459 l 1,169,-1
 76.8299439521 315.069895068 l 1,170,-1
 67 240.362321033 l 1,171,-1
 67 232 l 2,172,173
 67 229.453178874 67 229.453178874 66.4864260814 226.958676983 c 0,174,175
 60.9371077624 200.004845148 60.9371077624 200.004845148 60.8754301189 190.999909197 c 0,176,177
 61.755931161 183.427600235 61.755931161 183.427600235 60.9784772648 175 c 1,178,-1
 70 175 l 2,179,180
 74.2045360678 175 74.2045360678 175 78.1777640971 173.624651836 c 2,181,-1
 127.298142596 156.621443894 l 1,182,-1
 168.263393651 152.897330162 l 1,183,-1
 166 128 l 1,184,-1
 163.736606349 103.102669838 l 1,185,-1
 119.736606349 107.102669838 l 2,186,187
 116.701857404 107.378556106 116.701857404 107.378556106 113.822235903 108.375348164 c 2,188,-1
 65.7954639322 125 l 1,189,-1
 54 125 l 2,190,191
 10.5865363709 125 10.5865363709 125 9.05354270631 155.812143981 c 0,192,193
 9.01329455377 157.407071239 9.01329455377 157.407071239 9 158 c 0,194,195
 9 161.748115745 9 161.748115745 9.40257152944 165.580406227 c 128,-1,196
 9.80514305888 169.412696709 9.80514305888 169.412696709 10.7512626585 176.035533906 c 0,197,198
 11.1289544505 178.67937645 11.1289544505 178.67937645 11.2742708017 180.585735228 c 128,-1,199
 11.419587153 182.492094006 11.419587153 182.492094006 11.3929758636 183.583156874 c 128,-1,200
 11.2151304921 184.601804551 11.2151304921 184.601804551 11.1240702448 185.512407024 c 0,201,202
 10.2081904738 194.671204734 10.2081904738 194.671204734 11.5197694608 204.263619853 c 128,-1,203
 12.8313484477 213.856034973 12.8313484477 213.856034973 17 234.527978287 c 1,204,-1
 17 242 l 2,205,206
 17 243.637678967 17 243.637678967 17.2136426114 245.261362814 c 2,207,-1
 27.1700560479 320.930104932 l 1,208,-1
 41.1353376788 454.597800541 l 1,209,-1
 66 452 l 1,168,-1
878 742 m 1,210,-1
 903 742 l 1,211,-1
 903 738 l 2,212,213
 903 730.888048965 903 730.888048965 901.838341698 723.506159035 c 128,-1,214
 900.676683396 716.124269104 900.676683396 716.124269104 898.39578778 708.579718743 c 128,-1,215
 896.114892165 701.035168381 896.114892165 701.035168381 893.045136339 693.542114985 c 128,-1,216
 889.975380514 686.04906159 889.975380514 686.04906159 885.860679775 677.819660113 c 0,217,218
 882.059155963 670.216612489 882.059155963 670.216612489 877.819048172 662.354868359 c 128,-1,219
 873.578940381 654.493124228 873.578940381 654.493124228 868.91117118 646.391252655 c 128,-1,220
 864.243401978 638.289381082 864.243401978 638.289381082 859.158151967 629.953940626 c 128,-1,221
 854.072901956 621.61850017 854.072901956 621.61850017 848.539658866 612.996935355 c 0,222,223
 837.954063485 596.503100691 837.954063485 596.503100691 831.260198395 585.666597363 c 128,-1,224
 824.566333306 574.830094036 824.566333306 574.830094036 821.741693295 569.651587348 c 2,225,-1
 795.523163205 525.281767197 l 2,226,227
 795.177813878 524.697329874 795.177813878 524.697329874 794.801257358 524.132495094 c 2,228,-1
 786.801257358 512.132495094 l 1,229,-1
 766 526 l 1,230,-1
 745.198742642 539.867504906 l 1,231,-1
 752.822186122 551.302670126 l 1,232,-1
 778.267904884 594.364655724 l 2,233,234
 779.560775287 596.711560929 779.560775287 596.711560929 781.473500627 599.96239335 c 128,-1,235
 783.386225966 603.213225771 783.386225966 603.213225771 785.92255685 607.372034956 c 128,-1,236
 788.458887733 611.53084414 788.458887733 611.53084414 791.577007681 616.529398225 c 128,-1,237
 794.695127629 621.527952309 794.695127629 621.527952309 798.4356244 627.427802227 c 128,-1,238
 802.176121171 633.327652144 802.176121171 633.327652144 806.460341134 640.003064645 c 0,239,240
 811.677139865 648.131564993 811.677139865 648.131564993 816.466857982 655.983576192 c 128,-1,241
 821.256576098 663.835587391 821.256576098 663.835587391 825.588818871 671.358730527 c 128,-1,242
 829.921061644 678.881873663 829.921061644 678.881873663 833.805961777 686.082648459 c 128,-1,243
 837.690861909 693.283423256 837.690861909 693.283423256 841.139320225 700.180339887 c 0,244,245
 845.289573197 708.480845831 845.289573197 708.480845831 848.042702542 716.035670786 c 128,-1,246
 850.795831888 723.590495741 850.795831888 723.590495741 851.897915944 728.840089404 c 128,-1,247
 853 734.089683067 853 734.089683067 853 738 c 2,248,-1
 853 742 l 1,249,-1
 878 742 l 1,210,-1
587.672868476 741.213972325 m 0,250,251
 575.412141391 718.578783861 575.412141391 718.578783861 569.198702872 702.143236809 c 1,252,253
 569.580441954 686.250836064 569.580441954 686.250836064 566.897330162 656.736606349 c 0,254,255
 563.973017789 624.569170246 563.973017789 624.569170246 563.492916844 604.404930551 c 0,256,257
 563.202294606 592.19879659 563.202294606 592.19879659 570.858945824 582.186252689 c 0,258,259
 575.571642605 576.023495361 575.571642605 576.023495361 592.061686667 576.924165334 c 0,260,261
 615.181965494 579.197790337 615.181965494 579.197790337 632.288933776 604.501847588 c 0,262,263
 651.797698614 633.358562243 651.797698614 633.358562243 651.008652016 663.342332948 c 0,264,265
 650.99314792 663.931488591 650.99314792 663.931488591 651.005423582 664.520720342 c 2,266,-1
 653.005423582 760.520720342 l 1,267,-1
 678 760 l 1,268,-1
 702.994576418 759.479279658 l 1,269,-1
 701.006800996 664.066059372 l 2,270,271
 701.27999453 648.97832553 701.27999453 648.97832553 698.289525827 634.031763537 c 128,-1,272
 695.299057123 619.085201545 695.299057123 619.085201545 689.121246444 604.619783619 c 128,-1,273
 682.943435766 590.154365693 682.943435766 590.154365693 673.711066224 576.498152412 c 0,274,275
 643.026527187 531.110605087 643.026527187 531.110605087 595.899172161 527.071117513 c 0,276,277
 575.839514463 525.733807 575.839514463 525.733807 558.970065874 531.607908969 c 128,-1,278
 542.100617284 537.482010938 542.100617284 537.482010938 531.141054176 551.813747311 c 0,279,280
 512.797705394 575.80120341 512.797705394 575.80120341 513.507083156 605.595069449 c 0,281,282
 514.026982211 627.430829754 514.026982211 627.430829754 517.102669838 661.263393651 c 0,283,284
 519.918970135 692.242696917 519.918970135 692.242696917 519.063532504 704.21882375 c 0,285,286
 518.897508732 706.543156566 518.897508732 706.543156566 519.242171361 709.234234163 c 128,-1,287
 519.586833991 711.92531176 519.586833991 711.92531176 520.403541091 714.258760618 c 0,288,289
 522.187225728 719.355002437 522.187225728 719.355002437 524.127382558 724.260710656 c 128,-1,290
 526.067539389 729.166418875 526.067539389 729.166418875 528.347526971 734.313323421 c 128,-1,291
 530.627514553 739.460227966 530.627514553 739.460227966 533.238696268 744.829669618 c 128,-1,292
 535.849877982 750.19911127 535.849877982 750.19911127 539 756.242202488 c 2,293,-1
 539 758 l 1,294,-1
 551.5 758 l 1,295,-1
 564 758 l 1,296,-1
 589 758 l 1,297,-1
 589 750 l 2,298,299
 589 748.743391003 589 748.743391003 588.596568074 746.173645079 c 128,-1,300
 588.193136147 743.603899155 588.193136147 743.603899155 587.672868476 741.213972325 c 0,250,251
298 560 m 1,301,-1
 273.09004982 562.11999576 l 1,302,-1
 281.09004982 656.11999576 l 2,303,304
 281.416904635 659.960539839 281.416904635 659.960539839 283.877332505 668.572037384 c 2,305,-1
 297.800077546 722.27405397 l 2,306,307
 298.130072131 723.546890228 298.130072131 723.546890228 298.591770561 724.77808604 c 2,308,-1
 316.591770561 772.77808604 l 2,309,310
 320.376109808 782.869657367 320.376109808 782.869657367 330.600061517 787.040728485 c 128,-1,311
 340.824013226 791.211799602 340.824013226 791.211799602 350.587568976 786.647370337 c 0,312,313
 352.893422472 785.569391633 352.893422472 785.569391633 355.129370703 783.708136889 c 128,-1,314
 357.365318934 781.846882146 357.365318934 781.846882146 359.025557489 779.792916457 c 128,-1,315
 360.685796044 777.738950769 360.685796044 777.738950769 361.885308259 775.743655413 c 128,-1,316
 363.084820474 773.748360056 363.084820474 773.748360056 363.642164983 772.126994213 c 2,317,-1
 384.743939992 710.740012369 l 2,318,319
 389.603816795 702.265602192 389.603816795 702.265602192 393.81060368 689.119393178 c 0,320,321
 394.600095977 686.65222975 394.600095977 686.65222975 395.416465705 684.182443856 c 128,-1,322
 396.232835434 681.712657963 396.232835434 681.712657963 396.874752478 679.832513669 c 128,-1,323
 397.516669522 677.952369375 397.516669522 677.952369375 398.003215203 676.565595812 c 128,-1,324
 398.489760885 675.178822248 398.489760885 675.178822248 398.763471863 674.445667843 c 0,325,326
 402.128212544 667.581596853 402.128212544 667.581596853 411.925610111 635.250184882 c 0,327,328
 420.973600818 605.391815549 420.973600818 605.391815549 431.700657191 583.98264857 c 1,329,330
 436.500251477 600.200145614 436.500251477 600.200145614 439.828135428 620.537214203 c 0,331,332
 442.227901627 635.20245209 442.227901627 635.20245209 443.482521097 642.042064686 c 128,-1,333
 444.737140567 648.881677283 444.737140567 648.881677283 445.826065662 652.551758158 c 2,334,-1
 457.088063491 706.984747664 l 1,335,-1
 459.014850016 762.861556896 l 1,336,-1
 484 762 l 1,337,-1
 508.985149984 761.138443104 l 1,338,-1
 506.985149984 703.138443104 l 2,339,340
 506.911936509 701.015252336 506.911936509 701.015252336 506.481510488 698.934859899 c 2,341,-1
 494.481510488 640.934859899 l 2,342,343
 494.181231444 639.483511186 494.181231444 639.483511186 493.696016103 638.031233972 c 0,344,345
 493.213375963 635.834389196 493.213375963 635.834389196 491.961010204 628.844303776 c 128,-1,346
 490.708644446 621.854218357 490.708644446 621.854218357 489.171864572 612.462785797 c 0,347,348
 486.76707768 597.7668659 486.76707768 597.7668659 483.659087899 584.793649797 c 128,-1,349
 480.551098118 571.820433693 480.551098118 571.820433693 476.658746402 560.421403668 c 0,350,351
 463.880706125 523 463.880706125 523 436 523 c 0,352,353
 419.100009685 523 419.100009685 523 407.543726328 533.484639587 c 128,-1,354
 395.987442971 543.969279174 395.987442971 543.969279174 387.734868377 560.130571086 c 0,355,356
 374.720954107 585.616153199 374.720954107 585.616153199 364.074389889 620.749815118 c 0,357,358
 356.478418649 645.816520209 356.478418649 645.816520209 353.937876855 652.240461604 c 0,359,360
 353.266704283 653.518679204 353.266704283 653.518679204 352.788082728 654.715233091 c 2,361,-1
 346.18939632 673.880606822 l 2,362,363
 345.393956126 676.366357429 345.393956126 676.366357429 344.524397043 678.671078611 c 128,-1,364
 343.65483796 680.975799793 343.65483796 680.975799793 342.984581756 682.477972821 c 128,-1,365
 342.314325552 683.98014585 342.314325552 683.98014585 341.857456715 684.904936544 c 128,-1,366
 341.400587879 685.829727238 341.400587879 685.829727238 341.198742642 686.132495094 c 0,367,368
 340.826801908 686.690406194 340.826801908 686.690406194 340.410235297 687.394295568 c 2,369,-1
 332.122667495 655.427962616 l 2,370,371
 331.371109144 652.800801387 331.371109144 652.800801387 330.807079624 650.657489048 c 0,372,-1
 322.90995018 557.88000424 l 1,373,-1
 298 560 l 1,301,-1
270 730 m 1,374,-1
 248.187349601 717.784915777 l 1,375,376
 237.714344549 736.486710513 237.714344549 736.486710513 215.555701327 748.53790244 c 128,-1,377
 193.453985696 760.558133748 193.453985696 760.558133748 171.72005229 759.059241789 c 0,378,379
 168.788529797 758.857067824 168.788529797 758.857067824 165.890025317 759.340151904 c 0,380,381
 151.261022566 761.778319029 151.261022566 761.778319029 141.80428863 755.83408627 c 0,382,383
 130.874887793 748.964177172 130.874887793 748.964177172 124.451558838 734.089099593 c 0,384,385
 116.02075661 714.565136537 116.02075661 714.565136537 112.537264801 696.712241015 c 0,386,387
 108.791163675 677.513472744 108.791163675 677.513472744 106.906014705 655.834259591 c 2,388,-1
 106.760122384 654.545099202 l 2,389,390
 104.498347006 638.335708996 104.498347006 638.335708996 108.723228915 625.402820916 c 128,-1,391
 112.948110824 612.469932835 112.948110824 612.469932835 124.596722493 600.248438626 c 0,392,393
 144.992461204 578.849630798 144.992461204 578.849630798 173.80416875 586.220067612 c 0,394,395
 175.499742214 586.653818963 175.499742214 586.653818963 177.239211848 586.847093367 c 0,396,397
 194.749845466 588.792719324 194.749845466 588.792719324 209.879116607 605.68120804 c 0,398,399
 227.461524371 625.308081823 227.461524371 625.308081823 233.956310023 648.851679813 c 2,400,-1
 235.80683128 655.160836026 l 1,401,-1
 150.27994771 661.059241789 l 1,402,-1
 152 686 l 1,403,-1
 153.72005229 710.940758211 l 1,404,-1
 269.72005229 702.940758211 l 2,405,406
 278.634371687 702.325977563 278.634371687 702.325977563 285.817185843 695.13215052 c 128,-1,407
 293 687.938323477 293 687.938323477 293 678 c 0,408,409
 293 673.260700263 293 673.260700263 292.190042429 668.814930325 c 128,-1,410
 291.380084858 664.369160388 291.380084858 664.369160388 290.28767009 660.96540219 c 128,-1,411
 289.195255323 657.561643992 289.195255323 657.561643992 286.658192545 649.886629734 c 128,-1,412
 284.121129767 642.211615476 284.121129767 642.211615476 282.043689977 635.148320187 c 0,413,414
 272.538475629 600.691918177 272.538475629 600.691918177 247.120883393 572.31879196 c 0,415,416
 220.251733849 542.325322702 220.251733849 542.325322702 184.535028646 537.364031175 c 0,417,418
 128.062803989 524.141566377 128.062803989 524.141566377 88.4032775074 565.751561374 c 0,419,420
 50.0243812763 606.017944305 50.0243812763 606.017944305 57.1502332157 660.810470063 c 0,421,422
 57.8097830561 668.204173671 57.8097830561 668.204173671 58.7438823886 675.90786469 c 128,-1,423
 59.677981721 683.611555709 59.677981721 683.611555709 60.8905535217 691.465657037 c 128,-1,424
 62.1031253223 699.319758365 62.1031253223 699.319758365 63.4627351994 706.287758985 c 0,425,426
 67.9792433901 729.434863463 67.9792433901 729.434863463 78.5484411616 753.910900407 c 0,427,428
 91.1251122068 783.035822828 91.1251122068 783.035822828 115.19571137 798.16591373 c 128,-1,429
 139.071759809 813.173715607 139.071759809 813.173715607 171.226209747 809.109815036 c 0,430,431
 188.292992747 809.780899289 188.292992747 809.780899289 205.738745793 805.543022941 c 128,-1,432
 223.184498839 801.305146592 223.184498839 801.305146592 239.444298673 792.46209756 c 0,433,434
 274.285655451 773.513289487 274.285655451 773.513289487 291.812650399 742.215084223 c 1,435,-1
 270 730 l 1,374,-1
EndSplineSet
Ligature2: "'liga'SLl0s" G N U slash L i n u x
Ligature2: "'liga'SLl0s" g n u slash l i n u x
Ligature2: "'liga'SLl0s" L i G N U x
Ligature2: "'liga'SLl0s" l i g n u x
EndChar

StartChar: uniE001
Encoding: 57345 57345 209
Width: 1000
VWidth: 0
LayerCount: 2
Fore
SplineSet
374 752 m 0,0,1
 750 750 750 750 750 375 c 0,2,3
 751.36390819 -3.99353727171e-11 751.36390819 -3.99353727171e-11 375 0 c 0,4,5
 -6.00802139037 -3.26256383021e-13 -6.00802139037 -3.26256383021e-13 -3 375 c 0,6,7
 0.0239569370864 752.994617136 0.0239569370864 752.994617136 374 752 c 0,0,1
EndSplineSet
EndChar

StartChar: uniE002
Encoding: 57346 57346 210
Width: 1000
VWidth: 0
LayerCount: 2
Fore
SplineSet
0 312 m 156,-1,1
 0 624 0 624 312 624 c 152,-1,2
 624 624 624 624 624 312 c 152,-1,3
 624 0 624 0 312 0 c 152,-1,0
 0 0 0 0 0 312 c 156,-1,1
EndSplineSet
EndChar

StartChar: uniE003
Encoding: 57347 57347 211
Width: 1000
VWidth: 0
LayerCount: 2
Fore
SplineSet
328.375647325 183.590914742 m 2,0,1
 329.526479099 183.151665974 329.526479099 183.151665974 330.944251749 182.642389544 c 128,-1,2
 332.3620244 182.133113114 332.3620244 182.133113114 334.004243981 181.569834381 c 128,-1,3
 335.646463562 181.006555648 335.646463562 181.006555648 337.434172604 180.415496786 c 128,-1,4
 339.221881647 179.824437925 339.221881647 179.824437925 341.176845918 179.20104673 c 128,-1,5
 343.131810188 178.577655536 343.131810188 178.577655536 345.110812506 177.968731746 c 0,6,7
 366.091994504 171.974108318 366.091994504 171.974108318 388.981415059 145.269784336 c 0,8,9
 395.441685635 137.732801997 395.441685635 137.732801997 400.36906455 132.423820224 c 128,-1,10
 405.296443465 127.11483845 405.296443465 127.11483845 408.676883238 123.988369541 c 0,11,12
 418.947561617 119.939352103 418.947561617 119.939352103 433.933700316 112.232195058 c 0,13,14
 449.964388364 103.987841205 449.964388364 103.987841205 462.408409925 99.5435477899 c 0,15,16
 471.459999582 96.310837198 471.459999582 96.310837198 480.21882375 96.9364674958 c 0,17,18
 481.462532511 97.0253038358 481.462532511 97.0253038358 483.289439028 96.9734786087 c 0,19,20
 483.705125419 98.1723177599 483.705125419 98.1723177599 484.389731751 100.226136758 c 0,21,22
 489.357166101 113.88658122 489.357166101 113.88658122 503.155095605 136.515185607 c 0,23,24
 509.932723338 147.630495088 509.932723338 147.630495088 513.632495094 158.198742642 c 1,25,26
 503.265949513 165.109773029 503.265949513 165.109773029 488.375743298 169.536591093 c 0,27,28
 467.411267775 175.769273005 467.411267775 175.769273005 445.647504424 187.488222502 c 0,29,30
 441.064625917 189.955926313 441.064625917 189.955926313 437.14139716 192.432607597 c 128,-1,31
 433.218168403 194.909288881 433.218168403 194.909288881 429.395400566 197.827037402 c 128,-1,32
 425.572632729 200.744785923 425.572632729 200.744785923 422.270433881 203.901064419 c 128,-1,33
 418.968235032 207.057342914 418.968235032 207.057342914 415.847903155 210.808778794 c 128,-1,34
 412.727571278 214.560214674 412.727571278 214.560214674 409.988727628 218.77973303 c 0,35,36
 407.672202671 220.957566364 407.672202671 220.957566364 401.975477263 225.358975809 c 128,-1,37
 396.278751855 229.760385254 396.278751855 229.760385254 388.795232073 234.927577485 c 0,38,39
 363.345045179 252.500325579 363.345045179 252.500325579 354.562676857 267.137606114 c 0,40,41
 353.134260799 269.518299545 353.134260799 269.518299545 352.067130399 273.151964298 c 128,-1,42
 351 276.785629052 351 276.785629052 351 280 c 0,43,44
 351 294.734586166 351 294.734586166 358.231212664 313.141309311 c 0,45,46
 364.235153859 328.424068716 364.235153859 328.424068716 369.87704444 339.143660821 c 0,47,48
 375.35616764 349.5539949 375.35616764 349.5539949 386.408462807 366.921887305 c 0,49,50
 388.692881078 370.511687446 388.692881078 370.511687446 390.808413917 373.906277194 c 128,-1,51
 392.923946755 377.300866941 392.923946755 377.300866941 394.306269535 379.574695158 c 128,-1,52
 395.688592315 381.848523374 395.688592315 381.848523374 396.563855817 383.322547305 c 128,-1,53
 397.43911932 384.796571235 397.43911932 384.796571235 397.643701213 385.189440889 c 128,-1,54
 397.859853955 385.617553313 397.859853955 385.617553313 398.092107659 386.041377355 c 128,-1,55
 398.324361364 386.465201397 398.324361364 386.465201397 398.562676857 386.862393886 c 0,56,57
 407.082255501 401.061691626 407.082255501 401.061691626 419 410 c 0,58,59
 426 415 426 415 434 415 c 0,60,61
 440.533989997 415 440.533989997 415 446.608084693 413.244819948 c 128,-1,62
 452.68217939 411.489639896 452.68217939 411.489639896 456.184132132 409.685032072 c 128,-1,63
 459.686084875 407.880424249 459.686084875 407.880424249 467.865548688 402.902576239 c 128,-1,64
 476.045012501 397.92472823 476.045012501 397.92472823 480.703821549 395.318953678 c 0,65,66
 507.419518967 380.376275461 507.419518967 380.376275461 514.496185642 377.51946807 c 0,67,68
 526.547252879 373.302954702 526.547252879 373.302954702 538.913675844 364.689097476 c 128,-1,69
 551.280098809 356.07524025 551.280098809 356.07524025 563.67766953 343.67766953 c 0,70,71
 564.77824143 342.57709763 564.77824143 342.57709763 565.733805434 341.348515338 c 0,72,73
 570.678361673 334.991228745 570.678361673 334.991228745 578 329.5 c 0,74,75
 581.080310226 327.189767331 581.080310226 327.189767331 584.500120865 324.75437073 c 128,-1,76
 587.919931505 322.318974129 587.919931505 322.318974129 591.73426157 319.722663421 c 128,-1,77
 595.548591636 317.126352713 595.548591636 317.126352713 599.681234075 314.424240349 c 0,78,79
 602.352505366 312.677639889 602.352505366 312.677639889 604.749483574 311.093687908 c 128,-1,80
 607.146461782 309.509735927 607.146461782 309.509735927 609.350461966 308.033931304 c 128,-1,81
 611.55446215 306.55812668 611.55446215 306.55812668 613.511345936 305.225544542 c 128,-1,82
 615.468229721 303.892962404 615.468229721 303.892962404 617.229118 302.668488365 c 128,-1,83
 618.990006278 301.444014326 618.990006278 301.444014326 620.530954843 300.34333678 c 2,84,-1
 591.469045157 259.65666322 l 2,85,86
 588.284279387 261.931495913 588.284279387 261.931495913 583.440788259 265.201031041 c 128,-1,87
 578.597297132 268.470566169 578.597297132 268.470566169 572.318765925 272.575759651 c 0,88,89
 565.505770732 277.030410354 565.505770732 277.030410354 559.436589134 281.252427351 c 128,-1,90
 553.367407536 285.474444348 553.367407536 285.474444348 548 289.5 c 0,91,92
 542.30148073 293.773889453 542.30148073 293.773889453 536.944091465 298.937366215 c 128,-1,93
 531.5867022 304.100842976 531.5867022 304.100842976 527.290453671 309.348954952 c 0,94,95
 517.545283978 318.8755414 517.545283978 318.8755414 510.594584861 323.654299492 c 128,-1,96
 503.643885745 328.433057584 503.643885745 328.433057584 497.655251135 330.42926912 c 0,97,98
 495.19941135 331.35020904 495.19941135 331.35020904 492.675290781 332.44051996 c 128,-1,99
 490.151170213 333.530830879 490.151170213 333.530830879 486.963475921 335.10805999 c 128,-1,100
 483.775781629 336.6852891 483.775781629 336.6852891 481.040784809 338.09585496 c 128,-1,101
 478.305787989 339.506420819 478.305787989 339.506420819 473.806256384 341.967962597 c 128,-1,102
 469.30672478 344.429504375 469.30672478 344.429504375 465.888998189 346.328342519 c 128,-1,103
 462.471271599 348.227180663 462.471271599 348.227180663 456.296178451 351.681046322 c 0,104,105
 452.030537324 354.066913393 452.030537324 354.066913393 448.096733329 356.196752551 c 128,-1,106
 444.162929333 358.326591708 444.162929333 358.326591708 440.879141738 360.044650867 c 0,107,108
 439.266296889 357.219944694 439.266296889 357.219944694 437.446071864 354.214505407 c 128,-1,109
 435.625846838 351.20906612 435.625846838 351.20906612 433.760563846 348.239387998 c 128,-1,110
 431.895280853 345.269709875 431.895280853 345.269709875 428.591537193 340.078112695 c 0,111,112
 418.64383236 324.4460051 418.64383236 324.4460051 414.12295556 315.856339179 c 0,113,114
 409.764846141 307.575931284 409.764846141 307.575931284 404.768787336 294.858690689 c 0,115,116
 403.358824108 291.269693383 403.358824108 291.269693383 402.300050903 287.61211322 c 0,117,118
 405.693158368 284.563670518 405.693158368 284.563670518 408.972048479 282.028297121 c 128,-1,119
 412.25093859 279.492923724 412.25093859 279.492923724 417.204767927 276.072422515 c 0,120,121
 420.699354198 273.6594939 420.699354198 273.6594939 423.254265753 271.86536892 c 128,-1,122
 425.809177308 270.071243941 425.809177308 270.071243941 428.649510762 268.015778388 c 128,-1,123
 431.489844216 265.960312835 431.489844216 265.960312835 433.62361318 264.317076438 c 128,-1,124
 435.757382144 262.673840041 435.757382144 262.673840041 438.013700186 260.83015839 c 128,-1,125
 440.270018227 258.98647674 440.270018227 258.98647674 442.079280873 257.330618444 c 128,-1,126
 443.888543519 255.674760148 443.888543519 255.674760148 445.657482423 253.87935192 c 128,-1,127
 447.426421326 252.083943691 447.426421326 252.083943691 448.981415059 250.269784336 c 128,-1,128
 450.527444037 248.466083862 450.527444037 248.466083862 451.706078553 246.403473459 c 0,129,130
 457.541514411 238.224915666 457.541514411 238.224915666 469.352495576 231.511777498 c 0,131,132
 486.588732225 222.230726995 486.588732225 222.230726995 502.624256702 217.463408907 c 0,133,134
 524.734050487 210.890226971 524.734050487 210.890226971 541.367504906 199.801257358 c 0,135,136
 567.138378297 182.620675097 567.138378297 182.620675097 564.913643956 155.923863004 c 0,137,138
 564.780639401 154.327808345 564.780639401 154.327808345 564.445060352 152.761772782 c 0,139,140
 560.555400896 134.610028656 560.555400896 134.610028656 545.844904395 110.484814393 c 0,141,142
 534.642833899 92.1134187801 534.642833899 92.1134187801 531.610268249 83.7738632423 c 0,143,144
 528.155242067 73.4087846959 528.155242067 73.4087846959 525.860679775 68.8196601125 c 0,145,146
 522.021993532 61.1422876274 522.021993532 61.1422876274 512.004609992 52.7944680101 c 0,147,148
 496.80605127 40.1290024086 496.80605127 40.1290024086 476.71141506 46.8272144787 c 1,149,150
 460.422670309 47.159637841 460.422670309 47.159637841 445.591590075 52.4564522101 c 0,151,152
 430.035611636 58.0121587954 430.035611636 58.0121587954 411.066299684 67.767804942 c 0,153,154
 395.273297607 75.8899202964 395.273297607 75.8899202964 388.09430585 78.2829175487 c 0,155,156
 384.245553203 79.5658350975 384.245553203 79.5658350975 381 82 c 0,157,158
 374.807153504 86.6446348718 374.807153504 86.6446348718 368.122521651 93.6094974348 c 128,-1,159
 361.437889797 100.574359998 361.437889797 100.574359998 351.018584941 112.730215664 c 0,160,161
 337.908005496 128.025891682 337.908005496 128.025891682 330.889187494 130.031268254 c 0,162,163
 327.344433037 131.121961933 327.344433037 131.121961933 320.909743196 132.930093266 c 128,-1,164
 314.475053355 134.738224599 314.475053355 134.738224599 311.659785496 135.679977865 c 128,-1,165
 308.844517637 136.62173113 308.844517637 136.62173113 304.530044463 138.427471299 c 128,-1,166
 300.215571289 140.233211469 300.215571289 140.233211469 296.953982765 142.592739085 c 128,-1,167
 293.69239424 144.9522667 293.69239424 144.9522667 290.32233047 148.32233047 c 0,168,169
 286.149198778 152.495462163 286.149198778 152.495462163 284.282917549 158.09430585 c 2,170,-1
 282.282917549 164.09430585 l 1,171,-1
 307.897366596 172.632455532 l 1,172,-1
 328.375647325 183.590914742 l 2,0,1
425.290354031 30.305333574 m 1,173,-1
 402.709645969 -14.305333574 l 1,174,175
 373.940633339 0.256759238458 373.940633339 0.256759238458 348.47723479 18.8910730689 c 128,-1,176
 323.013836241 37.5253868994 323.013836241 37.5253868994 300.990301365 60.1295522894 c 128,-1,177
 278.966766489 82.7337176795 278.966766489 82.7337176795 260.499829542 109.19115619 c 128,-1,178
 241.930978229 135.794606629 241.930978229 135.794606629 228.865990904 164.233577426 c 128,-1,179
 215.80100358 192.672548223 215.80100358 192.672548223 208.318013227 222.833245325 c 128,-1,180
 200.835022874 252.993942428 200.835022874 252.993942428 199.040256379 284.581832749 c 0,181,182
 199 285.290345012 199 285.290345012 199 286 c 0,183,184
 199 348.836319919 199 348.836319919 246.202650639 399.535463198 c 0,185,186
 268.277040458 423.244993003 268.277040458 423.244993003 294.153986249 441.000975482 c 128,-1,187
 320.030932041 458.756957961 320.030932041 458.756957961 349.365420044 470.271429888 c 0,188,189
 378.095139291 481.548515948 378.095139291 481.548515948 405.769152862 487.274257974 c 128,-1,190
 433.443166432 493 433.443166432 493 460 493 c 0,191,192
 512.193405717 493 512.193405717 493 554.957118547 474.431545745 c 0,193,194
 598.12852286 455.686067556 598.12852286 455.686067556 625.835616438 423.938356164 c 0,195,196
 652.345547363 393.562393647 652.345547363 393.562393647 670.382875811 352.568465357 c 0,197,198
 679.232051979 332.456701337 679.232051979 332.456701337 685.549506465 311.622535466 c 128,-1,199
 691.866960951 290.788369595 691.866960951 290.788369595 695.625761679 269.309508294 c 0,200,201
 699.201675339 248.875715948 699.201675339 248.875715948 701.057337362 227.051316444 c 128,-1,202
 702.912999385 205.226916941 702.912999385 205.226916941 702.998130552 183.561034892 c 0,203,204
 710.249027323 121.538137439 710.249027323 121.538137439 682.315416346 66.2295877042 c 0,205,206
 668.352942641 38.5838897683 668.352942641 38.5838897683 647.119104581 17.8525040591 c 128,-1,207
 625.885266521 -2.87888165 625.885266521 -2.87888165 598.623753956 -15.7184273666 c 1,208,209
 555.181120115 -46.1581939716 555.181120115 -46.1581939716 507.249044433 -44.989118955 c 0,210,211
 489.365152571 -44.3504085313 489.365152571 -44.3504085313 469.721923032 -38.1703024985 c 128,-1,212
 450.078693494 -31.9901964656 450.078693494 -31.9901964656 426.819660113 -20.360679775 c 2,213,-1
 419.54693284 -16.7243161386 l 1,214,-1
 425.290354031 30.305333574 l 1,173,-1
406.819660113 -10.360679775 m 2,215,-1
 429.180339887 34.360679775 l 1,216,-1
 449.180339887 24.360679775 l 2,217,218
 467.925732597 14.9879834201 467.925732597 14.9879834201 483.279665015 10.1692182971 c 128,-1,219
 498.633597432 5.35045317407 498.633597432 5.35045317407 508.750955567 4.98911895495 c 0,220,221
 541.121722552 4.1995880529 541.121722552 4.1995880529 571.263273249 26.1947736965 c 0,222,223
 572.112822261 26.8147148674 572.112822261 26.8147148674 573.389587818 27.5651602345 c 128,-1,224
 574.666353376 28.3156056015 574.666353376 28.3156056015 575.760239929 28.8067383396 c 0,225,226
 616.67839248 47.1781537706 616.67839248 47.1781537706 637.684583654 88.7704122958 c 0,227,228
 659.233572696 131.437410597 659.233572696 131.437410597 653.200052207 178.843643008 c 0,229,230
 653 180.415481777 653 180.415481777 653 182 c 0,231,232
 653 222.828996398 653 222.828996398 646.374238321 260.690491706 c 0,233,234
 643.133039054 279.211630375 643.133039054 279.211630375 637.700493539 297.127464516 c 128,-1,235
 632.267948024 315.043298657 632.267948024 315.043298657 624.617124189 332.431534643 c 0,236,237
 609.654452637 366.437606353 609.654452637 366.437606353 588.164383562 391.061643836 c 0,238,239
 567.87147714 414.313932444 567.87147714 414.313932444 535.042881453 428.568454255 c 0,240,241
 501.806594283 443 501.806594283 443 460 443 c 0,242,243
 438.556826833 443 438.556826833 443 415.480847449 438.22574347 c 128,-1,244
 392.404868065 433.45148694 392.404868065 433.45148694 367.634579956 423.728570112 c 0,245,246
 357.973743581 419.936466115 357.973743581 419.936466115 348.822151491 415.358286676 c 128,-1,247
 339.670559401 410.780107237 339.670559401 410.780107237 330.967418842 405.379700687 c 128,-1,248
 322.264278283 399.979294137 322.264278283 399.979294137 314.027765004 393.756625511 c 128,-1,249
 305.791251724 387.533956885 305.791251724 387.533956885 297.985280845 380.463633095 c 128,-1,250
 290.179309966 373.393309304 290.179309966 373.393309304 282.797349361 365.464536802 c 0,251,252
 249.29713241 329.482822299 249.29713241 329.482822299 249.002047683 286.688250914 c 0,253,254
 253.827756953 206.108743928 253.827756953 206.108743928 301.500170458 137.80884381 c 0,255,256
 345.869150456 74.2417474678 345.869150456 74.2417474678 413.685673962 36.4500368608 c 0,257,258
 414.075058676 36.2357697177 414.075058676 36.2357697177 412.358555213 24.5740031672 c 128,-1,259
 410.642051751 12.9122366166 410.642051751 12.9122366166 408.730855932 1.193953204 c 128,-1,260
 406.819660113 -10.5243302086 406.819660113 -10.5243302086 406.819660113 -10.360679775 c 2,215,-1
EndSplineSet
Ligature2: "'liga'SLl0s" s e r e n e l i n u x
Ligature2: "'liga'SLl0s" S e r e n e L i n u x
Ligature2: "'liga'SLl0s" s e r e n e g n u slash l i n u x
Ligature2: "'liga'SLl0s" S e r e n e G N U slash L i n u x
Ligature2: "'liga'SLl0s" s e r e n e
Ligature2: "'liga'SLl0s" S e r e n e
EndChar

StartChar: uniE004
Encoding: 57348 57348 212
Width: 1000
VWidth: 0
LayerCount: 2
Fore
SplineSet
670 360 m 1,0,-1
 645.008214227 360.64081502 l 1,1,-1
 647.022064742 439.180985108 l 2,2,3
 647.990845932 453.228312361 647.990845932 453.228312361 648.513276121 461.0321133 c 1,4,5
 644.67435769 460.734115066 644.67435769 460.734115066 640.528324882 460.667081509 c 128,-1,6
 636.382292074 460.600047953 636.382292074 460.600047953 634.00293906 460.778467894 c 0,7,8
 592.946857811 455.811673356 592.946857811 455.811673356 565.992134428 470.572593304 c 0,9,10
 555.511652389 476.311904897 555.511652389 476.311904897 548.894839615 485.475775307 c 0,11,12
 539.88875553 497.94863653 539.88875553 497.94863653 539.38985155 515.30009376 c 128,-1,13
 538.89094757 532.65155099 538.89094757 532.65155099 543.811541725 544.430802665 c 0,14,15
 545.698583495 551.558062764 545.698583495 551.558062764 544.851251199 556.327343505 c 128,-1,16
 544.003918903 561.096624246 544.003918903 561.096624246 541.741949452 563.644012558 c 128,-1,17
 539.479980001 566.19140087 539.479980001 566.19140087 534.017534403 569.339250876 c 0,18,19
 512.223048475 581.898785139 512.223048475 581.898785139 483.768991784 577.284613784 c 0,20,21
 443.999754441 571.603294163 443.999754441 571.603294163 350.346178556 538.434319371 c 1,22,-1
 342 562 l 1,23,-1
 333.653821444 585.565680629 l 1,24,25
 366.412849708 597.167836473 366.412849708 597.167836473 392.525615086 605.452584575 c 128,-1,26
 418.638380465 613.737332678 418.638380465 613.737332678 439.74350421 619.127618 c 128,-1,27
 460.848627956 624.517903322 460.848627956 624.517903322 476.231008216 626.715386216 c 0,28,29
 487.162757732 628.488102354 487.162757732 628.488102354 497.941655562 628.515689864 c 128,-1,30
 508.720553391 628.543277375 508.720553391 628.543277375 519.163233831 626.833048116 c 128,-1,31
 529.605914272 625.122818858 529.605914272 625.122818858 539.669486027 621.556867598 c 128,-1,32
 549.733057783 617.990916339 549.733057783 617.990916339 558.982465597 612.660749124 c 0,33,34
 567.599542573 607.694975951 567.599542573 607.694975951 574.319849374 601.006095803 c 128,-1,35
 581.040156174 594.317215655 581.040156174 594.317215655 585.38753398 586.562835975 c 128,-1,36
 589.734911787 578.808456296 589.734911787 578.808456296 592.12874779 569.938501751 c 128,-1,37
 594.522583792 561.068547207 594.522583792 561.068547207 594.486719174 551.740625241 c 128,-1,38
 594.450854555 542.412703275 594.450854555 542.412703275 592.404676505 532.576738555 c 2,39,-1
 591.786112964 530.304492865 l 2,40,41
 590.402329005 526.027342447 590.402329005 526.027342447 589.767641979 522.322454303 c 128,-1,42
 589.132954952 518.617566159 589.132954952 518.617566159 589.269671799 517.171971554 c 128,-1,43
 589.406388647 515.726376949 589.406388647 515.726376949 589.475387936 514.755469088 c 0,44,45
 589.71889145 514.585654429 589.71889145 514.585654429 590.007865572 514.427406696 c 0,46,47
 603.705924745 506.926088577 603.705924745 506.926088577 630.464466094 510.748737342 c 1,48,-1
 638.453457107 510.601300299 l 2,49,50
 639.75800526 510.596817316 639.75800526 510.596817316 642.910653738 510.782182684 c 128,-1,51
 646.063302216 510.967548052 646.063302216 510.967548052 649.927521223 511.367294846 c 0,52,53
 656.05918877 511.815811533 656.05918877 511.815811533 661.740347361 512.119945682 c 128,-1,54
 667.421505951 512.424079831 667.421505951 512.424079831 674.309830079 510.505291237 c 128,-1,55
 681.198154206 508.586502643 681.198154206 508.586502643 687.204292442 504.218402108 c 0,56,57
 705.940859991 490.591807526 705.940859991 490.591807526 698.789536833 463.6056824 c 0,58,59
 698.644323837 461.33067881 698.644323837 461.33067881 698.443367536 458.311684724 c 128,-1,60
 698.242411235 455.292690639 698.242411235 455.292690639 697.880628065 449.981855826 c 128,-1,61
 697.518844895 444.671021013 697.518844895 444.671021013 696.977914441 436.818203041 c 2,62,-1
 694.991785773 359.35918498 l 1,63,-1
 670 360 l 1,0,-1
296 96 m 1,64,-1
 307.180339887 118.360679775 l 1,65,-1
 343.010854865 100.445422286 l 1,66,-1
 378.797851347 97.0371369071 l 1,67,-1
 437.988381975 98.8868409892 l 1,68,69
 448.816948515 103.41446463 448.816948515 103.41446463 447.055605206 136.292873053 c 0,70,71
 443.104716512 183.703537384 443.104716512 183.703537384 467.388888889 201.916666667 c 0,72,73
 478.973042133 210.6047816 478.973042133 210.6047816 495.417281597 211.002626103 c 0,74,75
 498.484592014 211.513844506 498.484592014 211.513844506 505.09430585 213.717082451 c 0,76,77
 519.002619168 218.353186891 519.002619168 218.353186891 529.447315633 218.937505574 c 0,78,79
 545.213328277 220.819046178 545.213328277 220.819046178 556.345073608 215.759161937 c 128,-1,80
 567.398119128 210.735050336 567.398119128 210.735050336 574.788825536 198.566513523 c 2,81,-1
 594.330147626 179.025191433 l 2,82,83
 597.264819193 181.620158252 597.264819193 181.620158252 600.32233047 184.67766953 c 0,84,85
 605.92431494 190.279653999 605.92431494 190.279653999 609.880216554 193.670426812 c 2,86,-1
 637.926459945 233.265123363 l 1,87,-1
 647.175293145 310.955322245 l 1,88,-1
 672 308 l 1,89,-1
 696.824706855 305.044677755 l 1,90,-1
 686.824706855 221.044677755 l 2,91,92
 686.466776778 218.038065112 686.466776778 218.038065112 685.325836662 215.05331075 c 128,-1,93
 684.184896546 212.068556389 684.184896546 212.068556389 682.400612028 209.54956648 c 2,94,-1
 648.400612028 161.54956648 l 2,95,96
 647.538785938 160.332870824 647.538785938 160.332870824 646.502808187 159.196145564 c 128,-1,97
 645.466830435 158.059420304 645.466830435 158.059420304 644.239310942 157.00484585 c 128,-1,98
 643.011791449 155.950271396 643.011791449 155.950271396 641.685141812 155.078240054 c 0,99,100
 639.457015048 153.101675988 639.457015048 153.101675988 635.67766953 149.32233047 c 0,101,102
 631.051796435 144.696457375 631.051796435 144.696457375 626.474126035 140.709366389 c 128,-1,103
 621.896455635 136.722275403 621.896455635 136.722275403 617.284091591 133.339875104 c 0,104,105
 603.184261904 123 603.184261904 123 590 123 c 0,106,107
 579.644660941 123 579.644660941 123 572.32233047 130.32233047 c 2,108,-1
 536.32233047 166.32233047 l 2,109,110
 535.136969232 167.507691709 535.136969232 167.507691709 533.942039116 169.074692676 c 0,111,112
 533.438957836 169.039664536 533.438957836 169.039664536 532.949296636 169.019832268 c 128,-1,113
 532.459635435 169 532.459635435 169 532 169 c 0,114,115
 529.056941504 169 529.056941504 169 520.90569415 166.282917549 c 0,116,117
 507.444221125 161.795759874 507.444221125 161.795759874 497.70938624 161.00910655 c 1,118,119
 495.774028973 153.751516796 495.774028973 153.751516796 496.944394794 139.707126947 c 0,120,121
 501.075286417 62.5971499703 501.075286417 62.5971499703 447.890000641 49.7037473578 c 0,122,123
 446.877653651 49.4583299058 446.877653651 49.4583299058 445.423095565 49.2538213248 c 128,-1,124
 443.968537479 49.0493127438 443.968537479 49.0493127438 442.780868809 49.0121980978 c 2,125,-1
 378.780868809 47.0121980978 l 1,126,-1
 375.629772684 47.1126131852 l 1,127,-1
 333.629772684 51.1126131852 l 2,128,129
 328.989145135 51.5545777136 328.989145135 51.5545777136 324.819660113 53.639320225 c 2,130,-1
 284.819660113 73.639320225 l 1,131,-1
 296 96 l 1,64,-1
540 90 m 1,132,-1
 565 90 l 1,133,-1
 565 74 l 1,134,-1
 540 74 l 1,135,-1
 515 74 l 1,136,-1
 515 90 l 1,137,-1
 540 90 l 1,132,-1
636 560 m 1,138,-1
 660.875929755 557.512407024 l 1,139,-1
 658.875929755 537.512407024 l 1,140,-1
 634 540 l 1,141,-1
 609.124070245 542.487592976 l 1,142,-1
 611.124070245 562.487592976 l 1,143,-1
 636 560 l 1,138,-1
211.51492875 107.940285 m 1,144,-1
 218.063390626 81.7464374964 l 1,145,146
 211.832153476 80.1489501043 211.832153476 80.1489501043 204.83270561 81.0823697177 c 128,-1,147
 197.833257744 82.0157893312 197.833257744 82.0157893312 192.096526541 85.2939214469 c 0,148,149
 189.241859637 86.9251596781 189.241859637 86.9251596781 186.533717814 88.8595750259 c 128,-1,150
 183.825575992 90.7939903738 183.825575992 90.7939903738 181.230215664 93.0185849409 c 2,151,-1
 179.857482858 94.1430107834 l 1,152,153
 153.969853452 108.553546699 153.969853452 108.553546699 125.468028243 141.21045727 c 0,154,155
 113.685345848 153.922761946 113.685345848 153.922761946 106.028414447 169.389175793 c 128,-1,156
 98.3714830471 184.855589641 98.3714830471 184.855589641 93.7247828061 204.023228135 c 0,157,158
 89 222.92235936 89 222.92235936 89 246 c 0,159,160
 89 257.179383036 89 257.179383036 92.4824776521 264.061135219 c 128,-1,161
 95.9649553043 270.942887402 95.9649553043 270.942887402 100.935093313 272.779143619 c 128,-1,162
 105.905231321 274.615399836 105.905231321 274.615399836 110.875369329 274.854601334 c 128,-1,163
 115.845507338 275.093802832 115.845507338 275.093802832 119.32798499 273.990281418 c 2,164,-1
 122.810462642 272.886760003 l 1,165,166
 151.953083991 291.538037667 151.953083991 291.538037667 160.880247552 313.512594124 c 0,167,168
 167.501372977 329.403295144 167.501372977 329.403295144 164.536591093 339.375743298 c 0,169,170
 162.656496852 345.699696653 162.656496852 345.699696653 160.44068743 349.504285506 c 128,-1,171
 158.224878008 353.30887436 158.224878008 353.30887436 156.230215664 355.018584941 c 0,172,173
 144.814818966 364.803210682 144.814818966 364.803210682 131.479173377 378.672282094 c 0,174,175
 126.00343556 384.367049424 126.00343556 384.367049424 121.859417905 390.080533816 c 128,-1,176
 117.715400251 395.794018209 117.715400251 395.794018209 114.485753536 402.585177393 c 128,-1,177
 111.25610682 409.376336578 111.25610682 409.376336578 109.596075021 416.569807707 c 0,178,179
 97.368651365 473.631118103 97.368651365 473.631118103 160.107318678 525.29825589 c 0,180,181
 162.185268267 527.009508492 162.185268267 527.009508492 164.579882875 528.239175454 c 2,182,-1
 238.579882875 566.239175454 l 1,183,-1
 261.420117125 521.760824546 l 1,184,-1
 189.881405983 485.024729636 l 1,185,186
 153.125560022 453.712631239 153.125560022 453.712631239 158.397146036 427.46084048 c 0,187,188
 159.035333698 424.951673383 159.035333698 424.951673383 161.198822128 421.302123999 c 128,-1,189
 163.362310558 417.652574614 163.362310558 417.652574614 167.520826623 413.327717906 c 0,190,191
 179.185181034 401.196789318 179.185181034 401.196789318 188.769784336 392.981415059 c 0,192,193
 197.275906767 385.690452975 197.275906767 385.690452975 203.059467777 375.746175949 c 128,-1,194
 208.843028787 365.801898923 208.843028787 365.801898923 212.463408907 353.624256702 c 0,195,196
 220.498627023 326.596704856 220.498627023 326.596704856 207.119752448 294.487405876 c 0,197,198
 198.858344094 274.151631466 198.858344094 274.151631466 182.450567558 257.140811251 c 128,-1,199
 166.042791022 240.129991037 166.042791022 240.129991037 142.629480039 226.424638266 c 2,200,-1
 142.254986883 226.202939359 l 2,201,202
 141.887908636 225.983724601 141.887908636 225.983724601 140.79435033 225.449438155 c 2,203,-1
 140.431733086 225.272232084 l 1,204,205
 141.2003426 220.276270239 141.2003426 220.276270239 142.275217194 215.976771865 c 0,206,207
 145.715140018 201.787090214 145.715140018 201.787090214 150.622977891 191.983187243 c 128,-1,208
 155.530815764 182.179284272 155.530815764 182.179284272 162.529606312 174.791672027 c 0,209,210
 170.627943862 165.447436393 170.627943862 165.447436393 178.367908109 157.959715573 c 128,-1,211
 186.107872356 150.471994754 186.107872356 150.471994754 192.235013673 145.73945975 c 128,-1,212
 198.36215499 141.006924747 198.36215499 141.006924747 203.579510495 138.161094471 c 0,213,214
 207.93306536 135.984317039 207.93306536 135.984317039 213.769784336 130.981415059 c 1,215,-1
 211.51492875 107.940285 l 1,144,-1
82 322 m 1,216,-1
 82 347 l 1,217,-1
 88 347 l 1,218,-1
 88 322 l 1,219,-1
 88 297 l 1,220,-1
 82 297 l 1,221,-1
 82 322 l 1,216,-1
EndSplineSet
Ligature2: "'liga'SLl0s" u b u n t u l i n u x
Ligature2: "'liga'SLl0s" U b u n t u L i n u x
Ligature2: "'liga'SLl0s" u b u n t u g n u slash l i n u x
Ligature2: "'liga'SLl0s" U b u n t u G N U slash L i n u x
Ligature2: "'liga'SLl0s" u b u n t u
Ligature2: "'liga'SLl0s" U b u n t u
EndChar

StartChar: uniE005
Encoding: 57349 57349 213
Width: 1000
VWidth: 0
LayerCount: 2
Fore
SplineSet
476 18 m 1,0,-1
 471.340043012 -6.56185662503 l 1,1,2
 199.595658656 44.9943902093 199.595658656 44.9943902093 161.079106534 528.012773581 c 0,3,4
 161 529.004812274 161 529.004812274 161 530 c 0,5,6
 161 639.333333333 161 639.333333333 218.5 716 c 0,7,8
 246.761992173 753.68265623 246.761992173 753.68265623 282.822661322 781.034225358 c 128,-1,9
 318.883330472 808.385794485 318.883330472 808.385794485 362.094045855 824.859879725 c 0,10,11
 404.369500155 840.977396677 404.369500155 840.977396677 451.386593605 848.988698338 c 128,-1,12
 498.403687056 857 498.403687056 857 550 857 c 0,13,14
 606.774966654 857 606.774966654 857 658.271458647 832.978239105 c 128,-1,15
 709.76795064 808.956478209 709.76795064 808.956478209 754.536754361 762.311137806 c 128,-1,16
 799.180315901 715.796289255 799.180315901 715.796289255 822.090157951 663.390109774 c 128,-1,17
 845 610.983930294 845 610.983930294 845 554 c 0,18,19
 845 452.762305958 845 452.762305958 752.095357395 370.302564001 c 0,20,21
 660.97018071 289.422229665 660.97018071 289.422229665 564.377077888 288.99947807 c 0,22,23
 481.029552247 287.134690964 481.029552247 287.134690964 422.745910002 349.418191011 c 0,24,25
 363.286293404 412.958369533 363.286293404 412.958369533 377.365920242 496.262828324 c 0,26,27
 394.084305439 590.672532966 394.084305439 590.672532966 395.018470634 614.960828053 c 0,28,29
 395.36613963 624.000221942 395.36613963 624.000221942 401.417646344 630.724118291 c 2,30,-1
 455.417646344 690.724118291 l 2,31,32
 462.596780449 698.700933963 462.596780449 698.700933963 473.324570966 698.990874247 c 2,33,-1
 547.324570966 700.990874247 l 1,34,-1
 548 676 l 1,35,-1
 548.675429034 651.009125753 l 1,36,-1
 485.403219551 649.299066037 l 1,37,-1
 444.358623906 603.693959764 l 1,38,39
 442.897769394 587.465530405 442.897769394 587.465530405 438.474698667 558.545016492 c 128,-1,40
 434.051627939 529.624502578 434.051627939 529.624502578 426.634079758 487.737171676 c 0,41,42
 421.573629548 457.796174595 421.573629548 457.796174595 429.475037445 432.378517613 c 128,-1,43
 437.376445342 406.960860632 437.376445342 406.960860632 459.254089998 383.581808989 c 0,44,45
 502.560864859 337.303000559 502.560864859 337.303000559 563.652844732 339 c 0,46,47
 602.451010328 339 602.451010328 339 640.923057257 355.814899175 c 128,-1,48
 679.395104187 372.629798349 679.395104187 372.629798349 718.904642605 407.697435999 c 0,49,50
 795 475.237694042 795 475.237694042 795 554 c 0,51,52
 795 577.447508727 795 577.447508727 790.370213734 599.774118947 c 128,-1,53
 785.740427468 622.100729166 785.740427468 622.100729166 776.306323845 643.766573424 c 128,-1,54
 766.872220223 665.432417683 766.872220223 665.432417683 752.425985636 686.393358677 c 128,-1,55
 737.979751049 707.354299671 737.979751049 707.354299671 718.463245639 727.688862194 c 0,56,57
 679.732057639 768.043513165 679.732057639 768.043513165 637.978526889 787.521756582 c 128,-1,58
 596.224996139 807 596.224996139 807 550 807 c 0,59,60
 518.355686794 807 518.355686794 807 488.839290558 803.758465193 c 128,-1,61
 459.322894323 800.516930385 459.322894323 800.516930385 432.173908926 794.116828869 c 128,-1,62
 405.024923529 787.716727353 405.024923529 787.716727353 379.905954145 778.140120275 c 0,63,64
 343.116671514 764.114206272 343.116671514 764.114206272 312.927339981 741.215775434 c 128,-1,65
 282.738008448 718.317344597 282.738008448 718.317344597 258.5 686 c 0,66,67
 234.895790623 654.52772083 234.895790623 654.52772083 223.013815556 616.067092964 c 128,-1,68
 211.131840488 577.606465097 211.131840488 577.606465097 211.001326625 530.98194131 c 0,69,70
 247.605566988 87.6418699237 247.605566988 87.6418699237 480.659956988 42.561856625 c 1,71,-1
 476 18 l 1,0,-1
EndSplineSet
Ligature2: "'liga'SLl0s" d e b i a n g n u slash l i n u x
Ligature2: "'liga'SLl0s" D e b i a n G N U slash L i n u x
Ligature2: "'liga'SLl0s" d e b i a n
Ligature2: "'liga'SLl0s" D e b i a n
EndChar

